Italic_opsz12.ufo
<glyph name="comma" format="2">
  <advance width="271"/>
  <unicode hex="002C"/>
  <outline>
    <contour>
      <point x="87" y="49" type="curve" smooth="yes"/>
      <point x="87" y="27"/>
      <point x="102" y="0"/>
      <point x="136" y="0" type="curve" smooth="yes"/>
      <point x="149" y="0"/>
      <point x="160" y="4"/>
      <point x="169" y="13" type="curve" smooth="yes"/>
      <point x="171" y="15"/>
      <point x="172" y="15"/>
      <point x="173" y="15" type="curve" smooth="yes"/>
      <point x="175" y="15"/>
      <point x="175" y="1"/>
      <point x="175" y="-4" type="curve" smooth="yes"/>
      <point x="175" y="-37"/>
      <point x="169" y="-102"/>
      <point x="111" y="-167" type="curve" smooth="yes"/>
      <point x="100" y="-179"/>
      <point x="100" y="-181"/>
      <point x="100" y="-183" type="curve" smooth="yes"/>
      <point x="100" y="-188"/>
      <point x="105" y="-193"/>
      <point x="110" y="-193" type="curve" smooth="yes"/>
      <point x="118" y="-193"/>
      <point x="195" y="-119"/>
      <point x="195" y="-4" type="curve" smooth="yes"/>
      <point x="195" y="54"/>
      <point x="176" y="97"/>
      <point x="135" y="97" type="curve" smooth="yes"/>
      <point x="103" y="97"/>
      <point x="87" y="71"/>
    </contour>
  </outline>
</glyph>
<glyph name="period" format="2">
  <advance width="271"/>
  <unicode hex="002E"/>
  <outline>
    <contour>
      <point x="184" y="48" type="curve" smooth="yes"/>
      <point x="184" y="77"/>
      <point x="160" y="97"/>
      <point x="136" y="97" type="curve" smooth="yes"/>
      <point x="107" y="97"/>
      <point x="87" y="73"/>
      <point x="87" y="49" type="curve" smooth="yes"/>
      <point x="87" y="20"/>
      <point x="111" y="0"/>
      <point x="135" y="0" type="curve" smooth="yes"/>
      <point x="164" y="0"/>
      <point x="184" y="24"/>
    </contour>
  </outline>
</glyph>
<glyph name="slash" format="2">
  <advance width="489"/>
  <unicode hex="002F"/>
  <outline>
    <contour>
      <point x="429" y="713" type="line"/>
      <point x="429" y="714"/>
      <point x="435" y="729"/>
      <point x="435" y="731" type="curve" smooth="yes"/>
      <point x="435" y="743"/>
      <point x="425" y="750"/>
      <point x="417" y="750" type="curve" smooth="yes"/>
      <point x="412" y="750"/>
      <point x="403" y="750"/>
      <point x="395" y="728" type="curve" smooth="yes"/>
      <point x="60" y="-213" type="line"/>
      <point x="60" y="-214"/>
      <point x="54" y="-229"/>
      <point x="54" y="-231" type="curve" smooth="yes"/>
      <point x="54" y="-243"/>
      <point x="64" y="-250"/>
      <point x="72" y="-250" type="curve" smooth="yes"/>
      <point x="78" y="-250"/>
      <point x="87" y="-249"/>
      <point x="94" y="-228" type="curve" smooth="yes"/>
    </contour>
  </outline>
</glyph>
<glyph name="one" format="2">
  <advance width="489"/>
  <unicode hex="0031"/>
  <outline>
    <contour>
      <point x="221" y="394" type="curve"/>
      <point x="221" y="78" type="line" smooth="yes"/>
      <point x="221" y="52"/>
      <point x="220" y="39"/>
      <point x="199" y="34" type="curve" smooth="yes"/>
      <point x="178" y="29"/>
      <point x="129" y="29"/>
      <point x="127" y="29" type="curve" smooth="yes"/>
      <point x="102" y="29"/>
      <point x="99" y="29"/>
      <point x="99" y="14" type="curve" smooth="yes"/>
      <point x="99" y="0"/>
      <point x="105" y="0"/>
      <point x="116" y="0" type="curve" smooth="yes"/>
      <point x="138" y="0"/>
      <point x="162" y="2"/>
      <point x="184" y="2" type="curve" smooth="yes"/>
      <point x="231" y="2"/>
      <point x="277" y="2"/>
      <point x="324" y="2" type="curve" smooth="yes"/>
      <point x="346" y="2"/>
      <point x="371" y="0"/>
      <point x="393" y="0" type="curve" smooth="yes"/>
      <point x="404" y="0"/>
      <point x="410" y="0"/>
      <point x="410" y="14" type="curve" smooth="yes"/>
      <point x="410" y="29"/>
      <point x="407" y="29"/>
      <point x="381" y="29" type="curve" smooth="yes"/>
      <point x="359.99967" y="29.0"/>
      <point x="343.7414245173" y="29.4079212488"/>
      <point x="331.1544534470485" y="30.511615925123525" type="curve" smooth="yes"/>
      <point x="288.0" y="34.2956351513"/>
      <point x="288.0" y="46.25821"/>
      <point x="288" y="78" type="curve" smooth="yes"/>
      <point x="288" y="426" type="line" smooth="yes"/>
      <point x="288" y="445"/>
      <point x="288" y="451"/>
      <point x="278" y="451" type="curve" smooth="yes"/>
      <point x="276" y="451"/>
      <point x="274" y="451"/>
      <point x="266" y="446" type="curve" smooth="yes"/>
      <point x="238" y="427"/>
      <point x="194" y="410"/>
      <point x="119" y="409" type="curve"/>
      <point x="99" y="409"/>
      <point x="93" y="409"/>
      <point x="93" y="395" type="curve" smooth="yes"/>
      <point x="93" y="380"/>
      <point x="100" y="380"/>
      <point x="117" y="380" type="curve" smooth="yes"/>
      <point x="125" y="380"/>
      <point x="172" y="380"/>
    </contour>
  </outline>
</glyph>
<glyph name="two" format="2">
  <advance width="489"/>
  <unicode hex="0032"/>
  <outline>
    <contour>
      <point x="70" y="0" type="curve" smooth="yes"/>
      <point x="388" y="0" type="line" smooth="yes"/>
      <point x="410" y="0"/>
      <point x="411" y="1"/>
      <point x="414" y="8" type="curve"/>
      <point x="417" y="19"/>
      <point x="440" y="113"/>
      <point x="440" y="118" type="curve" smooth="yes"/>
      <point x="440" y="125"/>
      <point x="435" y="128"/>
      <point x="429" y="128" type="curve" smooth="yes"/>
      <point x="420" y="128"/>
      <point x="419" y="123"/>
      <point x="417" y="114" type="curve"/>
      <point x="415" y="108"/>
      <point x="405" y="68"/>
      <point x="396" y="66" type="curve" smooth="yes"/>
      <point x="384" y="63"/>
      <point x="347" y="63"/>
      <point x="322" y="63" type="curve" smooth="yes"/>
      <point x="132" y="63" type="line"/>
      <point x="182" y="96"/>
      <point x="238" y="131"/>
      <point x="286" y="156" type="curve" smooth="yes"/>
      <point x="371" y="199"/>
      <point x="440" y="234"/>
      <point x="440" y="314" type="curve" smooth="yes"/>
      <point x="440" y="408"/>
      <point x="342" y="452"/>
      <point x="234" y="452" type="curve" smooth="yes"/>
      <point x="123" y="452"/>
      <point x="54" y="391"/>
      <point x="54" y="324" type="curve" smooth="yes"/>
      <point x="54" y="293"/>
      <point x="79" y="287"/>
      <point x="89" y="287" type="curve" smooth="yes"/>
      <point x="101" y="287"/>
      <point x="123" y="296"/>
      <point x="123" y="322" type="curve" smooth="yes"/>
      <point x="123" y="327"/>
      <point x="122" y="354"/>
      <point x="88" y="356" type="curve"/>
      <point x="114" y="410"/>
      <point x="177" y="423"/>
      <point x="215" y="423" type="curve" smooth="yes"/>
      <point x="282" y="423"/>
      <point x="360" y="393"/>
      <point x="360" y="313" type="curve" smooth="yes"/>
      <point x="360" y="244"/>
      <point x="301" y="204"/>
      <point x="232" y="157" type="curve" smooth="yes"/>
      <point x="58" y="35" type="line" smooth="yes"/>
      <point x="44" y="25"/>
      <point x="43" y="24"/>
      <point x="43" y="15" type="curve" smooth="yes"/>
      <point x="43" y="0"/>
      <point x="49" y="0"/>
    </contour>
  </outline>
</glyph>
<glyph name="less" format="2">
  <advance width="761"/>
  <unicode hex="003C"/>
  <outline>
    <contour>
      <point x="659" y="487" type="line" smooth="yes"/>
      <point x="677" y="495"/>
      <point x="679" y="502"/>
      <point x="679" y="508" type="curve" smooth="yes"/>
      <point x="679" y="519"/>
      <point x="671" y="527"/>
      <point x="660" y="527" type="curve" smooth="yes"/>
      <point x="658" y="527"/>
      <point x="657" y="526"/>
      <point x="643" y="520" type="curve" smooth="yes"/>
      <point x="102" y="271" type="line" smooth="yes"/>
      <point x="84" y="263"/>
      <point x="82" y="256"/>
      <point x="82" y="250" type="curve" smooth="yes"/>
      <point x="82" y="243"/>
      <point x="83" y="237"/>
      <point x="102" y="228" type="curve" smooth="yes"/>
      <point x="643" y="-21" type="line" smooth="yes"/>
      <point x="656" y="-27"/>
      <point x="658" y="-28"/>
      <point x="660" y="-28" type="curve" smooth="yes"/>
      <point x="671" y="-28"/>
      <point x="679" y="-20"/>
      <point x="679" y="-9" type="curve" smooth="yes"/>
      <point x="679" y="-3"/>
      <point x="677" y="4"/>
      <point x="659" y="12" type="curve" smooth="yes"/>
      <point x="144" y="249" type="line"/>
    </contour>
  </outline>
</glyph>
<glyph name="greater" format="2">
  <advance width="761"/>
  <unicode hex="003E"/>
  <outline>
    <contour>
      <point x="659" y="228" type="line" smooth="yes"/>
      <point x="678" y="237"/>
      <point x="679" y="243"/>
      <point x="679" y="250" type="curve" smooth="yes"/>
      <point x="679" y="256"/>
      <point x="677" y="263"/>
      <point x="659" y="271" type="curve" smooth="yes"/>
      <point x="118" y="520" type="line" smooth="yes"/>
      <point x="105" y="526"/>
      <point x="103" y="527"/>
      <point x="101" y="527" type="curve" smooth="yes"/>
      <point x="89" y="527"/>
      <point x="82" y="517"/>
      <point x="82" y="509" type="curve" smooth="yes"/>
      <point x="82" y="497"/>
      <point x="90" y="493"/>
      <point x="103" y="487" type="curve" smooth="yes"/>
      <point x="617" y="250" type="line"/>
      <point x="102" y="12" type="line" smooth="yes"/>
      <point x="82" y="3"/>
      <point x="82" y="-4"/>
      <point x="82" y="-10" type="curve" smooth="yes"/>
      <point x="82" y="-18"/>
      <point x="89" y="-28"/>
      <point x="101" y="-28" type="curve" smooth="yes"/>
      <point x="103" y="-28"/>
      <point x="104" y="-27"/>
      <point x="118" y="-21" type="curve" smooth="yes"/>
    </contour>
  </outline>
</glyph>
<glyph name="B" format="2">
  <advance width="743"/>
  <unicode hex="0042"/>
  <outline>
    <contour>
      <point x="688" y="217" type="curve" smooth="yes"/>
      <point x="688" y="299"/>
      <point x="616" y="349"/>
      <point x="535" y="357" type="curve"/>
      <point x="644" y="377"/>
      <point x="743" y="453"/>
      <point x="743" y="545" type="curve" smooth="yes"/>
      <point x="743" y="623"/>
      <point x="674" y="683"/>
      <point x="561" y="683" type="curve" smooth="yes"/>
      <point x="240" y="683" type="line" smooth="yes"/>
      <point x="221" y="683"/>
      <point x="212" y="683"/>
      <point x="212" y="664" type="curve" smooth="yes"/>
      <point x="212" y="654"/>
      <point x="221" y="654"/>
      <point x="236" y="654" type="curve" smooth="yes"/>
      <point x="240" y="654"/>
      <point x="250" y="654"/>
      <point x="258" y="654" type="curve" smooth="yes"/>
      <point x="298" y="654"/>
      <point x="297" y="644"/>
      <point x="297" y="635" type="curve" smooth="yes"/>
      <point x="297" y="633"/>
      <point x="296" y="625"/>
      <point x="293" y="612" type="curve" smooth="yes"/>
      <point x="158" y="74" type="line" smooth="yes"/>
      <point x="149" y="39"/>
      <point x="147" y="29"/>
      <point x="77" y="29" type="curve" smooth="yes"/>
      <point x="58" y="29"/>
      <point x="48" y="29"/>
      <point x="48" y="11" type="curve" smooth="yes"/>
      <point x="48" y="0"/>
      <point x="54" y="0"/>
      <point x="74" y="0" type="curve" smooth="yes"/>
      <point x="417" y="0" type="line" smooth="yes"/>
      <point x="570" y="0"/>
      <point x="688" y="116"/>
    </contour>
    <contour>
      <point x="661" y="549" type="curve" smooth="yes"/>
      <point x="661" y="468"/>
      <point x="580" y="365"/>
      <point x="448" y="365" type="curve" smooth="yes"/>
      <point x="304" y="365" type="line"/>
      <point x="366" y="615" type="line" smooth="yes"/>
      <point x="375" y="652"/>
      <point x="379" y="654"/>
      <point x="418" y="654" type="curve" smooth="yes"/>
      <point x="548" y="654" type="line" smooth="yes"/>
      <point x="661" y="654"/>
      <point x="661" y="558"/>
    </contour>
    <contour>
      <point x="604" y="227" type="curve" smooth="yes"/>
      <point x="604" y="131"/>
      <point x="517" y="29"/>
      <point x="393" y="29" type="curve" smooth="yes"/>
      <point x="247" y="29" type="line" smooth="yes"/>
      <point x="217" y="29"/>
      <point x="222" y="38"/>
      <point x="228" y="63" type="curve" smooth="yes"/>
      <point x="298" y="345" type="line"/>
      <point x="486" y="345" type="line" smooth="yes"/>
      <point x="604" y="345"/>
      <point x="604" y="235"/>
    </contour>
  </outline>
</glyph>
<glyph name="C" format="2">
  <advance width="700"/>
  <unicode hex="0043"/>
  <outline>
    <contour>
      <point x="747" y="695" type="line"/>
      <point x="747" y="704"/>
      <point x="740" y="704"/>
      <point x="738" y="704" type="curve" smooth="yes"/>
      <point x="736" y="704"/>
      <point x="732" y="704"/>
      <point x="724" y="694" type="curve" smooth="yes"/>
      <point x="655" y="610" type="line"/>
      <point x="620" y="670"/>
      <point x="565" y="704"/>
      <point x="490" y="704" type="curve" smooth="yes"/>
      <point x="274" y="704"/>
      <point x="50" y="485"/>
      <point x="50" y="250" type="curve" smooth="yes"/>
      <point x="50" y="83"/>
      <point x="167" y="-21"/>
      <point x="313" y="-21" type="curve" smooth="yes"/>
      <point x="393" y="-21"/>
      <point x="463" y="13"/>
      <point x="521" y="62" type="curve" smooth="yes"/>
      <point x="608" y="135"/>
      <point x="634" y="232"/>
      <point x="634" y="240" type="curve" smooth="yes"/>
      <point x="634" y="249"/>
      <point x="626" y="249"/>
      <point x="623" y="249" type="curve" smooth="yes"/>
      <point x="614" y="249"/>
      <point x="613" y="243"/>
      <point x="611" y="239" type="curve"/>
      <point x="565" y="83"/>
      <point x="430" y="8"/>
      <point x="330" y="8" type="curve" smooth="yes"/>
      <point x="224" y="8"/>
      <point x="132" y="76"/>
      <point x="132" y="218" type="curve" smooth="yes"/>
      <point x="132" y="250"/>
      <point x="142" y="424"/>
      <point x="255" y="555" type="curve" smooth="yes"/>
      <point x="310" y="619"/>
      <point x="404" y="675"/>
      <point x="499" y="675" type="curve" smooth="yes"/>
      <point x="609" y="675"/>
      <point x="658" y="584"/>
      <point x="658" y="482" type="curve" smooth="yes"/>
      <point x="658" y="456"/>
      <point x="655" y="434"/>
      <point x="655" y="430" type="curve" smooth="yes"/>
      <point x="655" y="421"/>
      <point x="665" y="421"/>
      <point x="668" y="421" type="curve" smooth="yes"/>
      <point x="679" y="421"/>
      <point x="680" y="422"/>
      <point x="684" y="440" type="curve" smooth="yes"/>
    </contour>
  </outline>
</glyph>
<glyph name="D" format="2">
  <advance width="813"/>
  <unicode hex="0044"/>
  <outline>
    <contour>
      <point x="789" y="432" type="curve" smooth="yes"/>
      <point x="789" y="576"/>
      <point x="703" y="683"/>
      <point x="560" y="683" type="curve" smooth="yes"/>
      <point x="239" y="683" type="line" smooth="yes"/>
      <point x="220" y="683"/>
      <point x="211" y="683"/>
      <point x="211" y="664" type="curve" smooth="yes"/>
      <point x="211" y="654"/>
      <point x="220" y="654"/>
      <point x="235" y="654" type="curve" smooth="yes"/>
      <point x="252.99988" y="654.0"/>
      <point x="265.6883554096" y="653.3034223488"/>
      <point x="274.6327154953352" y="652.0387333797225" type="curve" smooth="yes"/>
      <point x="296.0" y="649.0175033808"/>
      <point x="296.0" y="642.7541200000001"/>
      <point x="296" y="635" type="curve" smooth="yes"/>
      <point x="296" y="633"/>
      <point x="296" y="627"/>
      <point x="292" y="612" type="curve" smooth="yes"/>
      <point x="157" y="74" type="line" smooth="yes"/>
      <point x="148" y="39"/>
      <point x="146" y="29"/>
      <point x="76" y="29" type="curve" smooth="yes"/>
      <point x="57" y="29"/>
      <point x="47" y="29"/>
      <point x="47" y="11" type="curve" smooth="yes"/>
      <point x="47" y="0"/>
      <point x="53" y="0"/>
      <point x="73" y="0" type="curve" smooth="yes"/>
      <point x="390" y="0" type="line" smooth="yes"/>
      <point x="592" y="0"/>
      <point x="789" y="209"/>
    </contour>
    <contour>
      <point x="368" y="615" type="line" smooth="yes"/>
      <point x="377" y="652"/>
      <point x="381" y="654"/>
      <point x="420" y="654" type="curve" smooth="yes"/>
      <point x="530" y="654" type="line" smooth="yes"/>
      <point x="624" y="654"/>
      <point x="710" y="603"/>
      <point x="710" y="465" type="curve" smooth="yes"/>
      <point x="710" y="415"/>
      <point x="690" y="241"/>
      <point x="593" y="131" type="curve" smooth="yes"/>
      <point x="565" y="98"/>
      <point x="489" y="29"/>
      <point x="374" y="29" type="curve" smooth="yes"/>
      <point x="250" y="29" type="line" smooth="yes"/>
      <point x="218" y="29"/>
      <point x="224" y="38"/>
      <point x="230" y="63" type="curve" smooth="yes"/>
    </contour>
  </outline>
</glyph>
<glyph name="E" format="2">
  <advance width="724"/>
  <unicode hex="0045"/>
  <outline>
    <contour>
      <point x="156" y="74" type="line" smooth="yes"/>
      <point x="147" y="39"/>
      <point x="145" y="29"/>
      <point x="75" y="29" type="curve" smooth="yes"/>
      <point x="56" y="29"/>
      <point x="46" y="29"/>
      <point x="46" y="11" type="curve" smooth="yes"/>
      <point x="46" y="0"/>
      <point x="52" y="0"/>
      <point x="72" y="0" type="curve" smooth="yes"/>
      <point x="574" y="0" type="line" smooth="yes"/>
      <point x="596" y="0"/>
      <point x="597" y="1"/>
      <point x="604" y="17" type="curve" smooth="yes"/>
      <point x="695" y="232" type="line" smooth="yes"/>
      <point x="697" y="237"/>
      <point x="699" y="243"/>
      <point x="699" y="247" type="curve" smooth="yes"/>
      <point x="699" y="253"/>
      <point x="694" y="256"/>
      <point x="689" y="256" type="curve" smooth="yes"/>
      <point x="683" y="256"/>
      <point x="680" y="255"/>
      <point x="669" y="229" type="curve" smooth="yes"/>
      <point x="610" y="89"/>
      <point x="567" y="29"/>
      <point x="407" y="29" type="curve" smooth="yes"/>
      <point x="246" y="29" type="line" smooth="yes"/>
      <point x="222" y="29"/>
      <point x="225.45553" y="38.04987"/>
      <point x="231" y="63" type="curve" smooth="yes"/>
      <point x="300" y="339" type="line"/>
      <point x="399" y="339" type="line" smooth="yes"/>
      <point x="477" y="339"/>
      <point x="483" y="322"/>
      <point x="483" y="292" type="curve" smooth="yes"/>
      <point x="483" y="260"/>
      <point x="474" y="240"/>
      <point x="473" y="232" type="curve" smooth="yes"/>
      <point x="472" y="225"/>
      <point x="478" y="222"/>
      <point x="484" y="222" type="curve" smooth="yes"/>
      <point x="493" y="222"/>
      <point x="494" y="229"/>
      <point x="498" y="243" type="curve" smooth="yes"/>
      <point x="555" y="475" type="line"/>
      <point x="555" y="480"/>
      <point x="551" y="485"/>
      <point x="545" y="485" type="curve" smooth="yes"/>
      <point x="536" y="485"/>
      <point x="535" y="481"/>
      <point x="531" y="467" type="curve" smooth="yes"/>
      <point x="511" y="390"/>
      <point x="491" y="368"/>
      <point x="402" y="368" type="curve" smooth="yes"/>
      <point x="307" y="368" type="line"/>
      <point x="327.646" y="449.918"/>
      <point x="348.29200000000003" y="531.836"/>
      <point x="369" y="614" type="curve" smooth="yes"/>
      <point x="378" y="649"/>
      <point x="380" y="652"/>
      <point x="421" y="652" type="curve" smooth="yes"/>
      <point x="564" y="652" type="line" smooth="yes"/>
      <point x="687" y="652"/>
      <point x="712" y="619"/>
      <point x="712" y="543" type="curve" smooth="yes"/>
      <point x="712" y="527"/>
      <point x="710" y="496"/>
      <point x="706" y="469" type="curve" smooth="yes"/>
      <point x="705" y="461"/>
      <point x="711" y="458"/>
      <point x="717" y="458" type="curve" smooth="yes"/>
      <point x="724" y="458"/>
      <point x="728" y="462"/>
      <point x="730" y="480" type="curve" smooth="yes"/>
      <point x="750" y="646"/>
      <point x="753" y="668"/>
      <point x="753" y="670" type="curve" smooth="yes"/>
      <point x="753" y="681"/>
      <point x="744" y="681"/>
      <point x="726" y="681" type="curve" smooth="yes"/>
      <point x="238" y="681" type="line" smooth="yes"/>
      <point x="219" y="681"/>
      <point x="209" y="681"/>
      <point x="209" y="663" type="curve" smooth="yes"/>
      <point x="209" y="652"/>
      <point x="216" y="652"/>
      <point x="233" y="652" type="curve" smooth="yes"/>
      <point x="295" y="652"/>
      <point x="295" y="645"/>
      <point x="295" y="634" type="curve" smooth="yes"/>
      <point x="295" y="629"/>
      <point x="294" y="625"/>
      <point x="291" y="614" type="curve" smooth="yes"/>
    </contour>
  </outline>
</glyph>
<glyph name="G" format="2">
  <advance width="772"/>
  <unicode hex="0047"/>
  <outline>
    <contour>
      <point x="50" y="250" type="curve" smooth="yes"/>
      <point x="50" y="85"/>
      <point x="164" y="-21"/>
      <point x="314" y="-21" type="curve" smooth="yes"/>
      <point x="386" y="-21"/>
      <point x="477" y="3"/>
      <point x="527" y="66" type="curve"/>
      <point x="538" y="28"/>
      <point x="555" y="10"/>
      <point x="561" y="4" type="curve" smooth="yes"/>
      <point x="565" y="0"/>
      <point x="573" y="-1"/>
      <point x="575" y="7" type="curve" smooth="yes"/>
      <point x="582" y="35"/>
      <point x="613.62131" y="159.8056"/>
      <point x="623" y="200" type="curve" smooth="yes"/>
      <point x="633" y="238"/>
      <point x="635" y="241"/>
      <point x="690" y="242" type="curve" smooth="yes"/>
      <point x="694" y="242"/>
      <point x="706" y="242"/>
      <point x="706" y="261" type="curve" smooth="yes"/>
      <point x="706" y="271"/>
      <point x="696" y="271"/>
      <point x="693" y="271" type="curve" smooth="yes"/>
      <point x="676" y="271"/>
      <point x="657" y="269"/>
      <point x="639" y="269" type="curve" smooth="yes"/>
      <point x="614" y="269"/>
      <point x="587" y="269"/>
      <point x="564" y="269" type="curve" smooth="yes"/>
      <point x="545" y="269"/>
      <point x="479" y="271"/>
      <point x="458" y="271" type="curve" smooth="yes"/>
      <point x="449" y="271"/>
      <point x="437" y="271"/>
      <point x="437" y="253" type="curve" smooth="yes"/>
      <point x="437" y="243"/>
      <point x="443" y="242"/>
      <point x="459" y="242" type="curve" smooth="yes"/>
      <point x="488" y="242"/>
      <point x="502" y="241"/>
      <point x="520" y="240" type="curve" smooth="yes"/>
      <point x="548" y="238"/>
      <point x="549" y="229"/>
      <point x="549" y="219" type="curve" smooth="yes"/>
      <point x="549" y="218"/>
      <point x="530" y="117"/>
      <point x="511" y="87" type="curve" smooth="yes"/>
      <point x="493" y="61"/>
      <point x="466" y="42"/>
      <point x="436" y="29" type="curve" smooth="yes"/>
      <point x="403" y="14"/>
      <point x="366" y="8"/>
      <point x="335" y="8" type="curve" smooth="yes"/>
      <point x="258" y="8"/>
      <point x="133" y="48"/>
      <point x="133" y="221" type="curve" smooth="yes"/>
      <point x="133" y="288"/>
      <point x="157" y="441"/>
      <point x="254" y="554" type="curve" smooth="yes"/>
      <point x="317" y="626"/>
      <point x="410" y="675"/>
      <point x="498" y="675" type="curve" smooth="yes"/>
      <point x="616" y="675"/>
      <point x="658" y="574"/>
      <point x="658" y="482" type="curve" smooth="yes"/>
      <point x="658" y="466"/>
      <point x="654" y="444"/>
      <point x="654" y="430" type="curve" smooth="yes"/>
      <point x="654" y="421"/>
      <point x="664" y="421"/>
      <point x="667" y="421" type="curve" smooth="yes"/>
      <point x="678" y="421"/>
      <point x="679" y="422"/>
      <point x="683" y="440" type="curve" smooth="yes"/>
      <point x="746" y="695" type="line"/>
      <point x="746" y="704"/>
      <point x="739" y="704"/>
      <point x="737" y="704" type="curve" smooth="yes"/>
      <point x="735" y="704"/>
      <point x="731" y="704"/>
      <point x="723" y="694" type="curve" smooth="yes"/>
      <point x="654" y="611" type="line"/>
      <point x="654.0" y="611.0"/>
      <point x="654.0" y="611.0"/>
      <point x="654" y="611" type="curve"/>
      <point x="643" y="629"/>
      <point x="598" y="704"/>
      <point x="489" y="704" type="curve" smooth="yes"/>
      <point x="275" y="704"/>
      <point x="50" y="486"/>
    </contour>
  </outline>
</glyph>
<glyph name="H" format="2">
  <advance width="811"/>
  <unicode hex="0048"/>
  <outline>
    <contour>
      <point x="748" y="610" type="line" smooth="yes"/>
      <point x="757" y="644"/>
      <point x="759" y="654"/>
      <point x="830" y="654" type="curve" smooth="yes"/>
      <point x="848" y="654"/>
      <point x="858" y="654"/>
      <point x="858" y="672" type="curve" smooth="yes"/>
      <point x="858" y="683"/>
      <point x="849" y="683"/>
      <point x="843" y="683" type="curve" smooth="yes"/>
      <point x="825" y="683"/>
      <point x="804" y="681"/>
      <point x="785" y="681" type="curve" smooth="yes"/>
      <point x="667" y="681" type="line" smooth="yes"/>
      <point x="648" y="681"/>
      <point x="627" y="683"/>
      <point x="608" y="683" type="curve" smooth="yes"/>
      <point x="601" y="683"/>
      <point x="589" y="683"/>
      <point x="589" y="664" type="curve" smooth="yes"/>
      <point x="589" y="654"/>
      <point x="596" y="654"/>
      <point x="615" y="654" type="curve" smooth="yes"/>
      <point x="675" y="654"/>
      <point x="675" y="646"/>
      <point x="675" y="635" type="curve" smooth="yes"/>
      <point x="675" y="633"/>
      <point x="675" y="627"/>
      <point x="671" y="612" type="curve" smooth="yes"/>
      <point x="610" y="370" type="line"/>
      <point x="308" y="370" type="line"/>
      <point x="368" y="610" type="line" smooth="yes"/>
      <point x="377" y="644"/>
      <point x="379" y="654"/>
      <point x="450" y="654" type="curve" smooth="yes"/>
      <point x="468" y="654"/>
      <point x="478" y="654"/>
      <point x="478" y="672" type="curve" smooth="yes"/>
      <point x="478" y="683"/>
      <point x="469" y="683"/>
      <point x="463" y="683" type="curve" smooth="yes"/>
      <point x="445" y="683"/>
      <point x="424" y="681"/>
      <point x="405" y="681" type="curve" smooth="yes"/>
      <point x="287" y="681" type="line" smooth="yes"/>
      <point x="268" y="681"/>
      <point x="247" y="683"/>
      <point x="228" y="683" type="curve" smooth="yes"/>
      <point x="221" y="683"/>
      <point x="209" y="683"/>
      <point x="209" y="664" type="curve" smooth="yes"/>
      <point x="209" y="654"/>
      <point x="216" y="654"/>
      <point x="235" y="654" type="curve" smooth="yes"/>
      <point x="295" y="654"/>
      <point x="295" y="646"/>
      <point x="295" y="635" type="curve" smooth="yes"/>
      <point x="295" y="633"/>
      <point x="295" y="627"/>
      <point x="291" y="612" type="curve" smooth="yes"/>
      <point x="156" y="74" type="line" smooth="yes"/>
      <point x="147" y="39"/>
      <point x="145" y="29"/>
      <point x="76" y="29" type="curve" smooth="yes"/>
      <point x="53" y="29"/>
      <point x="46" y="29"/>
      <point x="46" y="10" type="curve" smooth="yes"/>
      <point x="46" y="0"/>
      <point x="57" y="0"/>
      <point x="60" y="0" type="curve" smooth="yes"/>
      <point x="78" y="0"/>
      <point x="99" y="2"/>
      <point x="118" y="2" type="curve" smooth="yes"/>
      <point x="236" y="2" type="line" smooth="yes"/>
      <point x="255" y="2"/>
      <point x="276" y="0"/>
      <point x="295" y="0" type="curve" smooth="yes"/>
      <point x="303" y="0"/>
      <point x="314" y="0"/>
      <point x="314" y="19" type="curve" smooth="yes"/>
      <point x="314" y="29"/>
      <point x="305" y="29"/>
      <point x="290" y="29" type="curve" smooth="yes"/>
      <point x="277.00029" y="29.0"/>
      <point x="266.77094819810003" y="29.3633269768"/>
      <point x="258.7215814276029" y="30.031909471380615" type="curve" smooth="yes"/>
      <point x="229.00000000000003" y="32.5005917442"/>
      <point x="229.00000000000003" y="39.1311"/>
      <point x="229" y="47" type="curve" smooth="yes"/>
      <point x="229" y="48"/>
      <point x="229" y="55"/>
      <point x="231" y="63" type="curve" smooth="yes"/>
      <point x="300" y="341" type="line"/>
      <point x="603" y="341" type="line"/>
      <point x="586" y="275"/>
      <point x="535" y="66"/>
      <point x="533" y="60" type="curve" smooth="yes"/>
      <point x="522" y="30"/>
      <point x="506" y="30"/>
      <point x="447" y="29" type="curve" smooth="yes"/>
      <point x="435" y="29"/>
      <point x="426" y="29"/>
      <point x="426" y="10" type="curve" smooth="yes"/>
      <point x="426" y="0"/>
      <point x="437" y="0"/>
      <point x="440" y="0" type="curve" smooth="yes"/>
      <point x="458" y="0"/>
      <point x="479" y="2"/>
      <point x="498" y="2" type="curve" smooth="yes"/>
      <point x="616" y="2" type="line" smooth="yes"/>
      <point x="635" y="2"/>
      <point x="656" y="0"/>
      <point x="675" y="0" type="curve" smooth="yes"/>
      <point x="683" y="0"/>
      <point x="694" y="0"/>
      <point x="694" y="19" type="curve" smooth="yes"/>
      <point x="694" y="29"/>
      <point x="685" y="29"/>
      <point x="670" y="29" type="curve" smooth="yes"/>
      <point x="655.0001" y="29.0"/>
      <point x="643.68867541" y="29.48373448"/>
      <point x="635.158730126681" y="30.361990708526" type="curve" smooth="yes"/>
      <point x="609.0" y="33.05533362"/>
      <point x="609.0" y="39.458999999999996"/>
      <point x="609" y="47" type="curve" smooth="yes"/>
      <point x="609" y="48"/>
      <point x="609" y="55"/>
      <point x="611" y="63" type="curve" smooth="yes"/>
    </contour>
  </outline>
</glyph>
<glyph name="I" format="2">
  <advance width="431"/>
  <unicode hex="0049"/>
  <outline>
    <contour>
      <point x="156" y="74" type="line" smooth="yes"/>
      <point x="147" y="39"/>
      <point x="145" y="29"/>
      <point x="72" y="29" type="curve" smooth="yes"/>
      <point x="50" y="29"/>
      <point x="41" y="29"/>
      <point x="41" y="10" type="curve" smooth="yes"/>
      <point x="41" y="0"/>
      <point x="51" y="0"/>
      <point x="56" y="0" type="curve" smooth="yes"/>
      <point x="74" y="0"/>
      <point x="96" y="2"/>
      <point x="114" y="2" type="curve" smooth="yes"/>
      <point x="154.959" y="2.0"/>
      <point x="195.918" y="2.0"/>
      <point x="237" y="2" type="curve" smooth="yes"/>
      <point x="257" y="2"/>
      <point x="279" y="0"/>
      <point x="299" y="0" type="curve" smooth="yes"/>
      <point x="307" y="0"/>
      <point x="319" y="0"/>
      <point x="319" y="18" type="curve" smooth="yes"/>
      <point x="319" y="29"/>
      <point x="313" y="29"/>
      <point x="291" y="29" type="curve" smooth="yes"/>
      <point x="277.99984" y="29.0"/>
      <point x="267.7255535488" y="29.3517256192"/>
      <point x="259.6055794806876" y="30.01830194368307" type="curve" smooth="yes"/>
      <point x="228.99999999999997" y="32.5307428096"/>
      <point x="228.99999999999997" y="39.51616"/>
      <point x="229" y="49" type="curve" smooth="yes"/>
      <point x="229" y="51"/>
      <point x="229" y="56"/>
      <point x="233" y="72" type="curve" smooth="yes"/>
      <point x="368" y="609" type="line" smooth="yes"/>
      <point x="377" y="644"/>
      <point x="379" y="654"/>
      <point x="452" y="654" type="curve" smooth="yes"/>
      <point x="474" y="654"/>
      <point x="482" y="654"/>
      <point x="482" y="673" type="curve" smooth="yes"/>
      <point x="482" y="683"/>
      <point x="471" y="683"/>
      <point x="468" y="683" type="curve" smooth="yes"/>
      <point x="450" y="683"/>
      <point x="428" y="681"/>
      <point x="410" y="681" type="curve" smooth="yes"/>
      <point x="369.041" y="681.0"/>
      <point x="328.082" y="681.0"/>
      <point x="287" y="681" type="curve" smooth="yes"/>
      <point x="267" y="681"/>
      <point x="244" y="683"/>
      <point x="224" y="683" type="curve" smooth="yes"/>
      <point x="216" y="683"/>
      <point x="205" y="683"/>
      <point x="205" y="664" type="curve" smooth="yes"/>
      <point x="205" y="654"/>
      <point x="213" y="654"/>
      <point x="233" y="654" type="curve" smooth="yes"/>
      <point x="246" y="654"/>
      <point x="253" y="654"/>
      <point x="267.99137761418984" y="652.6659706190669" type="curve" smooth="yes"/>
      <point x="295" y="650"/>
      <point x="295.0" y="643.33866"/>
      <point x="295" y="635" type="curve" smooth="yes"/>
      <point x="295" y="628"/>
      <point x="293" y="622"/>
      <point x="291" y="613" type="curve" smooth="yes"/>
    </contour>
  </outline>
</glyph>
<glyph name="J" format="2">
  <advance width="541"/>
  <unicode hex="004A"/>
  <outline>
    <contour>
      <point x="203" y="-21" type="curve" smooth="yes"/>
      <point x="294" y="-21"/>
      <point x="392" y="48"/>
      <point x="416" y="143" type="curve" smooth="yes"/>
      <point x="534" y="614" type="line" smooth="yes"/>
      <point x="542" y="644"/>
      <point x="544" y="654"/>
      <point x="593" y="654" type="curve" smooth="yes"/>
      <point x="609" y="654"/>
      <point x="619" y="654"/>
      <point x="619" y="672" type="curve" smooth="yes"/>
      <point x="619" y="683"/>
      <point x="610" y="683"/>
      <point x="606" y="683" type="curve" smooth="yes"/>
      <point x="589" y="683"/>
      <point x="570" y="681"/>
      <point x="552" y="681" type="curve" smooth="yes"/>
      <point x="497" y="681" type="line" smooth="yes"/>
      <point x="455" y="681"/>
      <point x="411" y="683"/>
      <point x="369" y="683" type="curve" smooth="yes"/>
      <point x="360" y="683"/>
      <point x="348" y="683"/>
      <point x="348" y="665" type="curve" smooth="yes"/>
      <point x="348" y="655"/>
      <point x="356" y="655"/>
      <point x="356" y="654" type="curve"/>
      <point x="381" y="654" type="line" smooth="yes"/>
      <point x="461" y="654"/>
      <point x="461" y="646"/>
      <point x="461" y="631" type="curve" smooth="yes"/>
      <point x="461" y="630"/>
      <point x="461" y="623"/>
      <point x="457" y="607" type="curve" smooth="yes"/>
      <point x="342" y="150" type="line" smooth="yes"/>
      <point x="316" y="48"/>
      <point x="249" y="-1"/>
      <point x="201" y="-1" type="curve" smooth="yes"/>
      <point x="167" y="-1"/>
      <point x="119" y="15"/>
      <point x="107" y="68" type="curve"/>
      <point x="146" y="58"/>
      <point x="179.0" y="91.48485"/>
      <point x="179" y="124" type="curve" smooth="yes"/>
      <point x="179" y="140"/>
      <point x="169" y="161"/>
      <point x="139" y="161" type="curve" smooth="yes"/>
      <point x="121" y="161"/>
      <point x="79" y="151"/>
      <point x="79" y="86" type="curve" smooth="yes"/>
      <point x="79" y="23"/>
      <point x="131" y="-21"/>
    </contour>
  </outline>
</glyph>
<glyph name="K" format="2">
  <advance width="833"/>
  <unicode hex="004B"/>
  <outline>
    <contour>
      <point x="285" y="280" type="line"/>
      <point x="368" y="610" type="line" smooth="yes"/>
      <point x="377" y="644"/>
      <point x="379" y="654"/>
      <point x="450" y="654" type="curve" smooth="yes"/>
      <point x="469" y="654"/>
      <point x="478" y="654"/>
      <point x="478" y="673" type="curve" smooth="yes"/>
      <point x="478" y="683"/>
      <point x="468" y="683"/>
      <point x="463" y="683" type="curve" smooth="yes"/>
      <point x="445" y="683"/>
      <point x="424" y="681"/>
      <point x="405" y="681" type="curve" smooth="yes"/>
      <point x="365.706" y="681.0"/>
      <point x="326.412" y="681.0"/>
      <point x="287" y="681" type="curve" smooth="yes"/>
      <point x="269" y="681"/>
      <point x="247" y="683"/>
      <point x="229" y="683" type="curve" smooth="yes"/>
      <point x="221" y="683"/>
      <point x="210" y="683"/>
      <point x="210" y="664" type="curve" smooth="yes"/>
      <point x="210" y="654"/>
      <point x="219" y="654"/>
      <point x="234" y="654" type="curve" smooth="yes"/>
      <point x="248" y="654"/>
      <point x="263" y="657"/>
      <point x="271" y="656" type="curve" smooth="yes"/>
      <point x="299" y="653"/>
      <point x="295" y="643"/>
      <point x="295" y="635" type="curve" smooth="yes"/>
      <point x="295" y="633"/>
      <point x="295" y="627"/>
      <point x="291" y="612" type="curve" smooth="yes"/>
      <point x="156" y="74" type="line" smooth="yes"/>
      <point x="147" y="39"/>
      <point x="145" y="29"/>
      <point x="75" y="29" type="curve" smooth="yes"/>
      <point x="56" y="29"/>
      <point x="46" y="29"/>
      <point x="46" y="11" type="curve" smooth="yes"/>
      <point x="46" y="0"/>
      <point x="55" y="0"/>
      <point x="61" y="0" type="curve" smooth="yes"/>
      <point x="80" y="0"/>
      <point x="100" y="2"/>
      <point x="119" y="2" type="curve" smooth="yes"/>
      <point x="157.961" y="2.0"/>
      <point x="196.92200000000003" y="2.0"/>
      <point x="236" y="2" type="curve" smooth="yes"/>
      <point x="255" y="2"/>
      <point x="276" y="0"/>
      <point x="295" y="0" type="curve" smooth="yes"/>
      <point x="303" y="0"/>
      <point x="314" y="0"/>
      <point x="314" y="19" type="curve" smooth="yes"/>
      <point x="314" y="29"/>
      <point x="305" y="29"/>
      <point x="290" y="29" type="curve" smooth="yes"/>
      <point x="276" y="29"/>
      <point x="269" y="32"/>
      <point x="261" y="33" type="curve" smooth="yes"/>
      <point x="233" y="36"/>
      <point x="229" y="39"/>
      <point x="229" y="47" type="curve" smooth="yes"/>
      <point x="229" y="54"/>
      <point x="235" y="79"/>
      <point x="239" y="95" type="curve" smooth="yes"/>
      <point x="251.987" y="146.615"/>
      <point x="264.974" y="198.23000000000002"/>
      <point x="278" y="250" type="curve"/>
      <point x="278.0" y="250.0"/>
      <point x="278.0" y="250.0"/>
      <point x="278" y="250" type="curve"/>
      <point x="430" y="369" type="line"/>
      <point x="430.0" y="369.0"/>
      <point x="430.0" y="369.0"/>
      <point x="430" y="369" type="curve"/>
      <point x="459" y="305"/>
      <point x="512" y="179"/>
      <point x="553" y="79" type="curve" smooth="yes"/>
      <point x="556" y="71"/>
      <point x="558" y="67"/>
      <point x="558" y="60" type="curve" smooth="yes"/>
      <point x="558" y="30"/>
      <point x="518" y="29"/>
      <point x="509" y="29" type="curve" smooth="yes"/>
      <point x="500" y="29"/>
      <point x="490" y="29"/>
      <point x="490" y="10" type="curve" smooth="yes"/>
      <point x="490" y="0"/>
      <point x="501" y="0"/>
      <point x="504" y="0" type="curve" smooth="yes"/>
      <point x="539" y="0"/>
      <point x="576" y="2"/>
      <point x="611" y="2" type="curve" smooth="yes"/>
      <point x="626.984" y="2.0"/>
      <point x="642.968" y="2.0"/>
      <point x="659" y="2" type="curve" smooth="yes"/>
      <point x="674" y="2"/>
      <point x="691" y="0"/>
      <point x="706" y="0" type="curve" smooth="yes"/>
      <point x="712" y="0"/>
      <point x="723" y="0"/>
      <point x="723" y="19" type="curve" smooth="yes"/>
      <point x="723" y="29"/>
      <point x="714" y="29"/>
      <point x="704" y="29" type="curve" smooth="yes"/>
      <point x="667" y="30"/>
      <point x="654" y="38"/>
      <point x="639" y="74" type="curve" smooth="yes"/>
      <point x="500" y="404" type="line" smooth="yes"/>
      <point x="499" y="407"/>
      <point x="495" y="415"/>
      <point x="495" y="418" type="curve" smooth="yes"/>
      <point x="495" y="419"/>
      <point x="496" y="420"/>
      <point x="513" y="433" type="curve" smooth="yes"/>
      <point x="545.301" y="458.308"/>
      <point x="577.602" y="483.616"/>
      <point x="610" y="509" type="curve" smooth="yes"/>
      <point x="744" y="613"/>
      <point x="788" y="648"/>
      <point x="857" y="654" type="curve" smooth="yes"/>
      <point x="864" y="655"/>
      <point x="874" y="655"/>
      <point x="874" y="672" type="curve" smooth="yes"/>
      <point x="874" y="678"/>
      <point x="871" y="683"/>
      <point x="863" y="683" type="curve" smooth="yes"/>
      <point x="852" y="683"/>
      <point x="834" y="681"/>
      <point x="806" y="681" type="curve" smooth="yes"/>
      <point x="799.007" y="681.0"/>
      <point x="792.014" y="681.0"/>
      <point x="785" y="681" type="curve" smooth="yes"/>
      <point x="754" y="681"/>
      <point x="727" y="683"/>
      <point x="697" y="683" type="curve" smooth="yes"/>
      <point x="690" y="683"/>
      <point x="678" y="683"/>
      <point x="678" y="665" type="curve" smooth="yes"/>
      <point x="678" y="655"/>
      <point x="685" y="654"/>
      <point x="691" y="654" type="curve" smooth="yes"/>
      <point x="702" y="654"/>
      <point x="715" y="649"/>
      <point x="715" y="635" type="curve" smooth="yes"/>
      <point x="715" y="615"/>
      <point x="685" y="591"/>
      <point x="677" y="585" type="curve" smooth="yes"/>
    </contour>
  </outline>
</glyph>
<glyph name="M" format="2">
  <advance width="947"/>
  <unicode hex="004D"/>
  <outline>
    <contour>
      <point x="166" y="102" type="line" smooth="yes"/>
      <point x="154" y="54"/>
      <point x="131" y="32"/>
      <point x="64" y="29" type="curve" smooth="yes"/>
      <point x="61" y="29"/>
      <point x="49" y="28"/>
      <point x="49" y="11" type="curve" smooth="yes"/>
      <point x="49" y="0"/>
      <point x="58" y="0"/>
      <point x="62" y="0" type="curve" smooth="yes"/>
      <point x="82" y="0"/>
      <point x="133" y="2"/>
      <point x="161" y="2" type="curve" smooth="yes"/>
      <point x="215" y="2"/>
      <point x="232" y="0"/>
      <point x="246" y="0" type="curve" smooth="yes"/>
      <point x="253" y="0"/>
      <point x="264" y="0"/>
      <point x="264" y="19" type="curve" smooth="yes"/>
      <point x="264" y="28"/>
      <point x="254" y="29"/>
      <point x="250" y="29" type="curve" smooth="yes"/>
      <point x="217" y="30"/>
      <point x="185" y="36"/>
      <point x="185" y="72" type="curve" smooth="yes"/>
      <point x="185" y="81"/>
      <point x="185" y="83"/>
      <point x="189" y="97" type="curve" smooth="yes"/>
      <point x="327" y="648" type="line"/>
      <point x="328" y="648" type="line"/>
      <point x="411" y="27" type="line" smooth="yes"/>
      <point x="414" y="3"/>
      <point x="415" y="0"/>
      <point x="424" y="0" type="curve" smooth="yes"/>
      <point x="435" y="0"/>
      <point x="439" y="8"/>
      <point x="445" y="17" type="curve" smooth="yes"/>
      <point x="847" y="653" type="line"/>
      <point x="848" y="653" type="line"/>
      <point x="703" y="74" type="line" smooth="yes"/>
      <point x="694" y="39"/>
      <point x="692" y="29"/>
      <point x="622" y="29" type="curve" smooth="yes"/>
      <point x="603" y="29"/>
      <point x="593" y="29"/>
      <point x="593" y="11" type="curve" smooth="yes"/>
      <point x="593" y="0"/>
      <point x="602" y="0"/>
      <point x="608" y="0" type="curve" smooth="yes"/>
      <point x="625" y="0"/>
      <point x="645" y="2"/>
      <point x="662" y="2" type="curve" smooth="yes"/>
      <point x="701.294" y="2.0"/>
      <point x="740.588" y="2.0"/>
      <point x="780" y="2" type="curve" smooth="yes"/>
      <point x="797" y="2"/>
      <point x="818" y="0"/>
      <point x="835" y="0" type="curve" smooth="yes"/>
      <point x="843" y="0"/>
      <point x="854" y="0"/>
      <point x="854" y="19" type="curve" smooth="yes"/>
      <point x="854" y="29"/>
      <point x="845" y="29"/>
      <point x="830" y="29" type="curve" smooth="yes"/>
      <point x="815.99989" y="29.0"/>
      <point x="805.2129452461" y="29.4213987208"/>
      <point x="796.9017121826676" y="30.191659747091894" type="curve" smooth="yes"/>
      <point x="769.0" y="32.7775096802"/>
      <point x="769.0" y="39.2951"/>
      <point x="769" y="47" type="curve" smooth="yes"/>
      <point x="769" y="48"/>
      <point x="769" y="55"/>
      <point x="771" y="63" type="curve" smooth="yes"/>
      <point x="908" y="610" type="line" smooth="yes"/>
      <point x="917" y="644"/>
      <point x="919" y="654"/>
      <point x="990" y="654" type="curve" smooth="yes"/>
      <point x="1009" y="654"/>
      <point x="1018" y="654"/>
      <point x="1018" y="673" type="curve" smooth="yes"/>
      <point x="1018" y="683"/>
      <point x="1011" y="683"/>
      <point x="992" y="683" type="curve" smooth="yes"/>
      <point x="872" y="683" type="line" smooth="yes"/>
      <point x="847" y="683"/>
      <point x="846" y="682"/>
      <point x="835" y="666" type="curve" smooth="yes"/>
      <point x="470" y="89" type="line"/>
      <point x="395" y="661" type="line" smooth="yes"/>
      <point x="392" y="683"/>
      <point x="391" y="683"/>
      <point x="365" y="683" type="curve" smooth="yes"/>
      <point x="241" y="683" type="line" smooth="yes"/>
      <point x="222" y="683"/>
      <point x="213" y="683"/>
      <point x="213" y="664" type="curve" smooth="yes"/>
      <point x="213" y="654"/>
      <point x="222" y="654"/>
      <point x="237" y="654" type="curve" smooth="yes"/>
      <point x="254.00009" y="654.0"/>
      <point x="266" y="653"/>
      <point x="275.10736971753045" y="652.2441918499795" type="curve" smooth="yes"/>
      <point x="298" y="650"/>
      <point x="298.0" y="642.93441"/>
      <point x="298" y="635" type="curve" smooth="yes"/>
      <point x="298" y="633"/>
      <point x="298" y="627"/>
      <point x="294" y="612" type="curve" smooth="yes"/>
    </contour>
  </outline>
</glyph>
<glyph name="O" format="2">
  <advance width="748"/>
  <unicode hex="004F"/>
  <outline>
    <contour>
      <point x="726" y="438" type="curve" smooth="yes"/>
      <point x="726" y="603"/>
      <point x="618" y="704"/>
      <point x="478" y="704" type="curve" smooth="yes"/>
      <point x="264" y="704"/>
      <point x="48" y="474"/>
      <point x="48" y="243" type="curve" smooth="yes"/>
      <point x="48" y="86"/>
      <point x="152" y="-21"/>
      <point x="297" y="-21" type="curve" smooth="yes"/>
      <point x="507" y="-21"/>
      <point x="726" y="198"/>
    </contour>
    <contour>
      <point x="303" y="2" type="curve" smooth="yes"/>
      <point x="221" y="2"/>
      <point x="134" y="62"/>
      <point x="134" y="218" type="curve" smooth="yes"/>
      <point x="134" y="309"/>
      <point x="167" y="458"/>
      <point x="249" y="558" type="curve" smooth="yes"/>
      <point x="322" y="646"/>
      <point x="406" y="682"/>
      <point x="473" y="682" type="curve" smooth="yes"/>
      <point x="561" y="682"/>
      <point x="646" y="618"/>
      <point x="646" y="474" type="curve" smooth="yes"/>
      <point x="646" y="385"/>
      <point x="608" y="246"/>
      <point x="541" y="151" type="curve" smooth="yes"/>
      <point x="468" y="49"/>
      <point x="377" y="2"/>
    </contour>
  </outline>
</glyph>
<glyph name="P" format="2">
  <advance width="631"/>
  <unicode hex="0050"/>
  <outline>
    <contour>
      <point x="296" y="318" type="line"/>
      <point x="464" y="318" type="line" smooth="yes"/>
      <point x="602" y="318"/>
      <point x="740" y="420"/>
      <point x="740" y="534" type="curve" smooth="yes"/>
      <point x="740" y="612"/>
      <point x="674" y="683"/>
      <point x="548" y="683" type="curve" smooth="yes"/>
      <point x="239" y="683" type="line" smooth="yes"/>
      <point x="220" y="683"/>
      <point x="211" y="683"/>
      <point x="211" y="664" type="curve" smooth="yes"/>
      <point x="211" y="654"/>
      <point x="220" y="654"/>
      <point x="235" y="654" type="curve" smooth="yes"/>
      <point x="296" y="654"/>
      <point x="296" y="646"/>
      <point x="296" y="635" type="curve" smooth="yes"/>
      <point x="296" y="633"/>
      <point x="296" y="627"/>
      <point x="292" y="612" type="curve" smooth="yes"/>
      <point x="157" y="74" type="line" smooth="yes"/>
      <point x="148" y="39"/>
      <point x="146" y="29"/>
      <point x="76" y="29" type="curve" smooth="yes"/>
      <point x="57" y="29"/>
      <point x="47" y="29"/>
      <point x="47" y="11" type="curve" smooth="yes"/>
      <point x="47" y="0"/>
      <point x="56" y="0"/>
      <point x="62" y="0" type="curve" smooth="yes"/>
      <point x="81" y="0"/>
      <point x="101" y="2"/>
      <point x="120" y="2" type="curve" smooth="yes"/>
      <point x="237" y="2" type="line" smooth="yes"/>
      <point x="256" y="2"/>
      <point x="277" y="0"/>
      <point x="296" y="0" type="curve" smooth="yes"/>
      <point x="304" y="0"/>
      <point x="315" y="0"/>
      <point x="315" y="19" type="curve" smooth="yes"/>
      <point x="315" y="29"/>
      <point x="306" y="29"/>
      <point x="291" y="29" type="curve" smooth="yes"/>
      <point x="231" y="29"/>
      <point x="230" y="36"/>
      <point x="230" y="46" type="curve" smooth="yes"/>
      <point x="230" y="51"/>
      <point x="231" y="58"/>
      <point x="232" y="63" type="curve" smooth="yes"/>
    </contour>
    <contour>
      <point x="368" y="615" type="line" smooth="yes"/>
      <point x="377" y="652"/>
      <point x="381" y="654"/>
      <point x="420" y="654" type="curve" smooth="yes"/>
      <point x="519" y="654" type="line" smooth="yes"/>
      <point x="594" y="654"/>
      <point x="656" y="630"/>
      <point x="656" y="555" type="curve" smooth="yes"/>
      <point x="656" y="529"/>
      <point x="643" y="444"/>
      <point x="597" y="398" type="curve" smooth="yes"/>
      <point x="580" y="380"/>
      <point x="532" y="342"/>
      <point x="441" y="342" type="curve" smooth="yes"/>
      <point x="300" y="342" type="line"/>
    </contour>
  </outline>
</glyph>
<glyph name="Q" format="2">
  <advance width="775"/>
  <unicode hex="0051"/>
  <outline>
    <contour>
      <point x="48" y="243" type="curve" smooth="yes"/>
      <point x="48" y="86"/>
      <point x="152" y="-21"/>
      <point x="297" y="-21" type="curve" smooth="yes"/>
      <point x="331" y="-21"/>
      <point x="364" y="-16"/>
      <point x="396" y="-6" type="curve"/>
      <point x="390" y="-66"/>
      <point x="390" y="-71"/>
      <point x="390" y="-90" type="curve" smooth="yes"/>
      <point x="390" y="-119"/>
      <point x="390" y="-194"/>
      <point x="470" y="-194" type="curve" smooth="yes"/>
      <point x="589" y="-194"/>
      <point x="633" y="-7"/>
      <point x="633" y="-1" type="curve" smooth="yes"/>
      <point x="633" y="5"/>
      <point x="629" y="9"/>
      <point x="624" y="9" type="curve" smooth="yes"/>
      <point x="618" y="9"/>
      <point x="616" y="4"/>
      <point x="613" y="-7" type="curve"/>
      <point x="591" y="-70"/>
      <point x="539" y="-106"/>
      <point x="495" y="-106" type="curve" smooth="yes"/>
      <point x="444" y="-106"/>
      <point x="431" y="-71"/>
      <point x="426" y="6" type="curve"/>
      <point x="598" y="75"/>
      <point x="726" y="257"/>
      <point x="726" y="438" type="curve" smooth="yes"/>
      <point x="726" y="603"/>
      <point x="618" y="704"/>
      <point x="478" y="704" type="curve" smooth="yes"/>
      <point x="264" y="704"/>
      <point x="48" y="474"/>
    </contour>
    <contour>
      <point x="129" y="213" type="curve" smooth="yes"/>
      <point x="129" y="283"/>
      <point x="155" y="416"/>
      <point x="221" y="517" type="curve" smooth="yes"/>
      <point x="295" y="631"/>
      <point x="394" y="682"/>
      <point x="472" y="682" type="curve" smooth="yes"/>
      <point x="576" y="682"/>
      <point x="646" y="598"/>
      <point x="646" y="468" type="curve" smooth="yes"/>
      <point x="646" y="394"/>
      <point x="611" y="146"/>
      <point x="423" y="36" type="curve"/>
      <point x="418" y="87"/>
      <point x="404" y="147"/>
      <point x="338" y="147" type="curve" smooth="yes"/>
      <point x="284" y="147"/>
      <point x="238" y="93"/>
      <point x="238" y="44" type="curve" smooth="yes"/>
      <point x="238" y="33"/>
      <point x="242" y="18"/>
      <point x="246" y="11" type="curve"/>
      <point x="167" y="38"/>
      <point x="129" y="121"/>
    </contour>
    <contour>
      <point x="258" y="45" type="curve" smooth="yes"/>
      <point x="258" y="81"/>
      <point x="293" y="127"/>
      <point x="338" y="127" type="curve" smooth="yes"/>
      <point x="396" y="127"/>
      <point x="402" y="79"/>
      <point x="398" y="23" type="curve"/>
      <point x="362" y="7"/>
      <point x="331" y="1"/>
      <point x="303" y="1" type="curve" smooth="yes"/>
      <point x="293" y="1"/>
      <point x="258" y="1"/>
    </contour>
  </outline>
</glyph>
<glyph name="R" format="2">
  <advance width="745"/>
  <unicode hex="0052"/>
  <outline>
    <contour>
      <point x="368" y="615" type="line" smooth="yes"/>
      <point x="377" y="652"/>
      <point x="381" y="654"/>
      <point x="420" y="654" type="curve" smooth="yes"/>
      <point x="492" y="654" type="line" smooth="yes"/>
      <point x="578" y="654"/>
      <point x="642" y="628"/>
      <point x="642" y="550" type="curve" smooth="yes"/>
      <point x="642" y="499"/>
      <point x="616" y="352"/>
      <point x="415" y="352" type="curve" smooth="yes"/>
      <point x="302" y="352" type="line"/>
    </contour>
    <contour>
      <point x="507" y="340" type="curve"/>
      <point x="631" y="367"/>
      <point x="728" y="447"/>
      <point x="728" y="533" type="curve" smooth="yes"/>
      <point x="728" y="611"/>
      <point x="649" y="683"/>
      <point x="510" y="683" type="curve" smooth="yes"/>
      <point x="239" y="683" type="line" smooth="yes"/>
      <point x="219" y="683"/>
      <point x="210" y="683"/>
      <point x="210" y="664" type="curve" smooth="yes"/>
      <point x="210" y="654"/>
      <point x="217" y="654"/>
      <point x="236" y="654" type="curve" smooth="yes"/>
      <point x="296" y="654"/>
      <point x="296" y="646"/>
      <point x="296" y="635" type="curve" smooth="yes"/>
      <point x="296" y="633"/>
      <point x="296" y="627"/>
      <point x="292" y="612" type="curve" smooth="yes"/>
      <point x="157" y="74" type="line" smooth="yes"/>
      <point x="148" y="39"/>
      <point x="146" y="29"/>
      <point x="77" y="29" type="curve" smooth="yes"/>
      <point x="54" y="29"/>
      <point x="47" y="29"/>
      <point x="47" y="10" type="curve" smooth="yes"/>
      <point x="47" y="0"/>
      <point x="58" y="0"/>
      <point x="61" y="0" type="curve" smooth="yes"/>
      <point x="79" y="0"/>
      <point x="100" y="2"/>
      <point x="119" y="2" type="curve" smooth="yes"/>
      <point x="237" y="2" type="line" smooth="yes"/>
      <point x="255" y="2"/>
      <point x="276" y="0"/>
      <point x="294" y="0" type="curve" smooth="yes"/>
      <point x="302" y="0"/>
      <point x="313" y="0"/>
      <point x="313" y="19" type="curve" smooth="yes"/>
      <point x="313" y="29"/>
      <point x="304" y="29"/>
      <point x="289" y="29" type="curve" smooth="yes"/>
      <point x="228" y="29"/>
      <point x="228" y="37"/>
      <point x="228" y="47" type="curve" smooth="yes"/>
      <point x="228" y="48"/>
      <point x="228" y="55"/>
      <point x="230" y="63" type="curve" smooth="yes"/>
      <point x="297" y="332" type="line"/>
      <point x="417" y="332" type="line" smooth="yes"/>
      <point x="512" y="332"/>
      <point x="530" y="272"/>
      <point x="530" y="239" type="curve" smooth="yes"/>
      <point x="530" y="224"/>
      <point x="520" y="185"/>
      <point x="513" y="159" type="curve" smooth="yes"/>
      <point x="502" y="113"/>
      <point x="499" y="102"/>
      <point x="499" y="83" type="curve" smooth="yes"/>
      <point x="499" y="12"/>
      <point x="557" y="-21"/>
      <point x="624" y="-21" type="curve" smooth="yes"/>
      <point x="705" y="-21"/>
      <point x="740" y="78"/>
      <point x="740" y="92" type="curve" smooth="yes"/>
      <point x="740" y="99"/>
      <point x="735" y="102"/>
      <point x="729" y="102" type="curve" smooth="yes"/>
      <point x="721" y="102"/>
      <point x="719" y="96"/>
      <point x="717" y="88" type="curve"/>
      <point x="693" y="17"/>
      <point x="652" y="-1"/>
      <point x="627" y="-1" type="curve" smooth="yes"/>
      <point x="602" y="-1"/>
      <point x="586" y="10"/>
      <point x="586" y="55" type="curve" smooth="yes"/>
      <point x="586" y="79"/>
      <point x="598" y="170"/>
      <point x="599" y="175" type="curve"/>
      <point x="604" y="212"/>
      <point x="604" y="216"/>
      <point x="604" y="224" type="curve" smooth="yes"/>
      <point x="604" y="297"/>
      <point x="545" y="328"/>
    </contour>
  </outline>
</glyph>
<glyph name="T" format="2">
  <advance width="573"/>
  <unicode hex="0054"/>
  <outline>
    <contour>
      <point x="206" y="78" type="line" smooth="yes"/>
      <point x="198.4576" y="48.58463999999999"/>
      <point x="195.46622382080002" y="35.666741350399995"/>
      <point x="148.96997256999728" y="31.09396406052454" type="curve" smooth="yes"/>
      <point x="133.8197303296" y="29.603979776"/>
      <point x="114.05055999999999" y="29.0"/>
      <point x="88" y="29" type="curve" smooth="yes"/>
      <point x="63" y="29"/>
      <point x="56" y="29"/>
      <point x="56" y="10" type="curve" smooth="yes"/>
      <point x="56" y="0"/>
      <point x="67" y="0"/>
      <point x="72" y="0" type="curve" smooth="yes"/>
      <point x="97" y="0"/>
      <point x="123" y="2"/>
      <point x="148" y="2" type="curve" smooth="yes"/>
      <point x="304" y="2" type="line" smooth="yes"/>
      <point x="329" y="2"/>
      <point x="356" y="0"/>
      <point x="381" y="0" type="curve" smooth="yes"/>
      <point x="392" y="0"/>
      <point x="402" y="0"/>
      <point x="402" y="19" type="curve" smooth="yes"/>
      <point x="402" y="29"/>
      <point x="395" y="29"/>
      <point x="369" y="29" type="curve" smooth="yes"/>
      <point x="347.0004" y="29.0"/>
      <point x="330.378382224" y="29.5377582224"/>
      <point x="317.81945047316543" y="30.569458127238846" type="curve" smooth="yes"/>
      <point x="276" y="34"/>
      <point x="274" y="42"/>
      <point x="283" y="77" type="curve" smooth="yes"/>
      <point x="417" y="610" type="line" smooth="yes"/>
      <point x="423" y="634"/>
      <point x="425" y="643"/>
      <point x="440" y="647" type="curve" smooth="yes"/>
      <point x="448" y="649"/>
      <point x="481" y="649"/>
      <point x="502" y="649" type="curve" smooth="yes"/>
      <point x="602" y="649"/>
      <point x="649" y="645"/>
      <point x="649" y="567" type="curve" smooth="yes"/>
      <point x="649" y="552"/>
      <point x="645" y="514"/>
      <point x="638" y="470" type="curve" smooth="yes"/>
      <point x="637" y="461"/>
      <point x="641" y="455"/>
      <point x="648" y="455" type="curve" smooth="yes"/>
      <point x="658" y="455"/>
      <point x="658" y="460"/>
      <point x="661" y="476" type="curve" smooth="yes"/>
      <point x="691" y="658" type="line" smooth="yes"/>
      <point x="694" y="677"/>
      <point x="691.45455" y="678.0"/>
      <point x="666" y="678" type="curve" smooth="yes"/>
      <point x="119" y="678" type="line" smooth="yes"/>
      <point x="96" y="678"/>
      <point x="95" y="677"/>
      <point x="89" y="659" type="curve" smooth="yes"/>
      <point x="28" y="479" type="line" smooth="yes"/>
      <point x="27" y="476"/>
      <point x="24" y="466"/>
      <point x="24" y="465" type="curve" smooth="yes"/>
      <point x="24" y="460"/>
      <point x="28" y="455"/>
      <point x="34" y="455" type="curve" smooth="yes"/>
      <point x="42" y="455"/>
      <point x="44" y="459"/>
      <point x="48" y="472" type="curve" smooth="yes"/>
      <point x="90" y="593"/>
      <point x="111" y="649"/>
      <point x="244" y="649" type="curve" smooth="yes"/>
      <point x="311" y="649" type="line" smooth="yes"/>
      <point x="335" y="649"/>
      <point x="345" y="649"/>
      <point x="345" y="638" type="curve" smooth="yes"/>
      <point x="345" y="635"/>
      <point x="344" y="630"/>
      <point x="340" y="615" type="curve" smooth="yes"/>
    </contour>
  </outline>
</glyph>
<glyph name="U" format="2">
  <advance width="665"/>
  <unicode hex="0055"/>
  <outline>
    <contour>
      <point x="256" y="-21" type="curve" smooth="yes"/>
      <point x="347" y="-21"/>
      <point x="485" y="54"/>
      <point x="532" y="224" type="curve" smooth="yes"/>
      <point x="553" y="300"/>
      <point x="573" y="388"/>
      <point x="618" y="565" type="curve" smooth="yes"/>
      <point x="631" y="617"/>
      <point x="639" y="654"/>
      <point x="727" y="654" type="curve" smooth="yes"/>
      <point x="735" y="654"/>
      <point x="739" y="663"/>
      <point x="739" y="672" type="curve" smooth="yes"/>
      <point x="739" y="683"/>
      <point x="730" y="683"/>
      <point x="726" y="683" type="curve" smooth="yes"/>
      <point x="712" y="683"/>
      <point x="694" y="681"/>
      <point x="680" y="681" type="curve" smooth="yes"/>
      <point x="633" y="681" type="line" smooth="yes"/>
      <point x="571" y="681"/>
      <point x="539" y="683"/>
      <point x="538" y="683" type="curve" smooth="yes"/>
      <point x="532" y="683"/>
      <point x="520" y="683"/>
      <point x="520" y="664" type="curve" smooth="yes"/>
      <point x="520" y="654"/>
      <point x="528" y="654"/>
      <point x="535" y="654" type="curve" smooth="yes"/>
      <point x="595" y="652"/>
      <point x="599" y="629"/>
      <point x="599" y="611" type="curve" smooth="yes"/>
      <point x="599" y="605"/>
      <point x="598" y="599"/>
      <point x="595" y="585" type="curve" smooth="yes"/>
      <point x="506" y="230" type="line" smooth="yes"/>
      <point x="471" y="90"/>
      <point x="355" y="8"/>
      <point x="261" y="8" type="curve" smooth="yes"/>
      <point x="189" y="8"/>
      <point x="140" y="56"/>
      <point x="140" y="139" type="curve" smooth="yes"/>
      <point x="140" y="143"/>
      <point x="140" y="173"/>
      <point x="151" y="217" type="curve" smooth="yes"/>
      <point x="249" y="610" type="line" smooth="yes"/>
      <point x="258" y="644"/>
      <point x="260" y="654"/>
      <point x="331" y="654" type="curve" smooth="yes"/>
      <point x="349" y="654"/>
      <point x="359" y="654"/>
      <point x="359" y="672" type="curve" smooth="yes"/>
      <point x="359" y="683"/>
      <point x="350" y="683"/>
      <point x="344" y="683" type="curve" smooth="yes"/>
      <point x="326" y="683"/>
      <point x="305" y="681"/>
      <point x="286" y="681" type="curve" smooth="yes"/>
      <point x="168" y="681" type="line" smooth="yes"/>
      <point x="149" y="681"/>
      <point x="128" y="683"/>
      <point x="109" y="683" type="curve" smooth="yes"/>
      <point x="102" y="683"/>
      <point x="90" y="683"/>
      <point x="90" y="664" type="curve" smooth="yes"/>
      <point x="90" y="654"/>
      <point x="97" y="654"/>
      <point x="116" y="654" type="curve" smooth="yes"/>
      <point x="132.0002" y="654.0"/>
      <point x="143.73362666600002" y="653.4310968888"/>
      <point x="152.33810044297778" y="652.3881090368149" type="curve" smooth="yes"/>
      <point x="176.0" y="649.5199413333"/>
      <point x="176.0" y="643.06663"/>
      <point x="176" y="635" type="curve" smooth="yes"/>
      <point x="176" y="629"/>
      <point x="169" y="600"/>
      <point x="164" y="583" type="curve" smooth="yes"/>
      <point x="77" y="233" type="line" smooth="yes"/>
      <point x="74" y="222"/>
      <point x="68" y="195"/>
      <point x="68" y="168" type="curve" smooth="yes"/>
      <point x="68" y="58"/>
      <point x="147" y="-21"/>
    </contour>
  </outline>
</glyph>
<glyph name="V" format="2">
  <advance width="570"/>
  <unicode hex="0056"/>
  <outline>
    <contour>
      <point x="231" y="-21" type="curve" smooth="yes"/>
      <point x="243" y="-21"/>
      <point x="248" y="-18"/>
      <point x="258" y="-2" type="curve" smooth="yes"/>
      <point x="619" y="572" type="line" smooth="yes"/>
      <point x="653" y="626"/>
      <point x="684" y="650"/>
      <point x="735" y="654" type="curve" smooth="yes"/>
      <point x="745" y="655"/>
      <point x="753" y="655"/>
      <point x="753" y="673" type="curve" smooth="yes"/>
      <point x="753" y="677"/>
      <point x="751" y="683"/>
      <point x="742" y="683" type="curve" smooth="yes"/>
      <point x="724" y="683"/>
      <point x="681" y="681"/>
      <point x="663" y="681" type="curve" smooth="yes"/>
      <point x="634" y="681"/>
      <point x="604" y="683"/>
      <point x="576" y="683" type="curve" smooth="yes"/>
      <point x="568" y="683"/>
      <point x="558" y="683"/>
      <point x="558" y="664" type="curve" smooth="yes"/>
      <point x="558" y="655"/>
      <point x="567" y="654"/>
      <point x="571" y="654" type="curve" smooth="yes"/>
      <point x="608" y="654"/>
      <point x="612" y="633"/>
      <point x="612" y="621" type="curve" smooth="yes"/>
      <point x="612" y="606"/>
      <point x="600" y="587"/>
      <point x="597" y="582" type="curve" smooth="yes"/>
      <point x="283" y="84" type="line"/>
      <point x="216" y="600" type="line" smooth="yes"/>
      <point x="215" y="607"/>
      <point x="213" y="618"/>
      <point x="213" y="624" type="curve" smooth="yes"/>
      <point x="213" y="646"/>
      <point x="248" y="654"/>
      <point x="276" y="654" type="curve" smooth="yes"/>
      <point x="291" y="654"/>
      <point x="300" y="654"/>
      <point x="300" y="673" type="curve" smooth="yes"/>
      <point x="300" y="683"/>
      <point x="289" y="683"/>
      <point x="286" y="683" type="curve" smooth="yes"/>
      <point x="269" y="683"/>
      <point x="249" y="681"/>
      <point x="232" y="681" type="curve" smooth="yes"/>
      <point x="213.352" y="681.0"/>
      <point x="194.704" y="681.0"/>
      <point x="176" y="681" type="curve" smooth="yes"/>
      <point x="103" y="681"/>
      <point x="73" y="683"/>
      <point x="72" y="683" type="curve" smooth="yes"/>
      <point x="66" y="683"/>
      <point x="54" y="683"/>
      <point x="54" y="665" type="curve" smooth="yes"/>
      <point x="54" y="654"/>
      <point x="61" y="654"/>
      <point x="77" y="654" type="curve" smooth="yes"/>
      <point x="128" y="654"/>
      <point x="131" y="645"/>
      <point x="134" y="620" type="curve" smooth="yes"/>
      <point x="214" y="3" type="line" smooth="yes"/>
      <point x="217" y="-18"/>
      <point x="217" y="-21"/>
    </contour>
  </outline>
</glyph>
<glyph name="W" format="2">
  <advance width="924"/>
  <unicode hex="0057"/>
  <outline>
    <contour>
      <point x="502" y="519" type="line"/>
      <point x="539" y="2" type="line" smooth="yes"/>
      <point x="540" y="-15"/>
      <point x="541" y="-21"/>
      <point x="553" y="-21" type="curve" smooth="yes"/>
      <point x="563" y="-21"/>
      <point x="566" y="-16"/>
      <point x="574" y="-2" type="curve" smooth="yes"/>
      <point x="903" y="572" type="line" smooth="yes"/>
      <point x="926" y="611"/>
      <point x="948" y="648"/>
      <point x="1008" y="654" type="curve" smooth="yes"/>
      <point x="1017" y="655"/>
      <point x="1026" y="656"/>
      <point x="1026" y="672" type="curve" smooth="yes"/>
      <point x="1026" y="683"/>
      <point x="1017" y="683"/>
      <point x="1014" y="683" type="curve" smooth="yes"/>
      <point x="1012" y="683"/>
      <point x="1005" y="681"/>
      <point x="939" y="681" type="curve" smooth="yes"/>
      <point x="909" y="681"/>
      <point x="878" y="683"/>
      <point x="849" y="683" type="curve" smooth="yes"/>
      <point x="843" y="683"/>
      <point x="831" y="683"/>
      <point x="831" y="664" type="curve" smooth="yes"/>
      <point x="831" y="655"/>
      <point x="839" y="654"/>
      <point x="845" y="654" type="curve" smooth="yes"/>
      <point x="865" y="653"/>
      <point x="897" y="647"/>
      <point x="897" y="616" type="curve" smooth="yes"/>
      <point x="897" y="603"/>
      <point x="893" y="596"/>
      <point x="883" y="579" type="curve" smooth="yes"/>
      <point x="610" y="101" type="line"/>
      <point x="574" y="622" type="line"/>
      <point x="574" y="634"/>
      <point x="585" y="653"/>
      <point x="641" y="654" type="curve" smooth="yes"/>
      <point x="654" y="654"/>
      <point x="664" y="654"/>
      <point x="664" y="673" type="curve" smooth="yes"/>
      <point x="664" y="683"/>
      <point x="654" y="683"/>
      <point x="649" y="683" type="curve" smooth="yes"/>
      <point x="614" y="683"/>
      <point x="577" y="681"/>
      <point x="541" y="681" type="curve" smooth="yes"/>
      <point x="523.684" y="681.0"/>
      <point x="506.368" y="681.0"/>
      <point x="489" y="681" type="curve" smooth="yes"/>
      <point x="474" y="681"/>
      <point x="456" y="683"/>
      <point x="441" y="683" type="curve" smooth="yes"/>
      <point x="435" y="683"/>
      <point x="423" y="683"/>
      <point x="423" y="664" type="curve" smooth="yes"/>
      <point x="423" y="654"/>
      <point x="430" y="654"/>
      <point x="447" y="654" type="curve" smooth="yes"/>
      <point x="493" y="654"/>
      <point x="493" y="653"/>
      <point x="497" y="592" type="curve" smooth="yes"/>
      <point x="497.999" y="580.012"/>
      <point x="498.998" y="568.024"/>
      <point x="500" y="556" type="curve"/>
      <point x="500.0" y="556.0"/>
      <point x="500.0" y="556.0"/>
      <point x="500" y="556" type="curve"/>
      <point x="241" y="101" type="line"/>
      <point x="204" y="617" type="line"/>
      <point x="204" y="628"/>
      <point x="204" y="653"/>
      <point x="272" y="654" type="curve" smooth="yes"/>
      <point x="283" y="654"/>
      <point x="294" y="654"/>
      <point x="294" y="672" type="curve" smooth="yes"/>
      <point x="294" y="683"/>
      <point x="285" y="683"/>
      <point x="279" y="683" type="curve" smooth="yes"/>
      <point x="244" y="683"/>
      <point x="207" y="681"/>
      <point x="171" y="681" type="curve" smooth="yes"/>
      <point x="153.684" y="681.0"/>
      <point x="136.368" y="681.0"/>
      <point x="119" y="681" type="curve" smooth="yes"/>
      <point x="104" y="681"/>
      <point x="86" y="683"/>
      <point x="71" y="683" type="curve" smooth="yes"/>
      <point x="65" y="683"/>
      <point x="53" y="683"/>
      <point x="53" y="664" type="curve" smooth="yes"/>
      <point x="53" y="654"/>
      <point x="61" y="654"/>
      <point x="75" y="654" type="curve" smooth="yes"/>
      <point x="122" y="654"/>
      <point x="123" y="648"/>
      <point x="125" y="616" type="curve" smooth="yes"/>
      <point x="169" y="2" type="line" smooth="yes"/>
      <point x="170" y="-15"/>
      <point x="171" y="-21"/>
      <point x="183" y="-21" type="curve" smooth="yes"/>
      <point x="193" y="-21"/>
      <point x="195" y="-17"/>
      <point x="204" y="-2" type="curve" smooth="yes"/>
    </contour>
  </outline>
</glyph>
<glyph name="X" format="2">
  <advance width="812"/>
  <unicode hex="0058"/>
  <outline>
    <contour>
      <point x="485" y="382" type="curve"/>
      <point x="541.277" y="442.273"/>
      <point x="597.554" y="502.546"/>
      <point x="654" y="563" type="curve" smooth="yes"/>
      <point x="696" y="608"/>
      <point x="737" y="649"/>
      <point x="818" y="654" type="curve" smooth="yes"/>
      <point x="828" y="655"/>
      <point x="838" y="655"/>
      <point x="838" y="672" type="curve" smooth="yes"/>
      <point x="838" y="683"/>
      <point x="829" y="683"/>
      <point x="825" y="683" type="curve" smooth="yes"/>
      <point x="817" y="683"/>
      <point x="796" y="681"/>
      <point x="736" y="681" type="curve" smooth="yes"/>
      <point x="694" y="681"/>
      <point x="649" y="683"/>
      <point x="638" y="683" type="curve" smooth="yes"/>
      <point x="631" y="683"/>
      <point x="619" y="683"/>
      <point x="619" y="665" type="curve" smooth="yes"/>
      <point x="619" y="655"/>
      <point x="626" y="654"/>
      <point x="632" y="654" type="curve" smooth="yes"/>
      <point x="648" y="653"/>
      <point x="665" y="643"/>
      <point x="665" y="624" type="curve" smooth="yes"/>
      <point x="665" y="617"/>
      <point x="661" y="606"/>
      <point x="650" y="594" type="curve" smooth="yes"/>
      <point x="475" y="406" type="line"/>
      <point x="381" y="625" type="line" smooth="yes"/>
      <point x="380" y="628"/>
      <point x="380" y="629"/>
      <point x="380" y="631" type="curve" smooth="yes"/>
      <point x="380" y="651"/>
      <point x="425" y="654"/>
      <point x="436" y="654" type="curve" smooth="yes"/>
      <point x="442" y="654"/>
      <point x="453" y="655"/>
      <point x="453" y="672" type="curve" smooth="yes"/>
      <point x="453" y="683"/>
      <point x="444" y="683"/>
      <point x="438" y="683" type="curve" smooth="yes"/>
      <point x="421" y="683"/>
      <point x="401" y="681"/>
      <point x="367" y="681" type="curve" smooth="yes"/>
      <point x="353.347" y="681"/>
      <point x="339.694" y="681"/>
      <point x="326" y="681" type="curve" smooth="yes"/>
      <point x="265" y="681"/>
      <point x="221" y="683"/>
      <point x="220" y="683" type="curve" smooth="yes"/>
      <point x="212" y="683"/>
      <point x="202" y="683"/>
      <point x="202" y="664" type="curve" smooth="yes"/>
      <point x="202" y="654"/>
      <point x="211" y="654"/>
      <point x="224" y="654" type="curve" smooth="yes"/>
      <point x="282" y="654"/>
      <point x="286" y="644"/>
      <point x="296" y="620" type="curve" smooth="yes"/>
      <point x="335.627" y="527.426"/>
      <point x="375.254" y="434.852"/>
      <point x="415" y="342" type="curve"/>
      <point x="342.739" y="264.744"/>
      <point x="270.47799999999995" y="187.488"/>
      <point x="198" y="110" type="curve" smooth="yes"/>
      <point x="162" y="71"/>
      <point x="119" y="33"/>
      <point x="45" y="29" type="curve" smooth="yes"/>
      <point x="33" y="28"/>
      <point x="25" y="28"/>
      <point x="25" y="10" type="curve" smooth="yes"/>
      <point x="25" y="7"/>
      <point x="26" y="0"/>
      <point x="37" y="0" type="curve" smooth="yes"/>
      <point x="51" y="0"/>
      <point x="66" y="2"/>
      <point x="127" y="2" type="curve" smooth="yes"/>
      <point x="159" y="2"/>
      <point x="194" y="0"/>
      <point x="225" y="0" type="curve" smooth="yes"/>
      <point x="232" y="0"/>
      <point x="244" y="0"/>
      <point x="244" y="18" type="curve" smooth="yes"/>
      <point x="244" y="28"/>
      <point x="237" y="29"/>
      <point x="231" y="29" type="curve" smooth="yes"/>
      <point x="211" y="29"/>
      <point x="198" y="42"/>
      <point x="198" y="58" type="curve" smooth="yes"/>
      <point x="198" y="75"/>
      <point x="211" y="86"/>
      <point x="239" y="117" type="curve" smooth="yes"/>
      <point x="300.938" y="183.60000000000002"/>
      <point x="362.876" y="250.20000000000002"/>
      <point x="425" y="317" type="curve"/>
      <point x="530" y="71" type="line" smooth="yes"/>
      <point x="532" y="66"/>
      <point x="535" y="59"/>
      <point x="535" y="58" type="curve" smooth="yes"/>
      <point x="535" y="49"/>
      <point x="513" y="31"/>
      <point x="481" y="29" type="curve" smooth="yes"/>
      <point x="475" y="29"/>
      <point x="464" y="28"/>
      <point x="464" y="10" type="curve" smooth="yes"/>
      <point x="464" y="0"/>
      <point x="474" y="0"/>
      <point x="479" y="0" type="curve" smooth="yes"/>
      <point x="496" y="0"/>
      <point x="516" y="2"/>
      <point x="533" y="2" type="curve" smooth="yes"/>
      <point x="569.63" y="2"/>
      <point x="606.26" y="2"/>
      <point x="643" y="2" type="curve" smooth="yes"/>
      <point x="661" y="2"/>
      <point x="680" y="0"/>
      <point x="697" y="0" type="curve" smooth="yes"/>
      <point x="704" y="0"/>
      <point x="715" y="0"/>
      <point x="715" y="19" type="curve" smooth="yes"/>
      <point x="715" y="29"/>
      <point x="705" y="29"/>
      <point x="696" y="29" type="curve" smooth="yes"/>
      <point x="636" y="30"/>
      <point x="634" y="35"/>
      <point x="617" y="72" type="curve" smooth="yes"/>
      <point x="573.044" y="175.23000000000002"/>
      <point x="529.088" y="278.46000000000004"/>
    </contour>
  </outline>
</glyph>
<glyph name="Y" format="2">
  <advance width="568"/>
  <unicode hex="0059"/>
  <outline>
    <contour>
      <point x="328" y="309" type="line"/>
      <point x="215" y="613" type="line" smooth="yes"/>
      <point x="212" y="621"/>
      <point x="209" y="629"/>
      <point x="209" y="631" type="curve" smooth="yes"/>
      <point x="209" y="652"/>
      <point x="250" y="654"/>
      <point x="262" y="654" type="curve" smooth="yes"/>
      <point x="274" y="654"/>
      <point x="285" y="654"/>
      <point x="285" y="672" type="curve" smooth="yes"/>
      <point x="285" y="683"/>
      <point x="276" y="683"/>
      <point x="270" y="683" type="curve" smooth="yes"/>
      <point x="253" y="683"/>
      <point x="233" y="681"/>
      <point x="216" y="681" type="curve" smooth="yes"/>
      <point x="179.037" y="681.0"/>
      <point x="142.074" y="681.0"/>
      <point x="105" y="681" type="curve" smooth="yes"/>
      <point x="87" y="681"/>
      <point x="68" y="683"/>
      <point x="51" y="683" type="curve" smooth="yes"/>
      <point x="44" y="683"/>
      <point x="33" y="683"/>
      <point x="33" y="664" type="curve" smooth="yes"/>
      <point x="33" y="654"/>
      <point x="42" y="654"/>
      <point x="57" y="654" type="curve" smooth="yes"/>
      <point x="106" y="654"/>
      <point x="115" y="645"/>
      <point x="124" y="622" type="curve" smooth="yes"/>
      <point x="248" y="289" type="line" smooth="yes"/>
      <point x="249" y="286"/>
      <point x="252" y="275"/>
      <point x="252" y="272" type="curve" smooth="yes"/>
      <point x="252" y="269"/>
      <point x="203" y="72"/>
      <point x="200" y="62" type="curve" smooth="yes"/>
      <point x="192" y="35"/>
      <point x="182" y="30"/>
      <point x="118" y="29" type="curve" smooth="yes"/>
      <point x="101" y="29"/>
      <point x="93" y="29"/>
      <point x="93" y="10" type="curve" smooth="yes"/>
      <point x="93" y="0"/>
      <point x="104" y="0"/>
      <point x="107" y="0" type="curve" smooth="yes"/>
      <point x="125" y="0"/>
      <point x="146" y="2"/>
      <point x="165" y="2" type="curve" smooth="yes"/>
      <point x="204.294" y="2.0"/>
      <point x="243.58800000000002" y="2.0"/>
      <point x="283" y="2" type="curve" smooth="yes"/>
      <point x="301" y="2"/>
      <point x="322" y="0"/>
      <point x="340" y="0" type="curve" smooth="yes"/>
      <point x="347" y="0"/>
      <point x="359" y="0"/>
      <point x="359" y="18" type="curve" smooth="yes"/>
      <point x="359" y="29"/>
      <point x="352" y="29"/>
      <point x="335" y="29" type="curve" smooth="yes"/>
      <point x="320.99978" y="29.0"/>
      <point x="310.1609496782" y="29.3569310927"/>
      <point x="301.76963563136565" y="30.036251016653175" type="curve" smooth="yes"/>
      <point x="273.0" y="32.3653006244"/>
      <point x="273.0" y="38.48391"/>
      <point x="273" y="47" type="curve" smooth="yes"/>
      <point x="273" y="54"/>
      <point x="281" y="86"/>
      <point x="286" y="106" type="curve" smooth="yes"/>
      <point x="297.988" y="153.952"/>
      <point x="309.976" y="201.904"/>
      <point x="322" y="250" type="curve" smooth="yes"/>
      <point x="328" y="271"/>
      <point x="328" y="273"/>
      <point x="337" y="283" type="curve" smooth="yes"/>
      <point x="588" y="572" type="line" smooth="yes"/>
      <point x="594" y="578"/>
      <point x="603" y="587"/>
      <point x="611" y="595" type="curve" smooth="yes"/>
      <point x="655" y="640"/>
      <point x="692" y="651"/>
      <point x="727" y="654" type="curve" smooth="yes"/>
      <point x="738" y="655"/>
      <point x="747" y="656"/>
      <point x="747" y="673" type="curve" smooth="yes"/>
      <point x="747" y="683"/>
      <point x="737" y="683"/>
      <point x="735" y="683" type="curve" smooth="yes"/>
      <point x="729" y="683"/>
      <point x="720" y="681"/>
      <point x="657" y="681" type="curve" smooth="yes"/>
      <point x="628" y="681"/>
      <point x="597" y="683"/>
      <point x="569" y="683" type="curve" smooth="yes"/>
      <point x="562" y="683"/>
      <point x="551" y="683"/>
      <point x="551" y="664" type="curve" smooth="yes"/>
      <point x="551" y="655"/>
      <point x="560" y="654"/>
      <point x="563" y="654" type="curve" smooth="yes"/>
      <point x="593" y="654"/>
      <point x="594" y="637"/>
      <point x="594" y="631" type="curve" smooth="yes"/>
      <point x="594" y="620"/>
      <point x="586" y="605"/>
      <point x="566" y="582" type="curve" smooth="yes"/>
    </contour>
  </outline>
</glyph>
<glyph name="Z" format="2">
  <advance width="670"/>
  <unicode hex="005A"/>
  <outline>
    <contour>
      <point x="700" y="652" type="line" smooth="yes"/>
      <point x="706" y="659"/>
      <point x="711" y="665"/>
      <point x="711" y="675" type="curve" smooth="yes"/>
      <point x="711" y="682"/>
      <point x="710" y="683"/>
      <point x="687" y="683" type="curve" smooth="yes"/>
      <point x="274" y="683" type="line" smooth="yes"/>
      <point x="251" y="683"/>
      <point x="250" y="682"/>
      <point x="244" y="664" type="curve" smooth="yes"/>
      <point x="189" y="484" type="line" smooth="yes"/>
      <point x="186" y="474"/>
      <point x="186" y="472"/>
      <point x="186" y="470" type="curve" smooth="yes"/>
      <point x="186" y="466"/>
      <point x="189" y="460"/>
      <point x="196" y="460" type="curve" smooth="yes"/>
      <point x="204" y="460"/>
      <point x="206" y="464"/>
      <point x="210" y="477" type="curve" smooth="yes"/>
      <point x="247" y="585"/>
      <point x="296" y="654"/>
      <point x="454" y="654" type="curve" smooth="yes"/>
      <point x="618" y="654" type="line"/>
      <point x="70" y="34" type="line" smooth="yes"/>
      <point x="61" y="23"/>
      <point x="57" y="19"/>
      <point x="57" y="8" type="curve" smooth="yes"/>
      <point x="57" y="0"/>
      <point x="62" y="0"/>
      <point x="81" y="0" type="curve" smooth="yes"/>
      <point x="508" y="0" type="line" smooth="yes"/>
      <point x="531" y="0"/>
      <point x="532" y="1"/>
      <point x="538" y="19" type="curve" smooth="yes"/>
      <point x="608" y="240" type="line" smooth="yes"/>
      <point x="609" y="243"/>
      <point x="611" y="250"/>
      <point x="611" y="254" type="curve" smooth="yes"/>
      <point x="611" y="259"/>
      <point x="607" y="264"/>
      <point x="601" y="264" type="curve" smooth="yes"/>
      <point x="593" y="264"/>
      <point x="592" y="263"/>
      <point x="584" y="238" type="curve" smooth="yes"/>
      <point x="542" y="109"/>
      <point x="498" y="31"/>
      <point x="324" y="31" type="curve" smooth="yes"/>
      <point x="151" y="31" type="line"/>
    </contour>
  </outline>
</glyph>
<glyph name="a" format="2">
  <advance width="514"/>
  <unicode hex="0061"/>
  <outline>
    <contour>
      <point x="40" y="147" type="curve" smooth="yes"/>
      <point x="40" y="48"/>
      <point x="98" y="-10"/>
      <point x="166" y="-10" type="curve" smooth="yes"/>
      <point x="221" y="-10"/>
      <point x="268" y="33"/>
      <point x="296" y="66" type="curve"/>
      <point x="306" y="7"/>
      <point x="353" y="-10"/>
      <point x="383" y="-10" type="curve" smooth="yes"/>
      <point x="413" y="-10"/>
      <point x="437" y="8"/>
      <point x="455" y="44" type="curve" smooth="yes"/>
      <point x="471" y="78"/>
      <point x="485" y="139"/>
      <point x="485" y="143" type="curve" smooth="yes"/>
      <point x="485" y="148"/>
      <point x="481" y="152"/>
      <point x="475" y="152" type="curve" smooth="yes"/>
      <point x="466" y="152"/>
      <point x="465" y="147"/>
      <point x="461" y="132" type="curve" smooth="yes"/>
      <point x="446" y="73"/>
      <point x="427" y="10"/>
      <point x="386" y="10" type="curve" smooth="yes"/>
      <point x="357" y="10"/>
      <point x="355" y="36"/>
      <point x="355" y="56" type="curve" smooth="yes"/>
      <point x="355" y="79"/>
      <point x="357" y="90"/>
      <point x="367" y="129" type="curve" smooth="yes"/>
      <point x="382" y="189"/>
      <point x="400" y="260"/>
      <point x="411" y="303" type="curve" smooth="yes"/>
      <point x="429" y="372"/>
      <point x="433" y="393"/>
      <point x="433" y="397" type="curve" smooth="yes"/>
      <point x="433" y="411"/>
      <point x="422" y="422"/>
      <point x="407" y="422" type="curve" smooth="yes"/>
      <point x="375" y="422"/>
      <point x="367" y="387"/>
      <point x="365" y="375" type="curve"/>
      <point x="354" y="401"/>
      <point x="327" y="441"/>
      <point x="275" y="441" type="curve" smooth="yes"/>
      <point x="162" y="441"/>
      <point x="40" y="295"/>
    </contour>
    <contour>
      <point x="105" y="106" type="curve" smooth="yes"/>
      <point x="105" y="161"/>
      <point x="136" y="273"/>
      <point x="155" y="315" type="curve" smooth="yes"/>
      <point x="189" y="385"/>
      <point x="236" y="421"/>
      <point x="275" y="421" type="curve" smooth="yes"/>
      <point x="341" y="421"/>
      <point x="354" y="339"/>
      <point x="354" y="331" type="curve" smooth="yes"/>
      <point x="354" y="330"/>
      <point x="351" y="317"/>
      <point x="350" y="315" type="curve"/>
      <point x="301" y="119" type="line" smooth="yes"/>
      <point x="296" y="102"/>
      <point x="296" y="100"/>
      <point x="282" y="81" type="curve" smooth="yes"/>
      <point x="260" y="53"/>
      <point x="216" y="10"/>
      <point x="169" y="10" type="curve" smooth="yes"/>
      <point x="128" y="10"/>
      <point x="105" y="47"/>
    </contour>
  </outline>
</glyph>
<glyph name="b" format="2">
  <advance width="416"/>
  <unicode hex="0062"/>
  <outline>
    <contour>
      <point x="231" y="669" type="line" smooth="yes"/>
      <point x="232" y="673"/>
      <point x="234" y="679"/>
      <point x="234" y="684" type="curve" smooth="yes"/>
      <point x="234" y="694"/>
      <point x="224" y="694"/>
      <point x="222" y="694" type="curve" smooth="yes"/>
      <point x="221" y="694"/>
      <point x="185" y="691"/>
      <point x="167" y="689" type="curve"/>
      <point x="150" y="688"/>
      <point x="135" y="686"/>
      <point x="117" y="685" type="curve" smooth="yes"/>
      <point x="93" y="683"/>
      <point x="86" y="682"/>
      <point x="86" y="664" type="curve" smooth="yes"/>
      <point x="86" y="654"/>
      <point x="96" y="654"/>
      <point x="106" y="654" type="curve" smooth="yes"/>
      <point x="157" y="654"/>
      <point x="157" y="645"/>
      <point x="157" y="635" type="curve" smooth="yes"/>
      <point x="157" y="628"/>
      <point x="149" y="599"/>
      <point x="145" y="581" type="curve" smooth="yes"/>
      <point x="121" y="485" type="line" smooth="yes"/>
      <point x="111" y="445"/>
      <point x="54" y="218"/>
      <point x="50" y="200" type="curve" smooth="yes"/>
      <point x="45" y="175"/>
      <point x="45" y="158"/>
      <point x="45" y="145" type="curve" smooth="yes"/>
      <point x="45" y="43"/>
      <point x="102" y="-10"/>
      <point x="167" y="-10" type="curve" smooth="yes"/>
      <point x="283" y="-10"/>
      <point x="403" y="139"/>
      <point x="403" y="284" type="curve" smooth="yes"/>
      <point x="403" y="376"/>
      <point x="351" y="441"/>
      <point x="276" y="441" type="curve" smooth="yes"/>
      <point x="224" y="441"/>
      <point x="177" y="398"/>
      <point x="158" y="378" type="curve"/>
    </contour>
    <contour>
      <point x="168" y="10" type="curve" smooth="yes"/>
      <point x="136" y="10"/>
      <point x="101" y="34"/>
      <point x="101" y="112" type="curve" smooth="yes"/>
      <point x="101" y="145"/>
      <point x="104" y="164"/>
      <point x="122" y="234" type="curve" smooth="yes"/>
      <point x="125" y="247"/>
      <point x="141" y="311"/>
      <point x="145" y="324" type="curve"/>
      <point x="147" y="332"/>
      <point x="206" y="421"/>
      <point x="274" y="421" type="curve" smooth="yes"/>
      <point x="318" y="421"/>
      <point x="338" y="377"/>
      <point x="338" y="325" type="curve" smooth="yes"/>
      <point x="338" y="277"/>
      <point x="310" y="164"/>
      <point x="285" y="112" type="curve" smooth="yes"/>
      <point x="260" y="58"/>
      <point x="214" y="10"/>
    </contour>
  </outline>
</glyph>
<glyph name="c" format="2">
  <advance width="421"/>
  <unicode hex="0063"/>
  <outline>
    <contour>
      <point x="40" y="156" type="curve" smooth="yes"/>
      <point x="40" y="69"/>
      <point x="94" y="-10"/>
      <point x="196" y="-10" type="curve" smooth="yes"/>
      <point x="250.5224" y="-10.0"/>
      <point x="297.0087595" y="7.036405859999999"/>
      <point x="333.139491481756" y="28.287056006929" type="curve" smooth="yes"/>
      <point x="387.13281034" y="60.04376467"/>
      <point x="418.0" y="101.21170000000001"/>
      <point x="418" y="109" type="curve" smooth="yes"/>
      <point x="418" y="115"/>
      <point x="412" y="120"/>
      <point x="408" y="120" type="curve" smooth="yes"/>
      <point x="405" y="120"/>
      <point x="404" y="119"/>
      <point x="395" y="110" type="curve"/>
      <point x="331" y="25"/>
      <point x="236" y="10"/>
      <point x="198" y="10" type="curve" smooth="yes"/>
      <point x="129" y="10"/>
      <point x="107" y="70"/>
      <point x="107" y="120" type="curve" smooth="yes"/>
      <point x="107" y="155"/>
      <point x="124" y="252"/>
      <point x="160" y="320" type="curve" smooth="yes"/>
      <point x="186" y="367"/>
      <point x="240" y="421"/>
      <point x="303" y="421" type="curve" smooth="yes"/>
      <point x="316" y="421"/>
      <point x="371" y="419"/>
      <point x="391" y="376" type="curve"/>
      <point x="372" y="376"/>
      <point x="363" y="376"/>
      <point x="349" y="364" type="curve" smooth="yes"/>
      <point x="343" y="359"/>
      <point x="332" y="344"/>
      <point x="332" y="328" type="curve" smooth="yes"/>
      <point x="332" y="308"/>
      <point x="347" y="296"/>
      <point x="366" y="296" type="curve" smooth="yes"/>
      <point x="390" y="296"/>
      <point x="417" y="316"/>
      <point x="417" y="356" type="curve" smooth="yes"/>
      <point x="417" y="404"/>
      <point x="371" y="441"/>
      <point x="302" y="441" type="curve" smooth="yes"/>
      <point x="171" y="441"/>
      <point x="40" y="298"/>
    </contour>
  </outline>
</glyph>
<glyph name="e" format="2">
  <advance width="453"/>
  <unicode hex="0065"/>
  <outline>
    <contour>
      <point x="45" y="168" type="curve" smooth="yes"/>
      <point x="45" y="63"/>
      <point x="105" y="-10"/>
      <point x="196" y="-10" type="curve" smooth="yes"/>
      <point x="252.97312" y="-10.0"/>
      <point x="301.17154168" y="8.602360438400002"/>
      <point x="337.94861947344566" y="31.17701276674669" type="curve" smooth="yes"/>
      <point x="388.96175888960005" y="62.490101124800006"/>
      <point x="418.00000000000006" y="101.44596000000001"/>
      <point x="418" y="109" type="curve" smooth="yes"/>
      <point x="418" y="115"/>
      <point x="412" y="120"/>
      <point x="408" y="120" type="curve" smooth="yes"/>
      <point x="405" y="120"/>
      <point x="404" y="119"/>
      <point x="395" y="110" type="curve"/>
      <point x="331" y="25"/>
      <point x="236" y="10"/>
      <point x="198" y="10" type="curve" smooth="yes"/>
      <point x="141" y="10"/>
      <point x="111" y="55"/>
      <point x="111" y="129" type="curve" smooth="yes"/>
      <point x="111" y="143"/>
      <point x="111" y="168"/>
      <point x="126" y="232" type="curve"/>
      <point x="143.649" y="232.0"/>
      <point x="161.298" y="232.0"/>
      <point x="179" y="232" type="curve" smooth="yes"/>
      <point x="206" y="232"/>
      <point x="274" y="234"/>
      <point x="322" y="252" type="curve" smooth="yes"/>
      <point x="398" y="281"/>
      <point x="405" y="339"/>
      <point x="405" y="357" type="curve" smooth="yes"/>
      <point x="405" y="401"/>
      <point x="367" y="441"/>
      <point x="301" y="441" type="curve" smooth="yes"/>
      <point x="196" y="441"/>
      <point x="45" y="346"/>
    </contour>
    <contour>
      <point x="131" y="252" type="curve"/>
      <point x="174" y="406"/>
      <point x="269" y="421"/>
      <point x="301" y="421" type="curve" smooth="yes"/>
      <point x="345" y="421"/>
      <point x="375" y="395"/>
      <point x="375" y="357" type="curve" smooth="yes"/>
      <point x="375" y="252"/>
      <point x="215" y="252"/>
      <point x="173" y="252" type="curve" smooth="yes"/>
      <point x="159.014" y="252"/>
      <point x="145.028" y="252"/>
    </contour>
  </outline>
</glyph>
<glyph name="f" format="2">
  <advance width="482"/>
  <unicode hex="0066"/>
  <outline>
    <contour>
      <point x="446" y="402" type="line" smooth="yes"/>
      <point x="466" y="402"/>
      <point x="474" y="402"/>
      <point x="474" y="421" type="curve" smooth="yes"/>
      <point x="474" y="431"/>
      <point x="466" y="431"/>
      <point x="448" y="431" type="curve" smooth="yes"/>
      <point x="367" y="431" type="line"/>
      <point x="386" y="534"/>
      <point x="400" y="605"/>
      <point x="408" y="637" type="curve" smooth="yes"/>
      <point x="414" y="661"/>
      <point x="435" y="684"/>
      <point x="461" y="684" type="curve" smooth="yes"/>
      <point x="482" y="684"/>
      <point x="503" y="675"/>
      <point x="513" y="666" type="curve"/>
      <point x="474" y="662"/>
      <point x="462" y="633"/>
      <point x="462" y="616" type="curve" smooth="yes"/>
      <point x="462" y="596"/>
      <point x="477" y="584"/>
      <point x="496" y="584" type="curve" smooth="yes"/>
      <point x="516" y="584"/>
      <point x="546" y="601"/>
      <point x="546" y="639" type="curve" smooth="yes"/>
      <point x="546" y="681"/>
      <point x="504" y="704"/>
      <point x="460" y="704" type="curve" smooth="yes"/>
      <point x="417" y="704"/>
      <point x="375" y="672"/>
      <point x="355" y="633" type="curve" smooth="yes"/>
      <point x="337" y="598"/>
      <point x="327" y="562"/>
      <point x="304" y="431" type="curve"/>
      <point x="237" y="431" type="line" smooth="yes"/>
      <point x="218" y="431"/>
      <point x="208" y="431"/>
      <point x="208" y="413" type="curve" smooth="yes"/>
      <point x="208" y="402"/>
      <point x="214" y="402"/>
      <point x="234" y="402" type="curve" smooth="yes"/>
      <point x="298" y="402" type="line"/>
      <point x="280" y="309"/>
      <point x="239" y="83"/>
      <point x="216" y="-24" type="curve" smooth="yes"/>
      <point x="199" y="-111"/>
      <point x="184" y="-184"/>
      <point x="134" y="-184" type="curve" smooth="yes"/>
      <point x="131" y="-184"/>
      <point x="102" y="-184"/>
      <point x="84" y="-165" type="curve"/>
      <point x="135" y="-161"/>
      <point x="135" y="-117"/>
      <point x="135" y="-116" type="curve" smooth="yes"/>
      <point x="135" y="-96"/>
      <point x="120" y="-84"/>
      <point x="101" y="-84" type="curve" smooth="yes"/>
      <point x="81" y="-84"/>
      <point x="51" y="-101"/>
      <point x="51" y="-139" type="curve" smooth="yes"/>
      <point x="51" y="-182"/>
      <point x="95" y="-204"/>
      <point x="134" y="-204" type="curve" smooth="yes"/>
      <point x="236" y="-204"/>
      <point x="278" y="-21"/>
      <point x="289" y="29" type="curve" smooth="yes"/>
      <point x="307" y="106"/>
      <point x="356" y="372"/>
      <point x="361" y="402" type="curve"/>
    </contour>
  </outline>
</glyph>
<glyph name="g" format="2">
  <advance width="468"/>
  <unicode hex="0067"/>
  <outline>
    <contour>
      <point x="76" y="155" type="curve" smooth="yes"/>
      <point x="76" y="51"/>
      <point x="139" y="0"/>
      <point x="203" y="0" type="curve" smooth="yes"/>
      <point x="256" y="0"/>
      <point x="303" y="42"/>
      <point x="321" y="62" type="curve"/>
      <point x="321" y="62" type="line"/>
      <point x="313.674" y="32.03"/>
      <point x="306.348" y="2.059999999999995"/>
      <point x="299" y="-28" type="curve" smooth="yes"/>
      <point x="286" y="-83"/>
      <point x="279" y="-108"/>
      <point x="243" y="-143" type="curve" smooth="yes"/>
      <point x="202" y="-184"/>
      <point x="164" y="-184"/>
      <point x="142" y="-184" type="curve" smooth="yes"/>
      <point x="112" y="-184"/>
      <point x="87" y="-182"/>
      <point x="62" y="-174" type="curve"/>
      <point x="94" y="-165"/>
      <point x="102" y="-137"/>
      <point x="102" y="-126" type="curve" smooth="yes"/>
      <point x="102" y="-110"/>
      <point x="90" y="-94"/>
      <point x="68" y="-94" type="curve" smooth="yes"/>
      <point x="44" y="-94"/>
      <point x="18" y="-114"/>
      <point x="18" y="-147" type="curve" smooth="yes"/>
      <point x="18" y="-188"/>
      <point x="59" y="-204"/>
      <point x="144" y="-204" type="curve" smooth="yes"/>
      <point x="273" y="-204"/>
      <point x="340" y="-121"/>
      <point x="353" y="-67" type="curve" smooth="yes"/>
      <point x="464" y="381" type="line" smooth="yes"/>
      <point x="467" y="393"/>
      <point x="467" y="395"/>
      <point x="467" y="397" type="curve" smooth="yes"/>
      <point x="467" y="411"/>
      <point x="456" y="422"/>
      <point x="441" y="422" type="curve" smooth="yes"/>
      <point x="417" y="422"/>
      <point x="403" y="402"/>
      <point x="400" y="375" type="curve"/>
      <point x="387" y="404"/>
      <point x="359" y="441"/>
      <point x="309" y="441" type="curve" smooth="yes"/>
      <point x="200" y="441"/>
      <point x="76" y="304"/>
    </contour>
    <contour>
      <point x="338" y="127" type="line" smooth="yes"/>
      <point x="334" y="111"/>
      <point x="332" y="107"/>
      <point x="319" y="92" type="curve"/>
      <point x="278" y="39"/>
      <point x="236" y="20"/>
      <point x="205" y="20" type="curve" smooth="yes"/>
      <point x="172" y="20"/>
      <point x="141" y="46"/>
      <point x="141" y="115" type="curve" smooth="yes"/>
      <point x="141" y="168"/>
      <point x="171" y="280"/>
      <point x="193" y="325" type="curve" smooth="yes"/>
      <point x="222" y="381"/>
      <point x="267" y="421"/>
      <point x="309" y="421" type="curve" smooth="yes"/>
      <point x="375" y="421"/>
      <point x="388" y="339"/>
      <point x="388" y="333" type="curve"/>
      <point x="387.001" y="328.338"/>
      <point x="386.002" y="323.676"/>
      <point x="385" y="319" type="curve"/>
    </contour>
  </outline>
</glyph>
<glyph name="i" format="2">
  <advance width="334"/>
  <unicode hex="0069"/>
  <outline>
    <contour>
      <point x="275" y="624" type="curve" smooth="yes"/>
      <point x="275" y="639"/>
      <point x="263" y="657"/>
      <point x="241" y="657" type="curve" smooth="yes"/>
      <point x="218" y="657"/>
      <point x="192" y="635"/>
      <point x="192" y="609" type="curve" smooth="yes"/>
      <point x="192" y="584"/>
      <point x="213" y="576"/>
      <point x="225" y="576" type="curve" smooth="yes"/>
      <point x="252" y="576"/>
      <point x="275" y="602"/>
    </contour>
    <contour>
      <point x="76" y="71" type="curve" smooth="yes"/>
      <point x="76" y="26"/>
      <point x="107" y="-10"/>
      <point x="155" y="-10" type="curve" smooth="yes"/>
      <point x="247" y="-10"/>
      <point x="283" y="136"/>
      <point x="283" y="143" type="curve" smooth="yes"/>
      <point x="283" y="148"/>
      <point x="279" y="152"/>
      <point x="273" y="152" type="curve" smooth="yes"/>
      <point x="264" y="152"/>
      <point x="263" y="149"/>
      <point x="258" y="132" type="curve" smooth="yes"/>
      <point x="232" y="41"/>
      <point x="191" y="10"/>
      <point x="158" y="10" type="curve" smooth="yes"/>
      <point x="146" y="10"/>
      <point x="132" y="13"/>
      <point x="132" y="43" type="curve" smooth="yes"/>
      <point x="132" y="70"/>
      <point x="144" y="100"/>
      <point x="155" y="130" type="curve" smooth="yes"/>
      <point x="178.31" y="191.938"/>
      <point x="201.62" y="253.876"/>
      <point x="225" y="316" type="curve" smooth="yes"/>
      <point x="228" y="324"/>
      <point x="235" y="342"/>
      <point x="235" y="361" type="curve" smooth="yes"/>
      <point x="235" y="403"/>
      <point x="205" y="441"/>
      <point x="156" y="441" type="curve" smooth="yes"/>
      <point x="64" y="441"/>
      <point x="27" y="296"/>
      <point x="27" y="288" type="curve" smooth="yes"/>
      <point x="27" y="284"/>
      <point x="31" y="279"/>
      <point x="38" y="279" type="curve" smooth="yes"/>
      <point x="47" y="279"/>
      <point x="48" y="283"/>
      <point x="52" y="297" type="curve" smooth="yes"/>
      <point x="76" y="381"/>
      <point x="114" y="421"/>
      <point x="153" y="421" type="curve" smooth="yes"/>
      <point x="162" y="421"/>
      <point x="179" y="420"/>
      <point x="179" y="388" type="curve" smooth="yes"/>
      <point x="179" y="362"/>
      <point x="166" y="329"/>
      <point x="158" y="307" type="curve" smooth="yes"/>
      <point x="134.69" y="245.062"/>
      <point x="111.38" y="183.124"/>
      <point x="88" y="121" type="curve" smooth="yes"/>
      <point x="82" y="105"/>
      <point x="76" y="89"/>
    </contour>
  </outline>
</glyph>
<glyph name="k" format="2">
  <advance width="509"/>
  <unicode hex="006B"/>
  <outline>
    <contour>
      <point x="368" y="-10" type="curve" smooth="yes"/>
      <point x="414" y="-10"/>
      <point x="438" y="32"/>
      <point x="446" y="46" type="curve" smooth="yes"/>
      <point x="467" y="83"/>
      <point x="480" y="139"/>
      <point x="480" y="143" type="curve" smooth="yes"/>
      <point x="480" y="148"/>
      <point x="476" y="152"/>
      <point x="470" y="152" type="curve" smooth="yes"/>
      <point x="461" y="152"/>
      <point x="460" y="148"/>
      <point x="456" y="132" type="curve" smooth="yes"/>
      <point x="442" y="80"/>
      <point x="421" y="10"/>
      <point x="370" y="10" type="curve" smooth="yes"/>
      <point x="350" y="10"/>
      <point x="337" y="20"/>
      <point x="337" y="58" type="curve" smooth="yes"/>
      <point x="337" y="77"/>
      <point x="341" y="99"/>
      <point x="345" y="114" type="curve" smooth="yes"/>
      <point x="349" y="132"/>
      <point x="349" y="133"/>
      <point x="349" y="145" type="curve" smooth="yes"/>
      <point x="349" y="204"/>
      <point x="296" y="237"/>
      <point x="204" y="249" type="curve"/>
      <point x="240" y="271"/>
      <point x="276" y="310"/>
      <point x="290" y="325" type="curve" smooth="yes"/>
      <point x="347" y="389"/>
      <point x="386" y="421"/>
      <point x="432" y="421" type="curve" smooth="yes"/>
      <point x="455" y="421"/>
      <point x="461" y="415"/>
      <point x="468" y="409" type="curve"/>
      <point x="431" y="405"/>
      <point x="417" y="379"/>
      <point x="417" y="359" type="curve" smooth="yes"/>
      <point x="417" y="335"/>
      <point x="436" y="327"/>
      <point x="450" y="327" type="curve" smooth="yes"/>
      <point x="477" y="327"/>
      <point x="501" y="350"/>
      <point x="501" y="382" type="curve" smooth="yes"/>
      <point x="501" y="411"/>
      <point x="478" y="441"/>
      <point x="433" y="441" type="curve" smooth="yes"/>
      <point x="378" y="441"/>
      <point x="333" y="402"/>
      <point x="262" y="322" type="curve" smooth="yes"/>
      <point x="252" y="310"/>
      <point x="215" y="272"/>
      <point x="178" y="258" type="curve"/>
      <point x="281" y="669" type="line" smooth="yes"/>
      <point x="282" y="673"/>
      <point x="284" y="679"/>
      <point x="284" y="684" type="curve" smooth="yes"/>
      <point x="284" y="694"/>
      <point x="274" y="694"/>
      <point x="272" y="694" type="curve" smooth="yes"/>
      <point x="270" y="694"/>
      <point x="204.14302" y="687.0635"/>
      <point x="167" y="685" type="curve" smooth="yes"/>
      <point x="143" y="683"/>
      <point x="136" y="682"/>
      <point x="136" y="664" type="curve" smooth="yes"/>
      <point x="136" y="654"/>
      <point x="146" y="654"/>
      <point x="156" y="654" type="curve" smooth="yes"/>
      <point x="207" y="654"/>
      <point x="207" y="645"/>
      <point x="207" y="635" type="curve" smooth="yes"/>
      <point x="207" y="631"/>
      <point x="207" y="629"/>
      <point x="202" y="611" type="curve" smooth="yes"/>
      <point x="59" y="39" type="line" smooth="yes"/>
      <point x="55" y="24"/>
      <point x="55" y="22"/>
      <point x="55" y="16" type="curve" smooth="yes"/>
      <point x="55" y="-6"/>
      <point x="72" y="-10"/>
      <point x="82" y="-10" type="curve" smooth="yes"/>
      <point x="110" y="-10"/>
      <point x="116" y="12"/>
      <point x="124" y="43" type="curve" smooth="yes"/>
      <point x="139.651" y="105.271"/>
      <point x="155.302" y="167.542"/>
      <point x="171" y="230" type="curve"/>
      <point x="243" y="222"/>
      <point x="286" y="192"/>
      <point x="286" y="144" type="curve" smooth="yes"/>
      <point x="286" y="138"/>
      <point x="286" y="134"/>
      <point x="283" y="119" type="curve"/>
      <point x="279" y="104"/>
      <point x="279" y="92"/>
      <point x="279" y="87" type="curve" smooth="yes"/>
      <point x="279" y="29"/>
      <point x="317" y="-10"/>
    </contour>
  </outline>
</glyph>
<glyph name="m" format="2">
  <advance width="856"/>
  <unicode hex="006D"/>
  <outline>
    <contour>
      <point x="206" y="293" type="line"/>
      <point x="208" y="299"/>
      <point x="233" y="349"/>
      <point x="270" y="381" type="curve" smooth="yes"/>
      <point x="296" y="405"/>
      <point x="330" y="421"/>
      <point x="369" y="421" type="curve" smooth="yes"/>
      <point x="409" y="421"/>
      <point x="423" y="391"/>
      <point x="423" y="351" type="curve" smooth="yes"/>
      <point x="423" y="345"/>
      <point x="423" y="325"/>
      <point x="411" y="278" type="curve" smooth="yes"/>
      <point x="386" y="175" type="line" smooth="yes"/>
      <point x="378" y="145"/>
      <point x="359" y="71"/>
      <point x="357" y="60" type="curve"/>
      <point x="353" y="45"/>
      <point x="347" y="19"/>
      <point x="347" y="15" type="curve" smooth="yes"/>
      <point x="347" y="1"/>
      <point x="358" y="-10"/>
      <point x="373" y="-10" type="curve" smooth="yes"/>
      <point x="403" y="-10"/>
      <point x="408" y="13"/>
      <point x="417" y="49" type="curve" smooth="yes"/>
      <point x="477" y="288" type="line" smooth="yes"/>
      <point x="479" y="296"/>
      <point x="531" y="421"/>
      <point x="641" y="421" type="curve" smooth="yes"/>
      <point x="681" y="421"/>
      <point x="695" y="391"/>
      <point x="695" y="351" type="curve" smooth="yes"/>
      <point x="695" y="295"/>
      <point x="656" y="186"/>
      <point x="634" y="126" type="curve" smooth="yes"/>
      <point x="625" y="102"/>
      <point x="620" y="89"/>
      <point x="620" y="71" type="curve" smooth="yes"/>
      <point x="620" y="26"/>
      <point x="651" y="-10"/>
      <point x="699" y="-10" type="curve" smooth="yes"/>
      <point x="792" y="-10"/>
      <point x="827" y="137"/>
      <point x="827" y="143" type="curve" smooth="yes"/>
      <point x="827" y="148"/>
      <point x="823" y="152"/>
      <point x="817" y="152" type="curve" smooth="yes"/>
      <point x="808" y="152"/>
      <point x="807" y="149"/>
      <point x="802" y="132" type="curve" smooth="yes"/>
      <point x="779" y="52"/>
      <point x="742" y="10"/>
      <point x="702" y="10" type="curve" smooth="yes"/>
      <point x="692" y="10"/>
      <point x="676" y="11"/>
      <point x="676" y="43" type="curve" smooth="yes"/>
      <point x="676" y="69"/>
      <point x="688" y="101"/>
      <point x="692" y="112" type="curve" smooth="yes"/>
      <point x="710" y="160"/>
      <point x="755" y="278"/>
      <point x="755" y="336" type="curve" smooth="yes"/>
      <point x="755" y="396"/>
      <point x="720" y="441"/>
      <point x="644" y="441" type="curve" smooth="yes"/>
      <point x="577" y="441"/>
      <point x="523" y="403"/>
      <point x="483" y="344" type="curve"/>
      <point x="480" y="398"/>
      <point x="447" y="441"/>
      <point x="372" y="441" type="curve" smooth="yes"/>
      <point x="283" y="441"/>
      <point x="236" y="378"/>
      <point x="218" y="353" type="curve"/>
      <point x="215" y="410"/>
      <point x="174" y="441"/>
      <point x="130" y="441" type="curve" smooth="yes"/>
      <point x="101" y="441"/>
      <point x="78" y="427"/>
      <point x="59" y="389" type="curve" smooth="yes"/>
      <point x="41" y="353"/>
      <point x="27" y="292"/>
      <point x="27" y="288" type="curve" smooth="yes"/>
      <point x="27" y="284"/>
      <point x="31" y="279"/>
      <point x="38" y="279" type="curve" smooth="yes"/>
      <point x="46" y="279"/>
      <point x="47" y="280"/>
      <point x="53" y="303" type="curve" smooth="yes"/>
      <point x="68" y="362"/>
      <point x="87" y="421"/>
      <point x="127" y="421" type="curve" smooth="yes"/>
      <point x="150" y="421"/>
      <point x="158" y="405"/>
      <point x="158" y="375" type="curve" smooth="yes"/>
      <point x="158" y="353"/>
      <point x="148" y="314"/>
      <point x="141" y="283" type="curve" smooth="yes"/>
      <point x="113" y="175" type="line" smooth="yes"/>
      <point x="109" y="156"/>
      <point x="98" y="111"/>
      <point x="93" y="93" type="curve" smooth="yes"/>
      <point x="86" y="67"/>
      <point x="75" y="20"/>
      <point x="75" y="15" type="curve" smooth="yes"/>
      <point x="75" y="1"/>
      <point x="86" y="-10"/>
      <point x="101" y="-10" type="curve" smooth="yes"/>
      <point x="113" y="-10"/>
      <point x="127" y="-4"/>
      <point x="135" y="11" type="curve"/>
      <point x="137" y="16"/>
      <point x="146" y="51"/>
      <point x="151" y="71" type="curve" smooth="yes"/>
      <point x="173" y="161" type="line"/>
    </contour>
  </outline>
</glyph>
<glyph name="n" format="2">
  <advance width="584"/>
  <unicode hex="006E"/>
  <outline>
    <contour>
      <point x="101" y="-10" type="curve" smooth="yes"/>
      <point x="113" y="-10"/>
      <point x="129" y="-2"/>
      <point x="135" y="11" type="curve" smooth="yes"/>
      <point x="137" y="16"/>
      <point x="146" y="51"/>
      <point x="151" y="71" type="curve" smooth="yes"/>
      <point x="169.315" y="144.926"/>
      <point x="187.63" y="218.852"/>
      <point x="206" y="293" type="curve"/>
      <point x="208" y="299"/>
      <point x="233" y="349"/>
      <point x="270" y="381" type="curve" smooth="yes"/>
      <point x="296" y="405"/>
      <point x="330" y="421"/>
      <point x="369" y="421" type="curve" smooth="yes"/>
      <point x="409" y="421"/>
      <point x="423" y="391"/>
      <point x="423" y="351" type="curve" smooth="yes"/>
      <point x="423" y="294"/>
      <point x="382" y="180"/>
      <point x="362" y="126" type="curve" smooth="yes"/>
      <point x="353" y="102"/>
      <point x="348" y="89"/>
      <point x="348" y="71" type="curve" smooth="yes"/>
      <point x="348" y="26"/>
      <point x="379" y="-10"/>
      <point x="427" y="-10" type="curve" smooth="yes"/>
      <point x="520" y="-10"/>
      <point x="555" y="137"/>
      <point x="555" y="143" type="curve" smooth="yes"/>
      <point x="555" y="148"/>
      <point x="551" y="152"/>
      <point x="545" y="152" type="curve" smooth="yes"/>
      <point x="536" y="152"/>
      <point x="535" y="149"/>
      <point x="530" y="132" type="curve" smooth="yes"/>
      <point x="507" y="50"/>
      <point x="469" y="10"/>
      <point x="430" y="10" type="curve" smooth="yes"/>
      <point x="420" y="10"/>
      <point x="404" y="11"/>
      <point x="404" y="43" type="curve" smooth="yes"/>
      <point x="404" y="68"/>
      <point x="416" y="98"/>
      <point x="421" y="112" type="curve" smooth="yes"/>
      <point x="442" y="167"/>
      <point x="483" y="279"/>
      <point x="483" y="336" type="curve" smooth="yes"/>
      <point x="483" y="396"/>
      <point x="448" y="441"/>
      <point x="372" y="441" type="curve" smooth="yes"/>
      <point x="283" y="441"/>
      <point x="236" y="378"/>
      <point x="218" y="353" type="curve"/>
      <point x="215" y="410"/>
      <point x="174" y="441"/>
      <point x="130" y="441" type="curve" smooth="yes"/>
      <point x="98" y="441"/>
      <point x="76" y="422"/>
      <point x="59" y="388" type="curve" smooth="yes"/>
      <point x="41" y="352"/>
      <point x="27" y="292"/>
      <point x="27" y="288" type="curve" smooth="yes"/>
      <point x="27" y="284"/>
      <point x="31" y="279"/>
      <point x="38" y="279" type="curve" smooth="yes"/>
      <point x="46" y="279"/>
      <point x="47" y="280"/>
      <point x="53" y="303" type="curve" smooth="yes"/>
      <point x="69" y="364"/>
      <point x="87" y="421"/>
      <point x="127" y="421" type="curve" smooth="yes"/>
      <point x="150" y="421"/>
      <point x="158" y="405"/>
      <point x="158" y="375" type="curve" smooth="yes"/>
      <point x="158" y="353"/>
      <point x="148" y="314"/>
      <point x="141" y="283" type="curve" smooth="yes"/>
      <point x="108" y="156"/>
      <point x="98" y="111"/>
      <point x="93" y="93" type="curve" smooth="yes"/>
      <point x="86" y="67"/>
      <point x="75" y="20"/>
      <point x="75" y="15" type="curve" smooth="yes"/>
      <point x="75" y="1"/>
      <point x="86" y="-10"/>
    </contour>
  </outline>
</glyph>
<glyph name="p" format="2">
  <advance width="491"/>
  <unicode hex="0070"/>
  <outline>
    <contour>
      <point x="43" y="-127" type="line" smooth="yes"/>
      <point x="36" y="-157"/>
      <point x="32" y="-165"/>
      <point x="-9" y="-165" type="curve" smooth="yes"/>
      <point x="-21" y="-165"/>
      <point x="-31" y="-165"/>
      <point x="-31" y="-184" type="curve" smooth="yes"/>
      <point x="-31" y="-186"/>
      <point x="-30" y="-194"/>
      <point x="-19" y="-194" type="curve" smooth="yes"/>
      <point x="-6" y="-194"/>
      <point x="28" y="-192"/>
      <point x="64" y="-192" type="curve" smooth="yes"/>
      <point x="85" y="-192"/>
      <point x="136" y="-194"/>
      <point x="157" y="-194" type="curve" smooth="yes"/>
      <point x="163" y="-194"/>
      <point x="175" y="-194"/>
      <point x="175" y="-176" type="curve" smooth="yes"/>
      <point x="175" y="-165"/>
      <point x="168" y="-165"/>
      <point x="151" y="-165" type="curve" smooth="yes"/>
      <point x="105" y="-165"/>
      <point x="102" y="-158"/>
      <point x="102" y="-150" type="curve" smooth="yes"/>
      <point x="102" y="-147"/>
      <point x="104" y="-134"/>
      <point x="109" y="-115" type="curve" smooth="yes"/>
      <point x="123.652" y="-57.724"/>
      <point x="138.304" y="-0.4479999999999933"/>
      <point x="153" y="57" type="curve"/>
      <point x="164" y="29"/>
      <point x="191" y="-10"/>
      <point x="243" y="-10" type="curve" smooth="yes"/>
      <point x="356" y="-10"/>
      <point x="478" y="137"/>
      <point x="478" y="284" type="curve" smooth="yes"/>
      <point x="478" y="376"/>
      <point x="426" y="441"/>
      <point x="351" y="441" type="curve" smooth="yes"/>
      <point x="287" y="441"/>
      <point x="233" y="379"/>
      <point x="222" y="365" type="curve"/>
      <point x="214" y="415"/>
      <point x="175" y="441"/>
      <point x="135" y="441" type="curve" smooth="yes"/>
      <point x="106" y="441"/>
      <point x="83" y="427"/>
      <point x="64" y="389" type="curve" smooth="yes"/>
      <point x="46" y="353"/>
      <point x="32" y="292"/>
      <point x="32" y="288" type="curve" smooth="yes"/>
      <point x="32" y="284"/>
      <point x="36" y="279"/>
      <point x="43" y="279" type="curve" smooth="yes"/>
      <point x="51" y="279"/>
      <point x="52" y="280"/>
      <point x="58" y="303" type="curve" smooth="yes"/>
      <point x="73" y="362"/>
      <point x="92" y="421"/>
      <point x="132" y="421" type="curve" smooth="yes"/>
      <point x="155" y="421"/>
      <point x="163" y="405"/>
      <point x="163" y="375" type="curve" smooth="yes"/>
      <point x="163" y="351"/>
      <point x="160" y="341"/>
      <point x="156" y="323" type="curve" smooth="yes"/>
    </contour>
    <contour>
      <point x="349" y="421" type="curve" smooth="yes"/>
      <point x="393" y="421"/>
      <point x="413" y="377"/>
      <point x="413" y="325" type="curve" smooth="yes"/>
      <point x="413" y="277"/>
      <point x="385" y="164"/>
      <point x="360" y="112" type="curve" smooth="yes"/>
      <point x="335" y="58"/>
      <point x="289" y="10"/>
      <point x="243" y="10" type="curve" smooth="yes"/>
      <point x="175" y="10"/>
      <point x="164" y="96"/>
      <point x="164" y="100" type="curve" smooth="yes"/>
      <point x="164" y="103"/>
      <point x="166" y="111"/>
      <point x="167" y="116" type="curve" smooth="yes"/>
      <point x="216" y="312" type="line" smooth="yes"/>
      <point x="223" y="340"/>
      <point x="251" y="369"/>
      <point x="267" y="383" type="curve" smooth="yes"/>
      <point x="278" y="393"/>
      <point x="311" y="421"/>
    </contour>
  </outline>
</glyph>
<glyph name="q" format="2">
  <advance width="434"/>
  <unicode hex="0071"/>
  <outline>
    <contour>
      <point x="257" y="-192" type="curve" smooth="yes"/>
      <point x="321" y="-192"/>
      <point x="338" y="-194"/>
      <point x="353" y="-194" type="curve" smooth="yes"/>
      <point x="359" y="-194"/>
      <point x="371" y="-194"/>
      <point x="371" y="-175" type="curve" smooth="yes"/>
      <point x="371" y="-165"/>
      <point x="363" y="-165"/>
      <point x="348" y="-165" type="curve" smooth="yes"/>
      <point x="301" y="-165"/>
      <point x="298" y="-158"/>
      <point x="298" y="-150" type="curve" smooth="yes"/>
      <point x="298" y="-145"/>
      <point x="299" y="-143"/>
      <point x="302" y="-131" type="curve" smooth="yes"/>
      <point x="441" y="431" type="line"/>
      <point x="441" y="431" type="line"/>
      <point x="441" y="436"/>
      <point x="437" y="440"/>
      <point x="432" y="440" type="curve" smooth="yes"/>
      <point x="424" y="440"/>
      <point x="385" y="404"/>
      <point x="366" y="369" type="curve"/>
      <point x="348" y="414"/>
      <point x="317" y="441"/>
      <point x="274" y="441" type="curve" smooth="yes"/>
      <point x="161" y="441"/>
      <point x="39" y="295"/>
      <point x="39" y="147" type="curve" smooth="yes"/>
      <point x="39" y="48"/>
      <point x="97" y="-10"/>
      <point x="165" y="-10" type="curve" smooth="yes"/>
      <point x="218" y="-10"/>
      <point x="262" y="30"/>
      <point x="283" y="53" type="curve"/>
      <point x="284" y="52" type="line"/>
      <point x="237" y="-134" type="line" smooth="yes"/>
      <point x="228" y="-164"/>
      <point x="213" y="-164"/>
      <point x="166" y="-165" type="curve" smooth="yes"/>
      <point x="155" y="-165"/>
      <point x="145" y="-165"/>
      <point x="145" y="-184" type="curve" smooth="yes"/>
      <point x="145" y="-191"/>
      <point x="151" y="-194"/>
      <point x="158" y="-194" type="curve" smooth="yes"/>
      <point x="172" y="-194"/>
      <point x="190" y="-192"/>
    </contour>
    <contour>
      <point x="168" y="10" type="curve" smooth="yes"/>
      <point x="127" y="10"/>
      <point x="104" y="47"/>
      <point x="104" y="106" type="curve" smooth="yes"/>
      <point x="104" y="161"/>
      <point x="135" y="273"/>
      <point x="154" y="315" type="curve" smooth="yes"/>
      <point x="188" y="385"/>
      <point x="235" y="421"/>
      <point x="274" y="421" type="curve" smooth="yes"/>
      <point x="340" y="421"/>
      <point x="353" y="339"/>
      <point x="353" y="331" type="curve" smooth="yes"/>
      <point x="353" y="330"/>
      <point x="350" y="317"/>
      <point x="349" y="315" type="curve"/>
      <point x="300" y="119" type="line" smooth="yes"/>
      <point x="295" y="102"/>
      <point x="295" y="100"/>
      <point x="281" y="81" type="curve" smooth="yes"/>
      <point x="259" y="53"/>
      <point x="215" y="10"/>
    </contour>
  </outline>
</glyph>
<glyph name="r" format="2">
  <advance width="441"/>
  <unicode hex="0072"/>
  <outline>
    <contour>
      <point x="389" y="409" type="curve"/>
      <point x="358" y="403"/>
      <point x="342" y="381"/>
      <point x="342" y="359" type="curve" smooth="yes"/>
      <point x="342" y="335"/>
      <point x="361" y="327"/>
      <point x="375" y="327" type="curve" smooth="yes"/>
      <point x="403" y="327"/>
      <point x="426" y="351"/>
      <point x="426" y="381" type="curve" smooth="yes"/>
      <point x="426" y="413"/>
      <point x="395" y="441"/>
      <point x="345" y="441" type="curve" smooth="yes"/>
      <point x="305" y="441"/>
      <point x="259" y="423"/>
      <point x="217" y="362" type="curve"/>
      <point x="210" y="415"/>
      <point x="170" y="441"/>
      <point x="130" y="441" type="curve" smooth="yes"/>
      <point x="91" y="441"/>
      <point x="71" y="411"/>
      <point x="59" y="389" type="curve"/>
      <point x="42" y="353"/>
      <point x="27" y="293"/>
      <point x="27" y="288" type="curve" smooth="yes"/>
      <point x="27" y="284"/>
      <point x="31" y="279"/>
      <point x="38" y="279" type="curve" smooth="yes"/>
      <point x="46" y="279"/>
      <point x="47" y="280"/>
      <point x="53" y="303" type="curve" smooth="yes"/>
      <point x="68" y="363"/>
      <point x="87" y="421"/>
      <point x="127" y="421" type="curve" smooth="yes"/>
      <point x="151" y="421"/>
      <point x="158" y="404"/>
      <point x="158" y="375" type="curve" smooth="yes"/>
      <point x="158" y="353"/>
      <point x="148" y="314"/>
      <point x="141" y="283" type="curve" smooth="yes"/>
      <point x="113" y="175" type="line" smooth="yes"/>
      <point x="109" y="156"/>
      <point x="98" y="111"/>
      <point x="93" y="93" type="curve" smooth="yes"/>
      <point x="86" y="67"/>
      <point x="75" y="20"/>
      <point x="75" y="15" type="curve" smooth="yes"/>
      <point x="75" y="1"/>
      <point x="86" y="-10"/>
      <point x="101" y="-10" type="curve" smooth="yes"/>
      <point x="112" y="-10"/>
      <point x="131" y="-3"/>
      <point x="137" y="17" type="curve"/>
      <point x="140" y="25"/>
      <point x="177" y="176"/>
      <point x="183" y="199" type="curve" smooth="yes"/>
      <point x="188" y="221"/>
      <point x="194" y="242"/>
      <point x="199" y="264" type="curve"/>
      <point x="203" y="278"/>
      <point x="207" y="294"/>
      <point x="210" y="307" type="curve"/>
      <point x="213" y="316"/>
      <point x="240" y="365"/>
      <point x="265" y="387" type="curve" smooth="yes"/>
      <point x="277" y="398"/>
      <point x="303" y="421"/>
      <point x="344" y="421" type="curve" smooth="yes"/>
      <point x="360" y="421"/>
      <point x="376" y="418"/>
    </contour>
  </outline>
</glyph>
<glyph name="s" format="2">
  <advance width="461"/>
  <unicode hex="0073"/>
  <outline>
    <contour>
      <point x="228" y="200" type="curve" smooth="yes"/>
      <point x="245" y="197"/>
      <point x="272" y="191"/>
      <point x="278" y="190" type="curve"/>
      <point x="291" y="186"/>
      <point x="336" y="170"/>
      <point x="336" y="122" type="curve" smooth="yes"/>
      <point x="336" y="91"/>
      <point x="308" y="10"/>
      <point x="192" y="10" type="curve" smooth="yes"/>
      <point x="171" y="10"/>
      <point x="96" y="13"/>
      <point x="76" y="68" type="curve"/>
      <point x="116" y="63"/>
      <point x="136" y="94"/>
      <point x="136" y="116" type="curve" smooth="yes"/>
      <point x="136" y="137"/>
      <point x="122" y="148"/>
      <point x="102" y="148" type="curve" smooth="yes"/>
      <point x="80" y="148"/>
      <point x="51" y="131"/>
      <point x="51" y="86" type="curve" smooth="yes"/>
      <point x="51" y="27"/>
      <point x="111" y="-10"/>
      <point x="191" y="-10" type="curve" smooth="yes"/>
      <point x="343" y="-10"/>
      <point x="388" y="102"/>
      <point x="388" y="154" type="curve" smooth="yes"/>
      <point x="388" y="169"/>
      <point x="388" y="197"/>
      <point x="356" y="229" type="curve" smooth="yes"/>
      <point x="331" y="253"/>
      <point x="307" y="258"/>
      <point x="253" y="269" type="curve" smooth="yes"/>
      <point x="226" y="275"/>
      <point x="183" y="284"/>
      <point x="183" y="329" type="curve" smooth="yes"/>
      <point x="183" y="349"/>
      <point x="201" y="421"/>
      <point x="296" y="421" type="curve" smooth="yes"/>
      <point x="338" y="421"/>
      <point x="379" y="405"/>
      <point x="389" y="369" type="curve"/>
      <point x="345" y="369"/>
      <point x="343" y="331"/>
      <point x="343" y="330" type="curve" smooth="yes"/>
      <point x="343" y="309"/>
      <point x="362" y="303"/>
      <point x="371" y="303" type="curve" smooth="yes"/>
      <point x="385" y="303"/>
      <point x="413" y="314"/>
      <point x="413" y="356" type="curve" smooth="yes"/>
      <point x="413" y="398"/>
      <point x="375" y="441"/>
      <point x="297" y="441" type="curve" smooth="yes"/>
      <point x="166" y="441"/>
      <point x="131" y="338"/>
      <point x="131" y="297" type="curve" smooth="yes"/>
      <point x="131" y="221"/>
      <point x="205" y="205"/>
    </contour>
  </outline>
</glyph>
<glyph name="t" format="2">
  <advance width="353"/>
  <unicode hex="0074"/>
  <outline>
    <contour>
      <point x="201" y="402" type="line"/>
      <point x="293" y="402" type="line" smooth="yes"/>
      <point x="312" y="402"/>
      <point x="322" y="402"/>
      <point x="322" y="420" type="curve" smooth="yes"/>
      <point x="322" y="431"/>
      <point x="316" y="431"/>
      <point x="296" y="431" type="curve" smooth="yes"/>
      <point x="208" y="431" type="line"/>
      <point x="220.321" y="479.618"/>
      <point x="232.642" y="528.236"/>
      <point x="245" y="577" type="curve" smooth="yes"/>
      <point x="249" y="591"/>
      <point x="249" y="593"/>
      <point x="249" y="600" type="curve" smooth="yes"/>
      <point x="249" y="616"/>
      <point x="236" y="625"/>
      <point x="223" y="625" type="curve" smooth="yes"/>
      <point x="215" y="625"/>
      <point x="192" y="622"/>
      <point x="184" y="590" type="curve" smooth="yes"/>
      <point x="171.013" y="537.053"/>
      <point x="158.026" y="484.106"/>
      <point x="145" y="431" type="curve"/>
      <point x="51" y="431" type="line" smooth="yes"/>
      <point x="31" y="431"/>
      <point x="22" y="431"/>
      <point x="22" y="412" type="curve" smooth="yes"/>
      <point x="22" y="402"/>
      <point x="29" y="402"/>
      <point x="48" y="402" type="curve" smooth="yes"/>
      <point x="137" y="402" type="line"/>
      <point x="115.02199999999999" y="314.08799999999997"/>
      <point x="93.044" y="226.176"/>
      <point x="71" y="138" type="curve" smooth="yes"/>
      <point x="63" y="103"/>
      <point x="60" y="93"/>
      <point x="60" y="80" type="curve" smooth="yes"/>
      <point x="60" y="33"/>
      <point x="93" y="-10"/>
      <point x="149" y="-10" type="curve" smooth="yes"/>
      <point x="250" y="-10"/>
      <point x="304" y="136"/>
      <point x="304" y="143" type="curve" smooth="yes"/>
      <point x="304" y="149"/>
      <point x="300" y="152"/>
      <point x="294" y="152" type="curve" smooth="yes"/>
      <point x="287" y="152"/>
      <point x="285" y="150"/>
      <point x="277" y="130" type="curve" smooth="yes"/>
      <point x="256" y="80"/>
      <point x="210" y="10"/>
      <point x="152" y="10" type="curve" smooth="yes"/>
      <point x="122" y="10"/>
      <point x="120" y="35"/>
      <point x="120" y="57" type="curve" smooth="yes"/>
      <point x="120" y="58"/>
      <point x="120" y="77"/>
      <point x="123" y="89" type="curve" smooth="yes"/>
    </contour>
  </outline>
</glyph>
<glyph name="u" format="2">
  <advance width="557"/>
  <unicode hex="0075"/>
  <outline>
    <contour>
      <point x="341" y="58" type="curve"/>
      <point x="354" y="2"/>
      <point x="402" y="-10"/>
      <point x="426" y="-10" type="curve" smooth="yes"/>
      <point x="458" y="-10"/>
      <point x="482" y="11"/>
      <point x="498" y="45" type="curve" smooth="yes"/>
      <point x="515" y="81"/>
      <point x="528" y="140"/>
      <point x="528" y="143" type="curve" smooth="yes"/>
      <point x="528" y="148"/>
      <point x="524" y="152"/>
      <point x="518" y="152" type="curve" smooth="yes"/>
      <point x="509" y="152"/>
      <point x="508" y="147"/>
      <point x="504" y="132" type="curve" smooth="yes"/>
      <point x="486" y="63"/>
      <point x="468" y="10"/>
      <point x="428" y="10" type="curve" smooth="yes"/>
      <point x="398" y="10"/>
      <point x="398" y="43"/>
      <point x="398" y="56" type="curve" smooth="yes"/>
      <point x="398" y="79"/>
      <point x="401" y="89"/>
      <point x="411" y="131" type="curve" smooth="yes"/>
      <point x="418" y="158"/>
      <point x="425" y="185"/>
      <point x="431" y="213" type="curve" smooth="yes"/>
      <point x="472" y="376" type="line" smooth="yes"/>
      <point x="479" y="401"/>
      <point x="479" y="403"/>
      <point x="479" y="406" type="curve" smooth="yes"/>
      <point x="479" y="421"/>
      <point x="467" y="431"/>
      <point x="452" y="431" type="curve" smooth="yes"/>
      <point x="423" y="431"/>
      <point x="416" y="406"/>
      <point x="410" y="381" type="curve" smooth="yes"/>
      <point x="400" y="342"/>
      <point x="346" y="127"/>
      <point x="339" y="92" type="curve"/>
      <point x="338" y="92"/>
      <point x="299" y="10"/>
      <point x="226" y="10" type="curve" smooth="yes"/>
      <point x="174" y="10"/>
      <point x="164" y="55"/>
      <point x="164" y="92" type="curve" smooth="yes"/>
      <point x="164" y="149"/>
      <point x="192" y="229"/>
      <point x="218" y="296" type="curve" smooth="yes"/>
      <point x="230" y="328"/>
      <point x="235" y="341"/>
      <point x="235" y="361" type="curve" smooth="yes"/>
      <point x="235" y="404"/>
      <point x="204" y="441"/>
      <point x="156" y="441" type="curve" smooth="yes"/>
      <point x="64" y="441"/>
      <point x="27" y="296"/>
      <point x="27" y="288" type="curve" smooth="yes"/>
      <point x="27" y="284"/>
      <point x="31" y="279"/>
      <point x="38" y="279" type="curve" smooth="yes"/>
      <point x="47" y="279"/>
      <point x="48" y="283"/>
      <point x="52" y="297" type="curve" smooth="yes"/>
      <point x="76" y="383"/>
      <point x="115" y="421"/>
      <point x="153" y="421" type="curve" smooth="yes"/>
      <point x="163" y="421"/>
      <point x="179" y="420"/>
      <point x="179" y="388" type="curve" smooth="yes"/>
      <point x="179" y="362"/>
      <point x="168" y="333"/>
      <point x="153" y="295" type="curve" smooth="yes"/>
      <point x="109" y="176"/>
      <point x="104" y="138"/>
      <point x="104" y="108" type="curve" smooth="yes"/>
      <point x="104" y="6"/>
      <point x="181" y="-10"/>
      <point x="222" y="-10" type="curve" smooth="yes"/>
      <point x="286" y="-10"/>
      <point x="321" y="34"/>
    </contour>
  </outline>
</glyph>
<glyph name="v" format="2">
  <advance width="473"/>
  <unicode hex="0076"/>
  <outline>
    <contour>
      <point x="457" y="374" type="curve" smooth="yes"/>
      <point x="457" y="437"/>
      <point x="425" y="441"/>
      <point x="417" y="441" type="curve" smooth="yes"/>
      <point x="393" y="441"/>
      <point x="371" y="417"/>
      <point x="371" y="397" type="curve" smooth="yes"/>
      <point x="371" y="385"/>
      <point x="378" y="378"/>
      <point x="382" y="374" type="curve"/>
      <point x="392" y="365"/>
      <point x="418" y="338"/>
      <point x="418" y="286" type="curve" smooth="yes"/>
      <point x="418" y="244"/>
      <point x="358" y="10"/>
      <point x="238" y="10" type="curve" smooth="yes"/>
      <point x="177" y="10"/>
      <point x="165" y="61"/>
      <point x="165" y="98" type="curve" smooth="yes"/>
      <point x="165" y="148"/>
      <point x="188" y="218"/>
      <point x="215" y="290" type="curve" smooth="yes"/>
      <point x="231" y="331"/>
      <point x="235" y="341"/>
      <point x="235" y="361" type="curve" smooth="yes"/>
      <point x="235" y="403"/>
      <point x="205" y="441"/>
      <point x="156" y="441" type="curve" smooth="yes"/>
      <point x="64" y="441"/>
      <point x="27" y="296"/>
      <point x="27" y="288" type="curve" smooth="yes"/>
      <point x="27" y="284"/>
      <point x="31" y="279"/>
      <point x="38" y="279" type="curve" smooth="yes"/>
      <point x="47" y="279"/>
      <point x="48" y="283"/>
      <point x="52" y="297" type="curve" smooth="yes"/>
      <point x="76" y="383"/>
      <point x="115" y="421"/>
      <point x="153" y="421" type="curve" smooth="yes"/>
      <point x="162" y="421"/>
      <point x="179" y="421"/>
      <point x="179" y="388" type="curve" smooth="yes"/>
      <point x="179" y="362"/>
      <point x="168" y="333"/>
      <point x="153" y="295" type="curve" smooth="yes"/>
      <point x="105" y="167"/>
      <point x="105" y="136"/>
      <point x="105" y="112" type="curve" smooth="yes"/>
      <point x="105" y="90"/>
      <point x="108" y="49"/>
      <point x="139" y="21" type="curve" smooth="yes"/>
      <point x="175" y="-10"/>
      <point x="225" y="-10"/>
      <point x="234" y="-10" type="curve" smooth="yes"/>
      <point x="400" y="-10"/>
      <point x="457" y="317"/>
    </contour>
  </outline>
</glyph>
<glyph name="w" format="2">
  <advance width="699"/>
  <unicode hex="0077"/>
  <outline>
    <contour>
      <point x="340" y="152" type="curve"/>
      <point x="336" y="135"/>
      <point x="336" y="124"/>
      <point x="336" y="102" type="curve" smooth="yes"/>
      <point x="336" y="78"/>
      <point x="304" y="40"/>
      <point x="303" y="38" type="curve"/>
      <point x="292" y="27"/>
      <point x="276" y="10"/>
      <point x="245" y="10" type="curve" smooth="yes"/>
      <point x="166" y="10"/>
      <point x="166" y="85"/>
      <point x="166" y="102" type="curve" smooth="yes"/>
      <point x="166" y="134"/>
      <point x="173" y="178"/>
      <point x="218" y="297" type="curve" smooth="yes"/>
      <point x="230" y="328"/>
      <point x="235" y="341"/>
      <point x="235" y="361" type="curve" smooth="yes"/>
      <point x="235" y="403"/>
      <point x="205" y="441"/>
      <point x="156" y="441" type="curve" smooth="yes"/>
      <point x="64" y="441"/>
      <point x="27" y="296"/>
      <point x="27" y="288" type="curve" smooth="yes"/>
      <point x="27" y="284"/>
      <point x="31" y="279"/>
      <point x="38" y="279" type="curve" smooth="yes"/>
      <point x="47" y="279"/>
      <point x="48" y="283"/>
      <point x="52" y="297" type="curve" smooth="yes"/>
      <point x="77" y="385"/>
      <point x="116" y="421"/>
      <point x="153" y="421" type="curve" smooth="yes"/>
      <point x="163" y="421"/>
      <point x="179" y="420"/>
      <point x="179" y="388" type="curve" smooth="yes"/>
      <point x="179" y="383"/>
      <point x="179" y="362"/>
      <point x="162" y="318" type="curve" smooth="yes"/>
      <point x="115" y="193"/>
      <point x="105" y="152"/>
      <point x="105" y="114" type="curve" smooth="yes"/>
      <point x="105" y="9"/>
      <point x="191" y="-10"/>
      <point x="242" y="-10" type="curve" smooth="yes"/>
      <point x="259" y="-10"/>
      <point x="304" y="-10"/>
      <point x="344" y="61" type="curve"/>
      <point x="366" y="1"/>
      <point x="428" y="-10"/>
      <point x="466" y="-10" type="curve" smooth="yes"/>
      <point x="542" y="-10"/>
      <point x="587" y="56"/>
      <point x="615" y="125" type="curve" smooth="yes"/>
      <point x="638" y="183"/>
      <point x="675" y="315"/>
      <point x="675" y="374" type="curve" smooth="yes"/>
      <point x="675" y="435"/>
      <point x="644" y="441"/>
      <point x="635" y="441" type="curve" smooth="yes"/>
      <point x="611" y="441"/>
      <point x="589" y="417"/>
      <point x="589" y="397" type="curve" smooth="yes"/>
      <point x="589" y="385"/>
      <point x="596" y="378"/>
      <point x="601" y="374" type="curve"/>
      <point x="610" y="365"/>
      <point x="636" y="338"/>
      <point x="636" y="286" type="curve" smooth="yes"/>
      <point x="636" y="252"/>
      <point x="608" y="158"/>
      <point x="587" y="111" type="curve" smooth="yes"/>
      <point x="559" y="50"/>
      <point x="522" y="10"/>
      <point x="470" y="10" type="curve" smooth="yes"/>
      <point x="414" y="10"/>
      <point x="396" y="52"/>
      <point x="396" y="98" type="curve" smooth="yes"/>
      <point x="396" y="127"/>
      <point x="405" y="162"/>
      <point x="409" y="179" type="curve" smooth="yes"/>
      <point x="451" y="347" type="line" smooth="yes"/>
      <point x="456" y="367"/>
      <point x="465" y="402"/>
      <point x="465" y="406" type="curve" smooth="yes"/>
      <point x="465" y="421"/>
      <point x="453" y="431"/>
      <point x="438" y="431" type="curve" smooth="yes"/>
      <point x="409" y="431"/>
      <point x="402" y="406"/>
      <point x="396" y="382" type="curve" smooth="yes"/>
      <point x="392.7857" y="369.46423"/>
      <point x="386.2652481632" y="343.49721816299996"/>
      <point x="378.76329283157446" y="313.2979300708134" type="curve" smooth="yes"/>
      <point x="362.9259353062" y="249.5442950003"/>
      <point x="342.71428000000003" y="166.92854"/>
    </contour>
  </outline>
</glyph>
<glyph name="x" format="2">
  <advance width="556"/>
  <unicode hex="0078"/>
  <outline>
    <contour>
      <point x="28" y="51" type="curve" smooth="yes"/>
      <point x="28" y="9"/>
      <point x="75" y="-10"/>
      <point x="118" y="-10" type="curve" smooth="yes"/>
      <point x="166" y="-10"/>
      <point x="200" y="28"/>
      <point x="221" y="69" type="curve"/>
      <point x="237" y="10"/>
      <point x="287" y="-10"/>
      <point x="324" y="-10" type="curve" smooth="yes"/>
      <point x="426" y="-10"/>
      <point x="480" y="121"/>
      <point x="480" y="143" type="curve" smooth="yes"/>
      <point x="480" y="148"/>
      <point x="476" y="152"/>
      <point x="470" y="152" type="curve" smooth="yes"/>
      <point x="461" y="152"/>
      <point x="460" y="147"/>
      <point x="457" y="139" type="curve"/>
      <point x="430" y="51"/>
      <point x="372" y="10"/>
      <point x="327" y="10" type="curve" smooth="yes"/>
      <point x="292" y="10"/>
      <point x="273" y="36"/>
      <point x="273" y="77" type="curve" smooth="yes"/>
      <point x="273" y="99"/>
      <point x="277" y="115"/>
      <point x="293" y="181" type="curve" smooth="yes"/>
      <point x="328" y="317" type="line" smooth="yes"/>
      <point x="343" y="377"/>
      <point x="377" y="421"/>
      <point x="423" y="421" type="curve" smooth="yes"/>
      <point x="425" y="421"/>
      <point x="453" y="421"/>
      <point x="474" y="408" type="curve"/>
      <point x="442" y="402"/>
      <point x="430" y="378"/>
      <point x="430" y="359" type="curve" smooth="yes"/>
      <point x="430" y="335"/>
      <point x="449" y="327"/>
      <point x="463" y="327" type="curve" smooth="yes"/>
      <point x="493" y="327"/>
      <point x="514" y="353"/>
      <point x="514" y="380" type="curve" smooth="yes"/>
      <point x="514" y="422"/>
      <point x="466" y="441"/>
      <point x="424" y="441" type="curve" smooth="yes"/>
      <point x="363" y="441"/>
      <point x="329" y="381"/>
      <point x="320" y="362" type="curve"/>
      <point x="297" y="437"/>
      <point x="235" y="441"/>
      <point x="217" y="441" type="curve" smooth="yes"/>
      <point x="115" y="441"/>
      <point x="61" y="310"/>
      <point x="61" y="288" type="curve" smooth="yes"/>
      <point x="61" y="284"/>
      <point x="65" y="279"/>
      <point x="72" y="279" type="curve" smooth="yes"/>
      <point x="80" y="279"/>
      <point x="82" y="285"/>
      <point x="84" y="289" type="curve"/>
      <point x="118" y="400"/>
      <point x="185" y="421"/>
      <point x="214" y="421" type="curve" smooth="yes"/>
      <point x="259" y="421"/>
      <point x="268" y="379"/>
      <point x="268" y="355" type="curve" smooth="yes"/>
      <point x="268" y="333"/>
      <point x="262" y="310"/>
      <point x="250" y="262" type="curve" smooth="yes"/>
      <point x="216" y="125" type="line" smooth="yes"/>
      <point x="201" y="65"/>
      <point x="172" y="10"/>
      <point x="119" y="10" type="curve" smooth="yes"/>
      <point x="114" y="10"/>
      <point x="89" y="10"/>
      <point x="68" y="23" type="curve"/>
      <point x="104" y="30"/>
      <point x="112" y="60"/>
      <point x="112" y="72" type="curve" smooth="yes"/>
      <point x="112" y="92"/>
      <point x="97" y="104"/>
      <point x="78" y="104" type="curve" smooth="yes"/>
      <point x="54" y="104"/>
      <point x="28" y="83"/>
    </contour>
  </outline>
</glyph>
<glyph name="y" format="2">
  <advance width="477"/>
  <unicode hex="0079"/>
  <outline>
    <contour>
      <point x="323" y="35" type="line"/>
      <point x="308" y="-24"/>
      <point x="298" y="-63"/>
      <point x="263" y="-112" type="curve" smooth="yes"/>
      <point x="236" y="-150"/>
      <point x="197" y="-184"/>
      <point x="148" y="-184" type="curve" smooth="yes"/>
      <point x="136" y="-184"/>
      <point x="88" y="-182"/>
      <point x="73" y="-136" type="curve"/>
      <point x="109" y="-142"/>
      <point x="133" y="-114"/>
      <point x="133" y="-88" type="curve" smooth="yes"/>
      <point x="133" y="-65"/>
      <point x="114" y="-57"/>
      <point x="99" y="-57" type="curve" smooth="yes"/>
      <point x="83" y="-57"/>
      <point x="48" y="-69"/>
      <point x="48" y="-118" type="curve" smooth="yes"/>
      <point x="48" y="-169"/>
      <point x="91" y="-204"/>
      <point x="148" y="-204" type="curve" smooth="yes"/>
      <point x="248" y="-204"/>
      <point x="349" y="-112"/>
      <point x="377" y="-1" type="curve" smooth="yes"/>
      <point x="475" y="389" type="line" smooth="yes"/>
      <point x="476" y="394"/>
      <point x="478" y="400"/>
      <point x="478" y="406" type="curve" smooth="yes"/>
      <point x="478" y="421"/>
      <point x="466" y="431"/>
      <point x="451" y="431" type="curve" smooth="yes"/>
      <point x="442" y="431"/>
      <point x="421" y="427"/>
      <point x="413" y="397" type="curve" smooth="yes"/>
      <point x="408.005" y="377.686"/>
      <point x="403.01" y="358.372"/>
      <point x="398" y="339" type="curve"/>
      <point x="378.353" y="260.412"/>
      <point x="358.706" y="181.82399999999998"/>
      <point x="339" y="103" type="curve" smooth="yes"/>
      <point x="334" y="85"/>
      <point x="334" y="83"/>
      <point x="326" y="72" type="curve" smooth="yes"/>
      <point x="306" y="44"/>
      <point x="273" y="10"/>
      <point x="225" y="10" type="curve" smooth="yes"/>
      <point x="169" y="10"/>
      <point x="164" y="65"/>
      <point x="164" y="92" type="curve" smooth="yes"/>
      <point x="164" y="149"/>
      <point x="191" y="226"/>
      <point x="218" y="298" type="curve" smooth="yes"/>
      <point x="229" y="327"/>
      <point x="235" y="341"/>
      <point x="235" y="361" type="curve" smooth="yes"/>
      <point x="235" y="403"/>
      <point x="205" y="441"/>
      <point x="156" y="441" type="curve" smooth="yes"/>
      <point x="64" y="441"/>
      <point x="27" y="296"/>
      <point x="27" y="288" type="curve" smooth="yes"/>
      <point x="27" y="284"/>
      <point x="31" y="279"/>
      <point x="38" y="279" type="curve" smooth="yes"/>
      <point x="47" y="279"/>
      <point x="48" y="283"/>
      <point x="52" y="297" type="curve" smooth="yes"/>
      <point x="76" y="381"/>
      <point x="114" y="421"/>
      <point x="153" y="421" type="curve" smooth="yes"/>
      <point x="162" y="421"/>
      <point x="179" y="421"/>
      <point x="179" y="388" type="curve" smooth="yes"/>
      <point x="179" y="362"/>
      <point x="168" y="333"/>
      <point x="153" y="295" type="curve" smooth="yes"/>
      <point x="104" y="164"/>
      <point x="104" y="131"/>
      <point x="104" y="107" type="curve" smooth="yes"/>
      <point x="104" y="12"/>
      <point x="172" y="-10"/>
      <point x="222" y="-10" type="curve" smooth="yes"/>
      <point x="251" y="-10"/>
      <point x="287" y="-1"/>
      <point x="322" y="36" type="curve"/>
    </contour>
  </outline>
</glyph>
<glyph name="mu" format="2">
  <advance width="589"/>
  <unicode hex="00B5"/>
  <outline>
    <contour>
      <point x="144" y="22" type="line"/>
      <point x="169" y="-1"/>
      <point x="206" y="-10"/>
      <point x="240" y="-10" type="curve" smooth="yes"/>
      <point x="304" y="-10"/>
      <point x="348" y="33"/>
      <point x="371" y="64" type="curve"/>
      <point x="381" y="11"/>
      <point x="423" y="-10"/>
      <point x="458" y="-10" type="curve" smooth="yes"/>
      <point x="488" y="-10"/>
      <point x="512" y="8"/>
      <point x="530" y="44" type="curve" smooth="yes"/>
      <point x="546" y="78"/>
      <point x="560" y="139"/>
      <point x="560" y="143" type="curve" smooth="yes"/>
      <point x="560" y="148"/>
      <point x="556" y="152"/>
      <point x="550" y="152" type="curve" smooth="yes"/>
      <point x="541" y="152"/>
      <point x="540" y="147"/>
      <point x="536" y="132" type="curve" smooth="yes"/>
      <point x="521" y="73"/>
      <point x="502" y="10"/>
      <point x="461" y="10" type="curve" smooth="yes"/>
      <point x="432" y="10"/>
      <point x="430" y="36"/>
      <point x="430" y="56" type="curve" smooth="yes"/>
      <point x="430" y="79"/>
      <point x="439" y="115"/>
      <point x="446" y="145" type="curve" smooth="yes"/>
      <point x="474" y="253" type="line" smooth="yes"/>
      <point x="478" y="272"/>
      <point x="489" y="317"/>
      <point x="494" y="335" type="curve" smooth="yes"/>
      <point x="500" y="359"/>
      <point x="511" y="402"/>
      <point x="511" y="406" type="curve" smooth="yes"/>
      <point x="511" y="421"/>
      <point x="499" y="431"/>
      <point x="484" y="431" type="curve" smooth="yes"/>
      <point x="475" y="431"/>
      <point x="454" y="427"/>
      <point x="446" y="397" type="curve" smooth="yes"/>
      <point x="376" y="119" type="line" smooth="yes"/>
      <point x="371" y="99"/>
      <point x="371" y="97"/>
      <point x="358" y="81" type="curve"/>
      <point x="346" y="64"/>
      <point x="307" y="10"/>
      <point x="244" y="10" type="curve" smooth="yes"/>
      <point x="188" y="10"/>
      <point x="170" y="51"/>
      <point x="170" y="98" type="curve" smooth="yes"/>
      <point x="170" y="127"/>
      <point x="179" y="162"/>
      <point x="183" y="179" type="curve" smooth="yes"/>
      <point x="228" y="359" type="line" smooth="yes"/>
      <point x="233" y="378"/>
      <point x="241" y="410"/>
      <point x="241" y="416" type="curve" smooth="yes"/>
      <point x="241" y="432"/>
      <point x="228" y="441"/>
      <point x="215" y="441" type="curve" smooth="yes"/>
      <point x="206" y="441"/>
      <point x="184" y="438"/>
      <point x="176" y="406" type="curve" smooth="yes"/>
      <point x="31" y="-173" type="line" smooth="yes"/>
      <point x="30" y="-178"/>
      <point x="28" y="-184"/>
      <point x="28" y="-190" type="curve" smooth="yes"/>
      <point x="28" y="-205"/>
      <point x="40" y="-215"/>
      <point x="55" y="-215" type="curve" smooth="yes"/>
      <point x="84" y="-215"/>
      <point x="90" y="-192"/>
      <point x="97" y="-164" type="curve" smooth="yes"/>
    </contour>
  </outline>
</glyph>
<glyph name="dotlessi" format="2">
  <advance width="312"/>
  <unicode hex="0131"/>
  <outline>
    <contour>
      <point x="283" y="143" type="curve" smooth="yes"/>
      <point x="283" y="148"/>
      <point x="279" y="152"/>
      <point x="273" y="152" type="curve" smooth="yes"/>
      <point x="264" y="152"/>
      <point x="263" y="149"/>
      <point x="258" y="132" type="curve" smooth="yes"/>
      <point x="232" y="41"/>
      <point x="191" y="10"/>
      <point x="158" y="10" type="curve" smooth="yes"/>
      <point x="146" y="10"/>
      <point x="132" y="13"/>
      <point x="132" y="43" type="curve" smooth="yes"/>
      <point x="132" y="70"/>
      <point x="144" y="100"/>
      <point x="155" y="130" type="curve" smooth="yes"/>
      <point x="225" y="316" type="line" smooth="yes"/>
      <point x="228" y="324"/>
      <point x="235" y="342"/>
      <point x="235" y="361" type="curve" smooth="yes"/>
      <point x="235" y="403"/>
      <point x="205" y="441"/>
      <point x="156" y="441" type="curve" smooth="yes"/>
      <point x="64" y="441"/>
      <point x="27" y="296"/>
      <point x="27" y="288" type="curve" smooth="yes"/>
      <point x="27" y="284"/>
      <point x="31" y="279"/>
      <point x="38" y="279" type="curve" smooth="yes"/>
      <point x="47" y="279"/>
      <point x="48" y="283"/>
      <point x="52" y="297" type="curve" smooth="yes"/>
      <point x="76" y="381"/>
      <point x="114" y="421"/>
      <point x="153" y="421" type="curve" smooth="yes"/>
      <point x="162" y="421"/>
      <point x="179" y="420"/>
      <point x="179" y="388" type="curve" smooth="yes"/>
      <point x="179" y="362"/>
      <point x="166" y="329"/>
      <point x="158" y="307" type="curve" smooth="yes"/>
      <point x="88" y="121" type="line" smooth="yes"/>
      <point x="82" y="105"/>
      <point x="76" y="89"/>
      <point x="76" y="71" type="curve" smooth="yes"/>
      <point x="76" y="26"/>
      <point x="107" y="-10"/>
      <point x="155" y="-10" type="curve" smooth="yes"/>
      <point x="247" y="-10"/>
      <point x="283" y="136"/>
    </contour>
  </outline>
</glyph>
<glyph name="Gamma" format="2">
  <advance width="606"/>
  <unicode hex="0393"/>
  <outline>
    <contour>
      <point x="369" y="614" type="line" smooth="yes"/>
      <point x="378" y="649"/>
      <point x="380" y="652"/>
      <point x="421" y="652" type="curve" smooth="yes"/>
      <point x="538" y="652" type="line" smooth="yes"/>
      <point x="645" y="652"/>
      <point x="672" y="624"/>
      <point x="672" y="549" type="curve" smooth="yes"/>
      <point x="672" y="523"/>
      <point x="671" y="512"/>
      <point x="668" y="490" type="curve"/>
      <point x="667" y="486"/>
      <point x="665" y="473"/>
      <point x="665" y="469" type="curve" smooth="yes"/>
      <point x="665" y="461"/>
      <point x="670" y="458"/>
      <point x="676" y="458" type="curve" smooth="yes"/>
      <point x="683" y="458"/>
      <point x="687" y="462"/>
      <point x="689" y="480" type="curve" smooth="yes"/>
      <point x="710" y="655" type="line"/>
      <point x="710" y="658"/>
      <point x="712" y="668"/>
      <point x="712" y="670" type="curve" smooth="yes"/>
      <point x="712" y="681"/>
      <point x="703" y="681"/>
      <point x="685" y="681" type="curve" smooth="yes"/>
      <point x="238" y="681" type="line" smooth="yes"/>
      <point x="219" y="681"/>
      <point x="209" y="681"/>
      <point x="209" y="663" type="curve" smooth="yes"/>
      <point x="209" y="652"/>
      <point x="216" y="652"/>
      <point x="233" y="652" type="curve" smooth="yes"/>
      <point x="295" y="652"/>
      <point x="295" y="645"/>
      <point x="295" y="634" type="curve" smooth="yes"/>
      <point x="295" y="629"/>
      <point x="294" y="625"/>
      <point x="291" y="614" type="curve" smooth="yes"/>
      <point x="156" y="74" type="line" smooth="yes"/>
      <point x="147" y="39"/>
      <point x="145" y="29"/>
      <point x="75" y="29" type="curve" smooth="yes"/>
      <point x="56" y="29"/>
      <point x="46" y="29"/>
      <point x="46" y="11" type="curve" smooth="yes"/>
      <point x="46" y="0"/>
      <point x="55" y="0"/>
      <point x="61" y="0" type="curve" smooth="yes"/>
      <point x="80" y="0"/>
      <point x="100" y="2"/>
      <point x="119" y="2" type="curve" smooth="yes"/>
      <point x="249" y="2" type="line" smooth="yes"/>
      <point x="271" y="2"/>
      <point x="295" y="0"/>
      <point x="317" y="0" type="curve" smooth="yes"/>
      <point x="326" y="0"/>
      <point x="338" y="0"/>
      <point x="338" y="18" type="curve" smooth="yes"/>
      <point x="338" y="29"/>
      <point x="332" y="29"/>
      <point x="310" y="29" type="curve" smooth="yes"/>
      <point x="290" y="29"/>
      <point x="279" y="29"/>
      <point x="257" y="31" type="curve"/>
      <point x="236" y="34"/>
      <point x="229" y="37"/>
      <point x="229" y="50" type="curve" smooth="yes"/>
      <point x="229" y="55"/>
      <point x="230" y="59"/>
      <point x="233" y="70" type="curve" smooth="yes"/>
    </contour>
  </outline>
</glyph>
<glyph name="Theta" format="2">
  <advance width="748"/>
  <unicode hex="0398"/>
  <outline>
    <contour>
      <point x="726" y="438" type="curve" smooth="yes"/>
      <point x="726" y="603"/>
      <point x="618" y="704"/>
      <point x="478" y="704" type="curve" smooth="yes"/>
      <point x="264" y="704"/>
      <point x="48" y="474"/>
      <point x="48" y="243" type="curve" smooth="yes"/>
      <point x="48" y="86"/>
      <point x="152" y="-21"/>
      <point x="297" y="-21" type="curve" smooth="yes"/>
      <point x="507" y="-21"/>
      <point x="726" y="198"/>
    </contour>
    <contour>
      <point x="303" y="0" type="curve" smooth="yes"/>
      <point x="215" y="0"/>
      <point x="127" y="63"/>
      <point x="127" y="215" type="curve" smooth="yes"/>
      <point x="127" y="306"/>
      <point x="163" y="442"/>
      <point x="232" y="537" type="curve" smooth="yes"/>
      <point x="307" y="639"/>
      <point x="398" y="684"/>
      <point x="473" y="684" type="curve" smooth="yes"/>
      <point x="559" y="684"/>
      <point x="648" y="622"/>
      <point x="648" y="467" type="curve" smooth="yes"/>
      <point x="648" y="386"/>
      <point x="620" y="242"/>
      <point x="534" y="132" type="curve" smooth="yes"/>
      <point x="466" y="46"/>
      <point x="378" y="0"/>
    </contour>
    <contour>
      <point x="546" y="309" type="line"/>
      <point x="545" y="305"/>
      <point x="541" y="288"/>
      <point x="541" y="285" type="curve" smooth="yes"/>
      <point x="541" y="280"/>
      <point x="545" y="275"/>
      <point x="551" y="275" type="curve" smooth="yes"/>
      <point x="560" y="275"/>
      <point x="561" y="279"/>
      <point x="565" y="295" type="curve" smooth="yes"/>
      <point x="568" y="307"/>
      <point x="590" y="395"/>
      <point x="590" y="399" type="curve" smooth="yes"/>
      <point x="590" y="404"/>
      <point x="586" y="409"/>
      <point x="580" y="409" type="curve" smooth="yes"/>
      <point x="571" y="409"/>
      <point x="570" y="404"/>
      <point x="568" y="395" type="curve"/>
      <point x="563" y="378"/>
      <point x="563" y="377"/>
      <point x="563" y="375" type="curve"/>
      <point x="230" y="375" type="line"/>
      <point x="231" y="379"/>
      <point x="235" y="396"/>
      <point x="235" y="399" type="curve" smooth="yes"/>
      <point x="235" y="404"/>
      <point x="231" y="409"/>
      <point x="225" y="409" type="curve" smooth="yes"/>
      <point x="216" y="409"/>
      <point x="215" y="405"/>
      <point x="211" y="389" type="curve" smooth="yes"/>
      <point x="208" y="377"/>
      <point x="186" y="289"/>
      <point x="186" y="285" type="curve" smooth="yes"/>
      <point x="186" y="280"/>
      <point x="190" y="275"/>
      <point x="196" y="275" type="curve" smooth="yes"/>
      <point x="205" y="275"/>
      <point x="206" y="280"/>
      <point x="208" y="289" type="curve"/>
      <point x="213" y="306"/>
      <point x="213" y="307"/>
      <point x="213" y="309" type="curve"/>
    </contour>
  </outline>
</glyph>
<glyph name="Lambda" format="2">
  <advance width="679"/>
  <unicode hex="039B"/>
  <outline>
    <contour>
      <point x="157" y="109" type="line" smooth="yes"/>
      <point x="114" y="34"/>
      <point x="73" y="31"/>
      <point x="48" y="29" type="curve"/>
      <point x="44" y="29"/>
      <point x="34" y="28"/>
      <point x="34" y="10" type="curve" smooth="yes"/>
      <point x="34" y="7"/>
      <point x="36" y="0"/>
      <point x="45" y="0" type="curve" smooth="yes"/>
      <point x="46" y="0"/>
      <point x="59" y="2"/>
      <point x="120" y="2" type="curve" smooth="yes"/>
      <point x="148" y="2"/>
      <point x="179" y="0"/>
      <point x="206" y="0" type="curve" smooth="yes"/>
      <point x="212" y="0"/>
      <point x="224" y="0"/>
      <point x="224" y="18" type="curve" smooth="yes"/>
      <point x="224" y="28"/>
      <point x="217" y="29"/>
      <point x="211" y="29" type="curve"/>
      <point x="189" y="31"/>
      <point x="167" y="38"/>
      <point x="167" y="64" type="curve" smooth="yes"/>
      <point x="167" y="78"/>
      <point x="173" y="89"/>
      <point x="182" y="104" type="curve" smooth="yes"/>
      <point x="461" y="589" type="line"/>
      <point x="499" y="78" type="line" smooth="yes"/>
      <point x="501" y="56"/>
      <point x="503" y="30"/>
      <point x="431" y="29" type="curve"/>
      <point x="420" y="29"/>
      <point x="410" y="29"/>
      <point x="410" y="10" type="curve" smooth="yes"/>
      <point x="410" y="0"/>
      <point x="421" y="0"/>
      <point x="424" y="0" type="curve" smooth="yes"/>
      <point x="460" y="0"/>
      <point x="498" y="2"/>
      <point x="534" y="2" type="curve" smooth="yes"/>
      <point x="586" y="2" type="line" smooth="yes"/>
      <point x="602" y="2"/>
      <point x="620" y="0"/>
      <point x="635" y="0" type="curve" smooth="yes"/>
      <point x="641" y="0"/>
      <point x="653" y="0"/>
      <point x="653" y="19" type="curve" smooth="yes"/>
      <point x="653" y="29"/>
      <point x="645" y="29"/>
      <point x="631" y="29" type="curve" smooth="yes"/>
      <point x="584" y="29"/>
      <point x="582" y="37"/>
      <point x="580" y="66" type="curve" smooth="yes"/>
      <point x="534" y="691" type="line" smooth="yes"/>
      <point x="533" y="708"/>
      <point x="532" y="714"/>
      <point x="518" y="714" type="curve" smooth="yes"/>
      <point x="506" y="714"/>
      <point x="502" y="712"/>
      <point x="493" y="696" type="curve" smooth="yes"/>
    </contour>
  </outline>
</glyph>
<glyph name="Xi" format="2">
  <advance width="728"/>
  <unicode hex="039E"/>
  <outline>
    <contour>
      <point x="765" y="668" type="line"/>
      <point x="765" y="678"/>
      <point x="758" y="678"/>
      <point x="739" y="678" type="curve" smooth="yes"/>
      <point x="248" y="678" type="line" smooth="yes"/>
      <point x="225" y="678"/>
      <point x="224" y="677"/>
      <point x="218" y="659" type="curve" smooth="yes"/>
      <point x="185" y="556" type="line" smooth="yes"/>
      <point x="184" y="553"/>
      <point x="182" y="545"/>
      <point x="182" y="541" type="curve" smooth="yes"/>
      <point x="182" y="536"/>
      <point x="186" y="531"/>
      <point x="192" y="531" type="curve" smooth="yes"/>
      <point x="201" y="531"/>
      <point x="202" y="535"/>
      <point x="206" y="550" type="curve"/>
      <point x="209" y="559"/>
      <point x="223" y="600"/>
      <point x="231" y="610" type="curve"/>
      <point x="239" y="617"/>
      <point x="299" y="617"/>
      <point x="308" y="617" type="curve" smooth="yes"/>
      <point x="657" y="617" type="line" smooth="yes"/>
      <point x="677" y="617"/>
      <point x="700" y="617"/>
      <point x="717" y="614" type="curve"/>
      <point x="725" y="613"/>
      <point x="728" y="613"/>
      <point x="728" y="603" type="curve" smooth="yes"/>
      <point x="728" y="585"/>
      <point x="725" y="574"/>
      <point x="722" y="559" type="curve"/>
      <point x="722" y="555"/>
      <point x="720" y="545"/>
      <point x="720" y="541" type="curve" smooth="yes"/>
      <point x="720" y="536"/>
      <point x="724" y="531"/>
      <point x="730" y="531" type="curve" smooth="yes"/>
      <point x="739" y="531"/>
      <point x="740" y="534"/>
      <point x="743" y="552" type="curve" smooth="yes"/>
    </contour>
    <contour>
      <point x="163" y="61" type="line" smooth="yes"/>
      <point x="141" y="61"/>
      <point x="112" y="62"/>
      <point x="90" y="65" type="curve"/>
      <point x="90" y="86"/>
      <point x="90" y="94"/>
      <point x="97" y="133" type="curve"/>
      <point x="100" y="145"/>
      <point x="100" y="147"/>
      <point x="100" y="148" type="curve" smooth="yes"/>
      <point x="100" y="155"/>
      <point x="95" y="158"/>
      <point x="89" y="158" type="curve" smooth="yes"/>
      <point x="80" y="158"/>
      <point x="79" y="153"/>
      <point x="76" y="136" type="curve"/>
      <point x="72" y="120"/>
      <point x="52" y="18"/>
      <point x="52" y="10" type="curve" smooth="yes"/>
      <point x="52" y="0"/>
      <point x="61" y="0"/>
      <point x="78" y="0" type="curve" smooth="yes"/>
      <point x="579" y="0" type="line" smooth="yes"/>
      <point x="602" y="0"/>
      <point x="603" y="1"/>
      <point x="607" y="15" type="curve" smooth="yes"/>
      <point x="613" y="33"/>
      <point x="648" y="139"/>
      <point x="648" y="148" type="curve" smooth="yes"/>
      <point x="648" y="155"/>
      <point x="643" y="158"/>
      <point x="637" y="158" type="curve" smooth="yes"/>
      <point x="629" y="158"/>
      <point x="627" y="152"/>
      <point x="623" y="138" type="curve" smooth="yes"/>
      <point x="615" y="114"/>
      <point x="604" y="83"/>
      <point x="596" y="70" type="curve"/>
      <point x="589" y="61"/>
      <point x="534" y="61"/>
      <point x="515" y="61" type="curve" smooth="yes"/>
    </contour>
    <contour>
      <point x="208" y="285" type="line"/>
      <point x="208" y="278"/>
      <point x="212" y="275"/>
      <point x="218" y="275" type="curve" smooth="yes"/>
      <point x="227" y="275"/>
      <point x="228" y="279"/>
      <point x="232" y="295" type="curve" smooth="yes"/>
      <point x="239" y="322" type="line"/>
      <point x="574" y="322" type="line"/>
      <point x="571" y="310"/>
      <point x="566" y="289"/>
      <point x="566" y="285" type="curve" smooth="yes"/>
      <point x="566" y="278"/>
      <point x="570" y="275"/>
      <point x="576" y="275" type="curve" smooth="yes"/>
      <point x="585" y="275"/>
      <point x="586" y="279"/>
      <point x="590" y="295" type="curve" smooth="yes"/>
      <point x="618" y="405" type="line" smooth="yes"/>
      <point x="619" y="409"/>
      <point x="621" y="415"/>
      <point x="621" y="420" type="curve" smooth="yes"/>
      <point x="621" y="427"/>
      <point x="616" y="430"/>
      <point x="610" y="430" type="curve" smooth="yes"/>
      <point x="601" y="430"/>
      <point x="600" y="426"/>
      <point x="596" y="410" type="curve" smooth="yes"/>
      <point x="590" y="383" type="line"/>
      <point x="254" y="383" type="line"/>
      <point x="257" y="394"/>
      <point x="263" y="417"/>
      <point x="263" y="420" type="curve" smooth="yes"/>
      <point x="263" y="427"/>
      <point x="258" y="430"/>
      <point x="252" y="430" type="curve" smooth="yes"/>
      <point x="243" y="430"/>
      <point x="242" y="425"/>
      <point x="238" y="409" type="curve" smooth="yes"/>
    </contour>
  </outline>
</glyph>
<glyph name="Pi" format="2">
  <advance width="811"/>
  <unicode hex="03A0"/>
  <outline>
    <contour>
      <point x="747" y="606" type="line" smooth="yes"/>
      <point x="756" y="642"/>
      <point x="758" y="652"/>
      <point x="827" y="652" type="curve" smooth="yes"/>
      <point x="850" y="652"/>
      <point x="857" y="652"/>
      <point x="857" y="671" type="curve" smooth="yes"/>
      <point x="857" y="681"/>
      <point x="848" y="681"/>
      <point x="831" y="681" type="curve" smooth="yes"/>
      <point x="237" y="681" type="line" smooth="yes"/>
      <point x="217" y="681"/>
      <point x="209" y="681"/>
      <point x="209" y="662" type="curve" smooth="yes"/>
      <point x="209" y="652"/>
      <point x="218" y="652"/>
      <point x="233" y="652" type="curve" smooth="yes"/>
      <point x="293" y="652"/>
      <point x="295" y="645"/>
      <point x="295" y="634" type="curve" smooth="yes"/>
      <point x="295" y="628"/>
      <point x="292" y="618"/>
      <point x="292" y="616" type="curve"/>
      <point x="156" y="74" type="line" smooth="yes"/>
      <point x="147" y="39"/>
      <point x="145" y="29"/>
      <point x="76" y="29" type="curve" smooth="yes"/>
      <point x="53" y="29"/>
      <point x="46" y="29"/>
      <point x="46" y="10" type="curve" smooth="yes"/>
      <point x="46" y="0"/>
      <point x="57" y="0"/>
      <point x="60" y="0" type="curve" smooth="yes"/>
      <point x="78" y="0"/>
      <point x="99" y="2"/>
      <point x="118" y="2" type="curve" smooth="yes"/>
      <point x="236" y="2" type="line" smooth="yes"/>
      <point x="255" y="2"/>
      <point x="276" y="0"/>
      <point x="295" y="0" type="curve" smooth="yes"/>
      <point x="303" y="0"/>
      <point x="314" y="0"/>
      <point x="314" y="19" type="curve" smooth="yes"/>
      <point x="314" y="29"/>
      <point x="305" y="29"/>
      <point x="290" y="29" type="curve" smooth="yes"/>
      <point x="229" y="29"/>
      <point x="229" y="37"/>
      <point x="229" y="47" type="curve" smooth="yes"/>
      <point x="229" y="48"/>
      <point x="229" y="55"/>
      <point x="231" y="63" type="curve" smooth="yes"/>
      <point x="378" y="652" type="line"/>
      <point x="681" y="652" type="line"/>
      <point x="536" y="74" type="line" smooth="yes"/>
      <point x="527" y="39"/>
      <point x="525" y="29"/>
      <point x="456" y="29" type="curve" smooth="yes"/>
      <point x="433" y="29"/>
      <point x="426" y="29"/>
      <point x="426" y="10" type="curve" smooth="yes"/>
      <point x="426" y="0"/>
      <point x="437" y="0"/>
      <point x="440" y="0" type="curve" smooth="yes"/>
      <point x="458" y="0"/>
      <point x="479" y="2"/>
      <point x="498" y="2" type="curve" smooth="yes"/>
      <point x="616" y="2" type="line" smooth="yes"/>
      <point x="635" y="2"/>
      <point x="656" y="0"/>
      <point x="675" y="0" type="curve" smooth="yes"/>
      <point x="683" y="0"/>
      <point x="694" y="0"/>
      <point x="694" y="19" type="curve" smooth="yes"/>
      <point x="694" y="29"/>
      <point x="685" y="29"/>
      <point x="670" y="29" type="curve" smooth="yes"/>
      <point x="609" y="29"/>
      <point x="609" y="37"/>
      <point x="609" y="47" type="curve" smooth="yes"/>
      <point x="609" y="48"/>
      <point x="609" y="55"/>
      <point x="611" y="63" type="curve" smooth="yes"/>
    </contour>
  </outline>
</glyph>
<glyph name="Sigma" format="2">
  <advance width="765"/>
  <unicode hex="03A3"/>
  <outline>
    <contour>
      <point x="435" y="328" type="line" smooth="yes"/>
      <point x="443" y="336"/>
      <point x="445" y="337"/>
      <point x="445" y="342" type="curve" smooth="yes"/>
      <point x="445" y="343"/>
      <point x="441" y="353"/>
      <point x="440" y="355" type="curve"/>
      <point x="314" y="654" type="line"/>
      <point x="559" y="654" type="line" smooth="yes"/>
      <point x="705" y="654"/>
      <point x="752" y="631"/>
      <point x="752" y="527" type="curve" smooth="yes"/>
      <point x="752" y="509"/>
      <point x="748" y="486"/>
      <point x="748" y="470" type="curve" smooth="yes"/>
      <point x="748" y="466"/>
      <point x="751" y="460"/>
      <point x="758" y="460" type="curve" smooth="yes"/>
      <point x="768" y="460"/>
      <point x="769" y="465"/>
      <point x="771" y="484" type="curve" smooth="yes"/>
      <point x="794" y="671" type="line"/>
      <point x="794" y="683"/>
      <point x="788" y="683"/>
      <point x="768" y="683" type="curve" smooth="yes"/>
      <point x="249" y="683" type="line" smooth="yes"/>
      <point x="229" y="683"/>
      <point x="220" y="683"/>
      <point x="220" y="662" type="curve"/>
      <point x="372" y="304" type="line"/>
      <point x="67" y="23" type="line" smooth="yes"/>
      <point x="60" y="16"/>
      <point x="57" y="14"/>
      <point x="57" y="10" type="curve" smooth="yes"/>
      <point x="57" y="0"/>
      <point x="65" y="0"/>
      <point x="83" y="0" type="curve" smooth="yes"/>
      <point x="602" y="0" type="line" smooth="yes"/>
      <point x="625" y="0"/>
      <point x="626" y="1"/>
      <point x="632" y="17" type="curve" smooth="yes"/>
      <point x="703" y="209" type="line" smooth="yes"/>
      <point x="707" y="219"/>
      <point x="707" y="221"/>
      <point x="707" y="222" type="curve" smooth="yes"/>
      <point x="707" y="227"/>
      <point x="703" y="232"/>
      <point x="697" y="232" type="curve" smooth="yes"/>
      <point x="689" y="232"/>
      <point x="687" y="227"/>
      <point x="683" y="218" type="curve" smooth="yes"/>
      <point x="624" y="70"/>
      <point x="569" y="38"/>
      <point x="395" y="38" type="curve" smooth="yes"/>
      <point x="121" y="38" type="line"/>
    </contour>
  </outline>
</glyph>
<glyph name="Upsilon" format="2">
  <advance width="571"/>
  <unicode hex="03A5"/>
  <outline>
    <contour>
      <point x="198" y="81" type="line" smooth="yes"/>
      <point x="193" y="62"/>
      <point x="188" y="41"/>
      <point x="172" y="36" type="curve" smooth="yes"/>
      <point x="151" y="29"/>
      <point x="113" y="29"/>
      <point x="85" y="29" type="curve" smooth="yes"/>
      <point x="72" y="29"/>
      <point x="62" y="29"/>
      <point x="62" y="10" type="curve" smooth="yes"/>
      <point x="62" y="0"/>
      <point x="71" y="0"/>
      <point x="78" y="0" type="curve" smooth="yes"/>
      <point x="100" y="0"/>
      <point x="124" y="2"/>
      <point x="146" y="2" type="curve" smooth="yes"/>
      <point x="286" y="2" type="line" smooth="yes"/>
      <point x="309" y="2"/>
      <point x="334" y="0"/>
      <point x="357" y="0" type="curve" smooth="yes"/>
      <point x="366" y="0"/>
      <point x="378" y="0"/>
      <point x="378" y="18" type="curve" smooth="yes"/>
      <point x="378" y="29"/>
      <point x="372" y="29"/>
      <point x="350" y="29" type="curve" smooth="yes"/>
      <point x="271" y="29"/>
      <point x="269" y="36"/>
      <point x="269" y="51" type="curve" smooth="yes"/>
      <point x="269" y="55"/>
      <point x="270" y="60"/>
      <point x="271" y="64" type="curve" smooth="yes"/>
      <point x="275" y="79"/>
      <point x="330" y="301"/>
      <point x="340" y="339" type="curve" smooth="yes"/>
      <point x="382" y="507"/>
      <point x="462" y="638"/>
      <point x="575" y="638" type="curve" smooth="yes"/>
      <point x="619" y="638"/>
      <point x="655" y="612"/>
      <point x="655" y="567" type="curve" smooth="yes"/>
      <point x="655" y="552"/>
      <point x="653" y="549"/>
      <point x="653" y="545" type="curve" smooth="yes"/>
      <point x="653" y="537"/>
      <point x="661" y="537"/>
      <point x="664" y="537" type="curve" smooth="yes"/>
      <point x="678" y="537"/>
      <point x="679" y="545"/>
      <point x="682" y="558" type="curve" smooth="yes"/>
      <point x="685" y="572"/>
      <point x="686" y="578"/>
      <point x="686" y="594" type="curve" smooth="yes"/>
      <point x="686" y="640"/>
      <point x="665" y="704"/>
      <point x="591" y="704" type="curve" smooth="yes"/>
      <point x="452" y="704"/>
      <point x="367" y="547"/>
      <point x="330" y="455" type="curve"/>
      <point x="332" y="481"/>
      <point x="333" y="491"/>
      <point x="333" y="511" type="curve" smooth="yes"/>
      <point x="333" y="608"/>
      <point x="303" y="704"/>
      <point x="194" y="704" type="curve" smooth="yes"/>
      <point x="84" y="704"/>
      <point x="27" y="568"/>
      <point x="27" y="545" type="curve" smooth="yes"/>
      <point x="27" y="537"/>
      <point x="35" y="537"/>
      <point x="38" y="537" type="curve" smooth="yes"/>
      <point x="50" y="537"/>
      <point x="52" y="542"/>
      <point x="56" y="553" type="curve" smooth="yes"/>
      <point x="74" y="606"/>
      <point x="128" y="638"/>
      <point x="177" y="638" type="curve" smooth="yes"/>
      <point x="284" y="638"/>
      <point x="284" y="521"/>
      <point x="284" y="488" type="curve" smooth="yes"/>
      <point x="284" y="425"/>
      <point x="277" y="397"/>
      <point x="243" y="260" type="curve" smooth="yes"/>
    </contour>
  </outline>
</glyph>
<glyph name="Phi" format="2">
  <advance width="652"/>
  <unicode hex="03A6"/>
  <outline>
    <contour>
      <point x="340" y="681" type="line" smooth="yes"/>
      <point x="318" y="681"/>
      <point x="294" y="683"/>
      <point x="272" y="683" type="curve" smooth="yes"/>
      <point x="262" y="683"/>
      <point x="252" y="683"/>
      <point x="252" y="664" type="curve" smooth="yes"/>
      <point x="252" y="659"/>
      <point x="256" y="655"/>
      <point x="260" y="655" type="curve"/>
      <point x="262" y="654"/>
      <point x="264" y="654"/>
      <point x="284" y="654" type="curve" smooth="yes"/>
      <point x="360" y="654"/>
      <point x="360" y="646"/>
      <point x="360" y="631" type="curve" smooth="yes"/>
      <point x="360" y="624"/>
      <point x="348" y="577"/>
      <point x="341" y="550" type="curve"/>
      <point x="176" y="539"/>
      <point x="22" y="428"/>
      <point x="22" y="305" type="curve" smooth="yes"/>
      <point x="22" y="220"/>
      <point x="99" y="145"/>
      <point x="237" y="132" type="curve"/>
      <point x="228" y="98"/>
      <point x="233" y="118"/>
      <point x="225" y="84" type="curve" smooth="yes"/>
      <point x="213" y="37"/>
      <point x="211" y="29"/>
      <point x="122" y="29" type="curve" smooth="yes"/>
      <point x="96" y="29"/>
      <point x="88" y="29"/>
      <point x="88" y="10" type="curve" smooth="yes"/>
      <point x="88" y="0"/>
      <point x="97" y="0"/>
      <point x="104" y="0" type="curve" smooth="yes"/>
      <point x="126" y="0"/>
      <point x="150" y="2"/>
      <point x="172" y="2" type="curve" smooth="yes"/>
      <point x="310" y="2" type="line" smooth="yes"/>
      <point x="332" y="2"/>
      <point x="356" y="0"/>
      <point x="378" y="0" type="curve" smooth="yes"/>
      <point x="387" y="0"/>
      <point x="399" y="0"/>
      <point x="399" y="18" type="curve" smooth="yes"/>
      <point x="399" y="29"/>
      <point x="393" y="29"/>
      <point x="371" y="29" type="curve" smooth="yes"/>
      <point x="292" y="29"/>
      <point x="290" y="37"/>
      <point x="290" y="51" type="curve" smooth="yes"/>
      <point x="290" y="59"/>
      <point x="299" y="90"/>
      <point x="310" y="133" type="curve"/>
      <point x="484" y="146"/>
      <point x="629" y="261"/>
      <point x="629" y="378" type="curve" smooth="yes"/>
      <point x="629" y="464"/>
      <point x="547" y="540"/>
      <point x="414" y="550" type="curve"/>
      <point x="422" y="584"/>
      <point x="417" y="565"/>
      <point x="426" y="598" type="curve" smooth="yes"/>
      <point x="438" y="647"/>
      <point x="440" y="654"/>
      <point x="532" y="654" type="curve" smooth="yes"/>
      <point x="554" y="654"/>
      <point x="562" y="654"/>
      <point x="562" y="673" type="curve" smooth="yes"/>
      <point x="562" y="683"/>
      <point x="551" y="683"/>
      <point x="547" y="683" type="curve" smooth="yes"/>
      <point x="525" y="683"/>
      <point x="501" y="681"/>
      <point x="479" y="681" type="curve" smooth="yes"/>
    </contour>
    <contour>
      <point x="242" y="153" type="line"/>
      <point x="212" y="156"/>
      <point x="172" y="166"/>
      <point x="142" y="193" type="curve" smooth="yes"/>
      <point x="105" y="226"/>
      <point x="105" y="266"/>
      <point x="105" y="284" type="curve" smooth="yes"/>
      <point x="105" y="361"/>
      <point x="150" y="509"/>
      <point x="336" y="530" type="curve"/>
    </contour>
    <contour>
      <point x="409" y="530" type="line"/>
      <point x="437" y="527"/>
      <point x="477" y="518"/>
      <point x="509" y="490" type="curve" smooth="yes"/>
      <point x="546" y="458"/>
      <point x="546" y="414"/>
      <point x="546" y="399" type="curve" smooth="yes"/>
      <point x="546" y="328"/>
      <point x="504" y="174"/>
      <point x="315" y="153" type="curve"/>
    </contour>
  </outline>
</glyph>
<glyph name="Psi" format="2">
  <advance width="598"/>
  <unicode hex="03A8"/>
  <outline>
    <contour>
      <point x="405" y="606" type="line" smooth="yes"/>
      <point x="414" y="644"/>
      <point x="417" y="654"/>
      <point x="505" y="654" type="curve" smooth="yes"/>
      <point x="532" y="654"/>
      <point x="539" y="654"/>
      <point x="539" y="673" type="curve" smooth="yes"/>
      <point x="539" y="683"/>
      <point x="528" y="683"/>
      <point x="524" y="683" type="curve" smooth="yes"/>
      <point x="502" y="683"/>
      <point x="478" y="681"/>
      <point x="456" y="681" type="curve" smooth="yes"/>
      <point x="317" y="681" type="line" smooth="yes"/>
      <point x="295" y="681"/>
      <point x="271" y="683"/>
      <point x="249" y="683" type="curve" smooth="yes"/>
      <point x="240" y="683"/>
      <point x="229" y="683"/>
      <point x="229" y="664" type="curve" smooth="yes"/>
      <point x="229" y="654"/>
      <point x="237" y="654"/>
      <point x="258" y="654" type="curve" smooth="yes"/>
      <point x="337" y="654"/>
      <point x="337" y="646"/>
      <point x="337" y="631" type="curve" smooth="yes"/>
      <point x="337" y="630"/>
      <point x="337" y="623"/>
      <point x="333" y="607" type="curve" smooth="yes"/>
      <point x="219" y="154" type="line"/>
      <point x="152" y="170"/>
      <point x="121" y="220"/>
      <point x="121" y="298" type="curve" smooth="yes"/>
      <point x="121" y="312"/>
      <point x="123" y="349"/>
      <point x="136" y="402" type="curve" smooth="yes"/>
      <point x="143" y="431"/>
      <point x="147" y="452"/>
      <point x="147" y="477" type="curve" smooth="yes"/>
      <point x="147" y="555"/>
      <point x="103" y="555"/>
      <point x="77" y="555" type="curve" smooth="yes"/>
      <point x="53" y="555" type="line" smooth="yes"/>
      <point x="36" y="555"/>
      <point x="27" y="555"/>
      <point x="27" y="545" type="curve" smooth="yes"/>
      <point x="27" y="536"/>
      <point x="36" y="535"/>
      <point x="39" y="535" type="curve"/>
      <point x="52" y="533"/>
      <point x="75" y="530"/>
      <point x="75" y="477" type="curve" smooth="yes"/>
      <point x="75" y="456"/>
      <point x="71" y="434"/>
      <point x="66" y="412" type="curve" smooth="yes"/>
      <point x="63" y="401"/>
      <point x="52" y="357"/>
      <point x="52" y="315" type="curve" smooth="yes"/>
      <point x="52" y="209"/>
      <point x="108" y="148"/>
      <point x="214" y="133" type="curve"/>
      <point x="202" y="85" type="line" smooth="yes"/>
      <point x="190" y="37"/>
      <point x="188" y="29"/>
      <point x="99" y="29" type="curve" smooth="yes"/>
      <point x="73" y="29"/>
      <point x="65" y="29"/>
      <point x="65" y="10" type="curve" smooth="yes"/>
      <point x="65" y="0"/>
      <point x="74" y="0"/>
      <point x="81" y="0" type="curve" smooth="yes"/>
      <point x="103" y="0"/>
      <point x="127" y="2"/>
      <point x="149" y="2" type="curve" smooth="yes"/>
      <point x="287" y="2" type="line" smooth="yes"/>
      <point x="309" y="2"/>
      <point x="334" y="0"/>
      <point x="356" y="0" type="curve" smooth="yes"/>
      <point x="364" y="0"/>
      <point x="376" y="0"/>
      <point x="376" y="18" type="curve" smooth="yes"/>
      <point x="376" y="29"/>
      <point x="370" y="29"/>
      <point x="348" y="29" type="curve" smooth="yes"/>
      <point x="269" y="29"/>
      <point x="267" y="36"/>
      <point x="267" y="51" type="curve" smooth="yes"/>
      <point x="267" y="53"/>
      <point x="267" y="55"/>
      <point x="286" y="133" type="curve"/>
      <point x="448" y="150"/>
      <point x="532" y="264"/>
      <point x="571" y="402" type="curve" smooth="yes"/>
      <point x="584" y="448"/>
      <point x="605" y="526"/>
      <point x="665" y="535" type="curve" smooth="yes"/>
      <point x="673" y="536"/>
      <point x="679" y="537"/>
      <point x="679" y="545" type="curve" smooth="yes"/>
      <point x="679" y="555"/>
      <point x="672" y="555"/>
      <point x="653" y="555" type="curve" smooth="yes"/>
      <point x="628" y="555" type="line" smooth="yes"/>
      <point x="605" y="555"/>
      <point x="582" y="555"/>
      <point x="552" y="523" type="curve" smooth="yes"/>
      <point x="529" y="497"/>
      <point x="512" y="455"/>
      <point x="501" y="413" type="curve" smooth="yes"/>
      <point x="483" y="343"/>
      <point x="439" y="191"/>
      <point x="292" y="155" type="curve"/>
    </contour>
  </outline>
</glyph>
<glyph name="alpha" format="2">
  <advance width="622"/>
  <unicode hex="03B1"/>
  <outline>
    <contour>
      <point x="463" y="253" type="line" smooth="yes"/>
      <point x="463" y="350"/>
      <point x="408" y="441"/>
      <point x="302" y="441" type="curve" smooth="yes"/>
      <point x="171" y="441"/>
      <point x="40" y="298"/>
      <point x="40" y="156" type="curve" smooth="yes"/>
      <point x="40" y="69"/>
      <point x="94" y="-10"/>
      <point x="196" y="-10" type="curve" smooth="yes"/>
      <point x="258" y="-10"/>
      <point x="332" y="14"/>
      <point x="403" y="74" type="curve"/>
      <point x="417" y="18"/>
      <point x="448" y="-10"/>
      <point x="491" y="-10" type="curve" smooth="yes"/>
      <point x="545" y="-10"/>
      <point x="572" y="46"/>
      <point x="572" y="59" type="curve" smooth="yes"/>
      <point x="572" y="68"/>
      <point x="565" y="68"/>
      <point x="562" y="68" type="curve" smooth="yes"/>
      <point x="554" y="68"/>
      <point x="553" y="65"/>
      <point x="550" y="57" type="curve" smooth="yes"/>
      <point x="541" y="32"/>
      <point x="518" y="10"/>
      <point x="494" y="10" type="curve" smooth="yes"/>
      <point x="463" y="10"/>
      <point x="463" y="74"/>
      <point x="463" y="135" type="curve"/>
      <point x="565" y="257"/>
      <point x="589" y="383"/>
      <point x="589" y="384" type="curve" smooth="yes"/>
      <point x="589" y="393"/>
      <point x="581" y="393"/>
      <point x="578" y="393" type="curve" smooth="yes"/>
      <point x="569" y="393"/>
      <point x="568" y="390"/>
      <point x="564" y="372" type="curve"/>
      <point x="551" y="328"/>
      <point x="525" y="250"/>
      <point x="463" y="168" type="curve"/>
    </contour>
    <contour>
      <point x="400" y="98" type="curve"/>
      <point x="312" y="19"/>
      <point x="233" y="10"/>
      <point x="198" y="10" type="curve" smooth="yes"/>
      <point x="127" y="10"/>
      <point x="107" y="73"/>
      <point x="107" y="120" type="curve" smooth="yes"/>
      <point x="107" y="163"/>
      <point x="129" y="265"/>
      <point x="160" y="320" type="curve" smooth="yes"/>
      <point x="201" y="390"/>
      <point x="257" y="421"/>
      <point x="302" y="421" type="curve" smooth="yes"/>
      <point x="399" y="421"/>
      <point x="399" y="294"/>
      <point x="399" y="210" type="curve" smooth="yes"/>
      <point x="399" y="185"/>
      <point x="398" y="159"/>
      <point x="398" y="134" type="curve" smooth="yes"/>
      <point x="398" y="114"/>
      <point x="399" y="109"/>
    </contour>
  </outline>
</glyph>
<glyph name="beta" format="2">
  <advance width="553"/>
  <unicode hex="03B2"/>
  <outline>
    <contour>
      <point x="566.0" y="582" type="curve" smooth="yes"/>
      <point x="566.0" y="642"/>
      <point x="515.0" y="705"/>
      <point x="424.0" y="705" type="curve" smooth="yes"/>
      <point x="295.0" y="705"/>
      <point x="213.0" y="547"/>
      <point x="187.0" y="443" type="curve" smooth="yes"/>
      <point x="29.0" y="-184" type="line" smooth="yes"/>
      <point x="27.0" y="-192"/>
      <point x="33.0" y="-194"/>
      <point x="38.0" y="-194" type="curve" smooth="yes"/>
      <point x="45.0" y="-194"/>
      <point x="50.0" y="-193"/>
      <point x="51.0" y="-188" type="curve" smooth="yes"/>
      <point x="121.0" y="92" type="line"/>
      <point x="131.0" y="36"/>
      <point x="186.0" y="-10"/>
      <point x="245.0" y="-10" type="curve" smooth="yes"/>
      <point x="388.0" y="-10"/>
      <point x="523.0" y="102"/>
      <point x="523.0" y="251" type="curve" smooth="yes"/>
      <point x="523.0" y="289"/>
      <point x="514.0" y="327"/>
      <point x="493.0" y="359" type="curve" smooth="yes"/>
      <point x="481.0" y="378"/>
      <point x="466.0" y="392"/>
      <point x="450.0" y="404" type="curve"/>
      <point x="522.0" y="442"/>
      <point x="566.0" y="503"/>
    </contour>
    <contour>
      <point x="392.0" y="405" type="curve"/>
      <point x="376.0" y="399"/>
      <point x="360.0" y="397"/>
      <point x="341.0" y="397" type="curve" smooth="yes"/>
      <point x="327.0" y="397"/>
      <point x="314.0" y="396"/>
      <point x="296.0" y="402" type="curve"/>
      <point x="306.0" y="409"/>
      <point x="321.0" y="411"/>
      <point x="342.0" y="411" type="curve" smooth="yes"/>
      <point x="360.0" y="411"/>
      <point x="378.0" y="409"/>
    </contour>
    <contour>
      <point x="514.0" y="591" type="curve" smooth="yes"/>
      <point x="514.0" y="536"/>
      <point x="487.0" y="456"/>
      <point x="422.0" y="419" type="curve"/>
      <point x="403.0" y="426"/>
      <point x="377.0" y="431"/>
      <point x="355.0" y="431" type="curve" smooth="yes"/>
      <point x="334.0" y="431"/>
      <point x="274.0" y="433"/>
      <point x="274.0" y="401" type="curve" smooth="yes"/>
      <point x="274.0" y="374"/>
      <point x="329.0" y="377"/>
      <point x="346.0" y="377" type="curve" smooth="yes"/>
      <point x="372.0" y="377"/>
      <point x="395.0" y="383"/>
      <point x="419.0" y="390" type="curve"/>
      <point x="451.0" y="364"/>
      <point x="465.0" y="330"/>
      <point x="465.0" y="280" type="curve" smooth="yes"/>
      <point x="465.0" y="222"/>
      <point x="449.0" y="175"/>
      <point x="430.0" y="132" type="curve" smooth="yes"/>
      <point x="397.0" y="58"/>
      <point x="319.0" y="10"/>
      <point x="250.0" y="10" type="curve" smooth="yes"/>
      <point x="177.0" y="10"/>
      <point x="139.0" y="68"/>
      <point x="139.0" y="136" type="curve" smooth="yes"/>
      <point x="139.0" y="145"/>
      <point x="139.0" y="158"/>
      <point x="143.0" y="173" type="curve" smooth="yes"/>
      <point x="208.0" y="436" type="line" smooth="yes"/>
      <point x="241.0" y="567"/>
      <point x="325.0" y="685"/>
      <point x="422.0" y="685" type="curve" smooth="yes"/>
      <point x="494.0" y="685"/>
      <point x="514.0" y="635"/>
    </contour>
  </outline>
</glyph>
<glyph name="gamma" format="2">
  <advance width="507"/>
  <unicode hex="03B3"/>
  <outline>
    <contour>
      <point x="378" y="122" type="curve"/>
      <point x="376" y="171"/>
      <point x="374" y="248"/>
      <point x="336" y="338" type="curve" smooth="yes"/>
      <point x="316" y="388"/>
      <point x="282" y="441"/>
      <point x="209" y="441" type="curve" smooth="yes"/>
      <point x="86" y="441"/>
      <point x="19" y="284"/>
      <point x="19" y="258" type="curve" smooth="yes"/>
      <point x="19" y="249"/>
      <point x="26" y="249"/>
      <point x="29" y="249" type="curve" smooth="yes"/>
      <point x="38" y="249"/>
      <point x="38" y="251"/>
      <point x="43" y="264" type="curve" smooth="yes"/>
      <point x="64" y="326"/>
      <point x="128" y="375"/>
      <point x="197" y="375" type="curve" smooth="yes"/>
      <point x="336" y="375"/>
      <point x="356" y="220"/>
      <point x="356" y="121" type="curve" smooth="yes"/>
      <point x="356" y="58"/>
      <point x="349" y="37"/>
      <point x="343" y="17" type="curve" smooth="yes"/>
      <point x="324" y="-45"/>
      <point x="291" y="-169"/>
      <point x="291" y="-197" type="curve" smooth="yes"/>
      <point x="291" y="-205"/>
      <point x="294" y="-214"/>
      <point x="302" y="-214" type="curve" smooth="yes"/>
      <point x="317" y="-214"/>
      <point x="326" y="-181"/>
      <point x="337" y="-141" type="curve" smooth="yes"/>
      <point x="361" y="-53"/>
      <point x="367" y="-9"/>
      <point x="372" y="31" type="curve" smooth="yes"/>
      <point x="375" y="55"/>
      <point x="432" y="220"/>
      <point x="511" y="377" type="curve"/>
      <point x="518" y="393"/>
      <point x="532" y="420"/>
      <point x="532" y="423" type="curve" smooth="yes"/>
      <point x="532" y="424"/>
      <point x="531" y="431"/>
      <point x="522" y="431" type="curve" smooth="yes"/>
      <point x="520" y="431"/>
      <point x="515" y="431"/>
      <point x="513" y="427" type="curve"/>
      <point x="511" y="425"/>
      <point x="476" y="357"/>
      <point x="446" y="289" type="curve" smooth="yes"/>
      <point x="431" y="255"/>
      <point x="411" y="210"/>
    </contour>
  </outline>
</glyph>
<glyph name="delta" format="2">
  <advance width="433"/>
  <unicode hex="03B4"/>
  <outline>
    <contour>
      <point x="260" y="436" type="curve"/>
      <point x="132" y="405"/>
      <point x="40" y="272"/>
      <point x="40" y="155" type="curve" smooth="yes"/>
      <point x="40" y="48"/>
      <point x="112" y="-12"/>
      <point x="192" y="-12" type="curve" smooth="yes"/>
      <point x="310" y="-12"/>
      <point x="390" y="150"/>
      <point x="390" y="283" type="curve" smooth="yes"/>
      <point x="390" y="373"/>
      <point x="348" y="428"/>
      <point x="323" y="461" type="curve" smooth="yes"/>
      <point x="286" y="508"/>
      <point x="226" y="585"/>
      <point x="226" y="633" type="curve" smooth="yes"/>
      <point x="226" y="650"/>
      <point x="239" y="680"/>
      <point x="283" y="680" type="curve" smooth="yes"/>
      <point x="314" y="680"/>
      <point x="333" y="669"/>
      <point x="363" y="652" type="curve"/>
      <point x="372" y="646"/>
      <point x="395" y="633"/>
      <point x="408" y="633" type="curve" smooth="yes"/>
      <point x="429" y="633"/>
      <point x="444" y="654"/>
      <point x="444" y="670" type="curve" smooth="yes"/>
      <point x="444" y="689"/>
      <point x="429" y="692"/>
      <point x="394" y="700" type="curve" smooth="yes"/>
      <point x="347" y="710"/>
      <point x="333" y="710"/>
      <point x="316" y="710" type="curve" smooth="yes"/>
      <point x="299" y="710"/>
      <point x="201" y="710"/>
      <point x="201" y="608" type="curve" smooth="yes"/>
      <point x="201" y="559"/>
      <point x="226" y="502"/>
    </contour>
    <contour>
      <point x="271" y="417" type="curve"/>
      <point x="309" y="338"/>
      <point x="324" y="308"/>
      <point x="324" y="243" type="curve" smooth="yes"/>
      <point x="324" y="165"/>
      <point x="282" y="8"/>
      <point x="193" y="8" type="curve" smooth="yes"/>
      <point x="154" y="8"/>
      <point x="98" y="34"/>
      <point x="98" y="127" type="curve" smooth="yes"/>
      <point x="98" y="192"/>
      <point x="135" y="381"/>
    </contour>
  </outline>
</glyph>
<glyph name="epsilon" format="2">
  <advance width="458"/>
  <unicode hex="03B5"/>
  <outline>
    <contour>
      <point x="139" y="228" type="curve"/>
      <point x="171" y="215"/>
      <point x="205" y="215"/>
      <point x="224" y="215" type="curve" smooth="yes"/>
      <point x="250" y="215"/>
      <point x="302" y="215"/>
      <point x="302" y="244" type="curve" smooth="yes"/>
      <point x="302" y="262"/>
      <point x="283" y="269"/>
      <point x="232" y="269" type="curve" smooth="yes"/>
      <point x="207" y="269"/>
      <point x="177" y="266"/>
      <point x="142" y="251" type="curve"/>
      <point x="111" y="266"/>
      <point x="99" y="289"/>
      <point x="99" y="311" type="curve" smooth="yes"/>
      <point x="99" y="373"/>
      <point x="197" y="409"/>
      <point x="286" y="409" type="curve" smooth="yes"/>
      <point x="303" y="409"/>
      <point x="339" y="409"/>
      <point x="381" y="378" type="curve" smooth="yes"/>
      <point x="387" y="374"/>
      <point x="390" y="371"/>
      <point x="397" y="371" type="curve" smooth="yes"/>
      <point x="409" y="371"/>
      <point x="422" y="384"/>
      <point x="422" y="396" type="curve" smooth="yes"/>
      <point x="422" y="414"/>
      <point x="364" y="452"/>
      <point x="295" y="452" type="curve" smooth="yes"/>
      <point x="183" y="452"/>
      <point x="77" y="385"/>
      <point x="77" y="311" type="curve" smooth="yes"/>
      <point x="77" y="274"/>
      <point x="101" y="251"/>
      <point x="118" y="239" type="curve"/>
      <point x="60" y="206"/>
      <point x="26" y="152"/>
      <point x="26" y="103" type="curve" smooth="yes"/>
      <point x="26" y="34"/>
      <point x="88" y="-21"/>
      <point x="184" y="-21" type="curve" smooth="yes"/>
      <point x="316" y="-21"/>
      <point x="369" y="67"/>
      <point x="369" y="81" type="curve" smooth="yes"/>
      <point x="369" y="86"/>
      <point x="365" y="90"/>
      <point x="360" y="90" type="curve" smooth="yes"/>
      <point x="355" y="90"/>
      <point x="353" y="87"/>
      <point x="349" y="81" type="curve"/>
      <point x="338" y="62"/>
      <point x="312" y="22"/>
      <point x="193" y="22" type="curve" smooth="yes"/>
      <point x="131" y="22"/>
      <point x="49" y="38"/>
      <point x="49" y="109" type="curve" smooth="yes"/>
      <point x="49" y="143"/>
      <point x="74" y="194"/>
    </contour>
    <contour>
      <point x="170" y="240" type="curve"/>
      <point x="197" y="249"/>
      <point x="223" y="249"/>
      <point x="230" y="249" type="curve" smooth="yes"/>
      <point x="258" y="249"/>
      <point x="263" y="247"/>
      <point x="279" y="243" type="curve"/>
      <point x="262" y="235"/>
      <point x="260" y="235"/>
      <point x="224" y="235" type="curve" smooth="yes"/>
      <point x="206" y="235"/>
      <point x="190" y="235"/>
    </contour>
  </outline>
</glyph>
